<svg id="Group_73" data-name="Group 73" xmlns="http://www.w3.org/2000/svg" xmlns:xlink="http://www.w3.org/1999/xlink" width="817" height="487.603" viewBox="0 0 817 487.603">
  <defs>
    <clipPath id="clip-path">
      <rect id="Rectangle_113" data-name="Rectangle 113" width="817" height="487.603" fill="#fff"/>
    </clipPath>
  </defs>
  <g id="Group_73-2" data-name="Group 73" clip-path="url(#clip-path)">
    <path id="Path_491" data-name="Path 491" d="M59.785,50.726,65.5,47.512l6.947,12.357c6.145,10.928,15.486,12.161,23.7,7.542a28.139,28.139,0,0,0,7.083-5.957l-5.46-9.715a12.644,12.644,0,0,1-4.94,4.754c-2.79,1.566-6.761,1.356-9.493-3.5L76.712,41.206l11.5-6.467-5.18-9.215-11.5,6.467L66.151,22.42,54.937,28.726l5.38,9.57L54.6,41.509Z" transform="translate(50.153 20.593)" fill="#fff"/>
    <rect id="Rectangle_107" data-name="Rectangle 107" width="12.865" height="57.683" transform="matrix(0.638, -0.77, 0.77, 0.638, 42.222, 99.755)" fill="#fff"/>
    <path id="Path_492" data-name="Path 492" d="M87.014,50.174,86.9,62.961l8.159-2.989L97.28,46.5c.6-3.363,1.105-5.556.2-8.019-1.777-4.848-6.425-6.813-11.5-4.952-4.927,1.805-7.052,6.249-5.276,11.1a8.176,8.176,0,0,0,6.308,5.546" transform="translate(73.56 30.162)" fill="#fff"/>
    <path id="Path_493" data-name="Path 493" d="M74.435,28.326,71.517,15.112,61.159,20.936l5.063,12.008Z" transform="translate(56.175 13.88)" fill="#fff"/>
    <path id="Path_494" data-name="Path 494" d="M76.921,75.392c5.514-4.775,8.493-9.848,9.151-14.216l-7.029-8.115A24.2,24.2,0,0,1,71.734,65.9c-5.637,4.883-11.421,5.339-15.839,2.12L77.762,49.078C70.41,37.338,57.825,33.82,47.292,42.94,37.628,51.313,37.45,64.372,45.444,73.6c8.639,9.972,21.194,10.7,31.477,1.79M52.765,50.887c3.1-2.682,7.221-2.678,10.038.2L50.661,61.6c-1.9-4.319-.869-8.136,2.1-10.713" transform="translate(36.488 34.696)" fill="#fff"/>
    <path id="Path_495" data-name="Path 495" d="M433.276,127.828l7.858-.363-.593-12.852-41.908,1.934.593,12.85,18.253-.84c7.86-.282,12.982,4.075,13.253,9.886a15.148,15.148,0,0,1-1.391,7.2l12.114-.558a15.137,15.137,0,0,0,1.178-6.452c-.242-5.239-4.046-9.491-9.357-10.805" transform="translate(366.149 105.273)" fill="#fff"/>
    <path id="Path_496" data-name="Path 496" d="M70.219,114.565l-19.047-10.6c4.917-.077,9.075-2.826,11.824-7.768,5.537-9.953,1.709-22.117-9.389-28.292s-23.452-3.016-28.991,6.937c-2.749,4.94-2.9,9.923-.368,14.143l-4.869-2.709L13.126,97.519l50.837,28.288ZM37.71,96.478c-5.157-2.868-6.951-8.745-4.242-13.614,2.751-4.94,8.689-6.511,13.844-3.643s6.951,8.745,4.2,13.685c-2.709,4.869-8.647,6.44-13.8,3.572" transform="translate(12.056 59.468)" fill="#fff"/>
    <path id="Path_497" data-name="Path 497" d="M13.334,143.383l-7.851.518.848,12.835,41.862-2.759-.846-12.835-18.234,1.2c-7.854.436-13.063-3.82-13.445-9.627a15.175,15.175,0,0,1,1.249-7.225l-12.1.8a15.087,15.087,0,0,0-1.051,6.475C4.109,138,8,142.174,13.334,143.383" transform="translate(3.432 115.265)" fill="#fff"/>
    <path id="Path_498" data-name="Path 498" d="M23.622,145.79c12.326,1.79,23.156-6.657,25.014-19.469s-6.122-23.989-18.446-25.779c-12.407-1.8-23.156,6.659-25.015,19.471s6.041,23.978,18.448,25.777m-6.934-24.106c.813-5.594,5.8-9.176,11.642-8.328s9.6,5.7,8.793,11.294c-.8,5.514-5.79,9.1-11.628,8.248s-9.606-5.7-8.806-11.214" transform="translate(4.504 92.128)" fill="#fff"/>
    <path id="Path_499" data-name="Path 499" d="M35.847,173.418c-4.409,2.686-5.427,7.628-2.655,12.175,2.732,4.478,7.547,5.765,11.954,3.077,4.267-2.6,5.33-7.471,2.6-11.948-2.772-4.549-7.63-5.905-11.9-3.3" transform="translate(29.072 158.082)" fill="#fff"/>
    <path id="Path_500" data-name="Path 500" d="M422.893,132.317c-12.292-2.032-23.289,6.2-25.4,18.974s5.646,24.11,17.934,26.145c12.371,2.045,23.289-6.2,25.4-18.974s-5.566-24.1-17.934-26.145m6.454,24.246c-.923,5.577-5.986,9.061-11.8,8.1s-9.495-5.892-8.57-11.471c.909-5.5,5.97-8.979,11.791-8.017s9.493,5.892,8.583,11.39" transform="translate(364.782 121.252)" fill="#fff"/>
    <path id="Path_501" data-name="Path 501" d="M116.921,63.261l-.612-12.44,4.9-5.414L133.537,62.44l15.306-.754-19-25.892,14.314-15.887-17.27.854-11.43,12.789-1.376-27.91-12.854.635L104.07,63.9Z" transform="translate(92.976 5.179)" fill="#fff"/>
    <path id="Path_502" data-name="Path 502" d="M373.518,79.058c2.41,2.1,7.311,4.957,11.964,5.1l8.455-9.7a15.653,15.653,0,0,1-12.28-3.745c-4.817-4.2-5.552-10.711-1.679-15.156s10.429-4.606,15.246-.409a15.2,15.2,0,0,1,5.362,11.306l8.346-9.575c-.787-4.708-4.148-8.833-6.557-10.932-10.254-8.936-23.381-8.965-32.156,1.1-8.722,10.007-6.953,23.068,3.3,32" transform="translate(334.913 36.162)" fill="#fff"/>
    <path id="Path_503" data-name="Path 503" d="M369.171,36.362c5.378,2.978,7.317,7.423,5.055,11.509l-.953,1.721a18.791,18.791,0,0,0-7.429-7.392c-7.386-4.088-15.191-2.509-19,4.372-3.77,6.811-1.458,14.648,5.495,18.5a11.919,11.919,0,0,0,12.44-.138l-2.5,4.516,11.258,6.233L385.8,53.529c5.044-9.1,1.151-19.5-9.385-25.338a25.4,25.4,0,0,0-14.571-3.29l-5.2,9.393a19.269,19.269,0,0,1,12.532,2.068m.489,19.755a6.942,6.942,0,0,1-9.278,2.544c-2.868-1.589-3.962-4.347-2.77-6.5s4.109-2.688,6.978-1.1a15.141,15.141,0,0,1,5.149,4.911Z" transform="translate(316.927 22.767)" fill="#fff"/>
    <path id="Path_504" data-name="Path 504" d="M303.923,37.646c.082-7.866,4.672-12.781,10.488-12.781a15.149,15.149,0,0,1,7.131,1.719V14.457a15.163,15.163,0,0,0-6.392-1.473c-5.247,0-9.669,3.6-11.227,8.848V13.966H291.059l0,41.952h12.866Z" transform="translate(267.339 11.926)" fill="#fff"/>
    <path id="Path_505" data-name="Path 505" d="M182.613,18.279a7.592,7.592,0,0,0,7.7-7.457,7.662,7.662,0,0,0-15.323,0,7.519,7.519,0,0,0,7.62,7.457" transform="translate(160.733 2.942)" fill="#fff"/>
    <path id="Path_506" data-name="Path 506" d="M408.1,60.018a7.662,7.662,0,0,0-9.8-11.782,7.664,7.664,0,0,0,9.8,11.782" transform="translate(363.397 42.665)" fill="#fff"/>
    <rect id="Rectangle_108" data-name="Rectangle 108" width="41.954" height="12.866" transform="translate(720.901 126.431) rotate(-39.753)" fill="#fff"/>
    <path id="Path_507" data-name="Path 507" d="M387.448,72.584c-4.217,2.684-5.18,7.576-2.362,12,2.861,4.491,7.745,5.752,11.96,3.068,4.353-2.776,5.276-7.735,2.413-12.227C396.641,71,391.8,69.81,387.448,72.584" transform="translate(352.233 65.303)" fill="#fff"/>
    <path id="Path_508" data-name="Path 508" d="M58.733,164.257l-16.85,4.848-2.268-7.877c-3.465-12.046-13.721-18.049-25.138-14.765S-2.438,160.284,1.028,172.332l5.984,20.789,55.439-15.951Zm-43.784,12.6-1.719-5.986c-1.658-5.748.351-10.333,4.919-11.647,4.645-1.337,8.7,1.5,10.356,7.252l1.723,5.984Z" transform="translate(0 133.711)" fill="#fff"/>
    <rect id="Rectangle_109" data-name="Rectangle 109" width="12.865" height="41.952" transform="translate(336.954 25.892)" fill="#fff"/>
    <path id="Path_509" data-name="Path 509" d="M147.837,56.432c12.453,0,20.566-7.785,20.568-19.665V13.5H155.622V36.274c0,5.163-3.031,8.524-7.785,8.524s-7.785-3.361-7.783-8.524V13.5H127.188V36.768c0,11.879,8.113,19.665,20.649,19.665" transform="translate(116.824 12.396)" fill="#fff"/>
    <path id="Path_510" data-name="Path 510" d="M454.741,106.983l-5.566-20.906-55.748,14.84,3.457,12.984,16.944-4.509,2.11,7.918c3.225,12.115,13.355,18.322,24.837,15.267s17.188-13.479,13.965-25.595m-17.38,12.766c-4.672,1.243-8.672-1.677-10.208-7.459l-1.6-6.016,15.363-4.09,1.6,6.018c1.539,5.78-.558,10.324-5.153,11.548" transform="translate(361.367 79.063)" fill="#fff"/>
    <path id="Path_511" data-name="Path 511" d="M143.646,21.633c6.719,0,11.8-4.589,11.8-10.817S150.365,0,143.646,0,131.93,4.589,131.93,10.817s5,10.817,11.716,10.817m.163-14.341a3.336,3.336,0,0,1,3.524,3.442,3.468,3.468,0,0,1-3.524,3.6,3.557,3.557,0,0,1-3.687-3.6,3.428,3.428,0,0,1,3.687-3.442" transform="translate(121.179)" fill="#fff"/>
    <path id="Path_512" data-name="Path 512" d="M188.473,44.8H170.119l18.354-23.682V13.5H152.994V24.065H170.61L152.256,47.828v7.62h36.218Z" transform="translate(139.849 12.397)" fill="#fff"/>
    <path id="Path_513" data-name="Path 513" d="M176.716,17.259l8.848-12.946H174.258l-4.835,6.719-4.915-6.719H153.281l8.931,12.946Z" transform="translate(140.79 3.962)" fill="#fff"/>
    <rect id="Rectangle_110" data-name="Rectangle 110" width="12.865" height="57.691" transform="matrix(0.653, -0.757, 0.757, 0.653, 718.765, 363.511)" fill="#fff"/>
    <path id="Path_514" data-name="Path 514" d="M252.066,229.445h18.354l-18.354,23.682v7.618h35.479V250.177H269.93l18.354-23.763v-7.62H252.066Z" transform="translate(231.526 200.964)" fill="#fff"/>
    <path id="Path_515" data-name="Path 515" d="M369.331,200.741c-5.606,4.668-8.679,9.681-9.428,14.034l6.868,8.252a24.206,24.206,0,0,1,7.561-12.695c5.731-4.769,11.519-5.115,15.874-1.807l-22.228,18.508c7.118,11.881,19.63,15.642,30.337,6.728,9.823-8.179,10.258-21.232,2.446-30.614-8.441-10.139-20.979-11.108-31.431-2.406M393,225.712c-3.15,2.621-7.271,2.534-10.03-.393l12.342-10.277c1.813,4.355.71,8.154-2.312,10.671" transform="translate(330.575 178.946)" fill="#fff"/>
    <path id="Path_516" data-name="Path 516" d="M295.033,57.408v5.573h12.781V5.295H295.033V26.6c-2.458-4.261-6.884-6.556-12.538-6.556-11.388,0-20.238,9.259-20.238,21.959s8.848,21.959,20.238,21.959c5.654,0,10.08-2.295,12.538-6.556m-9.915-5.078c-5.571,0-9.832-4.426-9.832-10.325s4.261-10.325,9.832-10.325c5.654,0,9.915,4.426,9.915,10.325s-4.263,10.325-9.915,10.325" transform="translate(240.886 4.864)" fill="#fff"/>
    <path id="Path_517" data-name="Path 517" d="M290.815,242.881c-6.719,0-11.8,4.589-11.8,10.817s5.08,10.817,11.8,10.817,11.716-4.589,11.716-10.817-5-10.817-11.716-10.817m-.163,14.341a3.336,3.336,0,0,1-3.524-3.442,3.468,3.468,0,0,1,3.524-3.6,3.557,3.557,0,0,1,3.687,3.6,3.428,3.428,0,0,1-3.687,3.442" transform="translate(256.279 223.089)" fill="#fff"/>
    <rect id="Rectangle_111" data-name="Rectangle 111" width="12.866" height="41.952" transform="translate(462.098 419.759)" fill="#fff"/>
    <path id="Path_518" data-name="Path 518" d="M261.941,243.1l-8.85,12.946H264.4l4.835-6.719,4.915,6.719h11.227L276.445,243.1Z" transform="translate(232.467 223.286)" fill="#fff"/>
    <path id="Path_519" data-name="Path 519" d="M246.162,74.294h11.551l26.878-60.8H270.578l-10,24.827L251.159,13.5h-14.5l17.779,40.149Z" transform="translate(217.371 12.397)" fill="#fff"/>
    <path id="Path_520" data-name="Path 520" d="M247.925,243.1a7.538,7.538,0,1,0,7.622,7.457,7.591,7.591,0,0,0-7.622-7.457" transform="translate(220.647 223.285)" fill="#fff"/>
    <path id="Path_521" data-name="Path 521" d="M344.1,68.159a28.225,28.225,0,0,0,9.2,1.1l3.35-10.63a12.638,12.638,0,0,1-6.847-.355c-3.048-.959-5.612-4-3.937-9.318l4.069-12.9,12.583,3.969L365.7,29.94l-12.587-3.969L356.417,15.5l-12.273-3.87-3.3,10.473-6.252-1.972-3.181,10.082,6.254,1.972L333.4,45.707c-3.772,11.958,1.717,19.619,10.707,22.452" transform="translate(304.403 10.68)" fill="#fff"/>
    <path id="Path_522" data-name="Path 522" d="M345.268,219.054l.366-12.783-8.213,2.828-2.488,13.426c-.666,3.348-1.216,5.529-.363,8.01,1.683,4.881,6.287,6.937,11.4,5.176,4.959-1.707,7.171-6.109,5.491-10.989a8.166,8.166,0,0,0-6.195-5.667" transform="translate(306.906 189.462)" fill="#fff"/>
    <path id="Path_523" data-name="Path 523" d="M327.958,13.563A25.384,25.384,0,0,0,313.25,16.2l-1.14,10.675a19.3,19.3,0,0,1,12.353-2.968c6.112.652,9.629,3.994,9.132,8.641l-.207,1.957a18.761,18.761,0,0,0-9.719-3.923c-8.4-.9-14.974,3.6-15.81,11.419-.825,7.743,4.353,14.065,12.259,14.907a11.917,11.917,0,0,0,11.409-4.961l-.549,5.132,12.795,1.366,2.69-25.184c1.1-10.348-6.527-18.416-18.506-19.7M332.6,41.919a6.941,6.941,0,0,1-7.557,5.953c-3.262-.347-5.345-2.467-5.082-4.911s2.743-4.075,6-3.728a15.15,15.15,0,0,1,6.655,2.523Z" transform="translate(282.693 12.312)" fill="#fff"/>
    <path id="Path_524" data-name="Path 524" d="M295.1,218.281c-12.453,0-20.566,7.785-20.566,19.665v23.271h12.783V238.439c0-5.163,3.031-8.524,7.783-8.524s7.785,3.361,7.785,8.524v22.778h12.866V237.946c0-11.879-8.113-19.665-20.651-19.665" transform="translate(252.16 200.494)" fill="#fff"/>
    <path id="Path_525" data-name="Path 525" d="M329.39,218.817l.372,12.449-5,5.316-12-17.267-15.317.46,18.5,26.253-14.617,15.605,17.282-.518,11.676-12.566.838,27.932,12.858-.388-1.73-57.663Z" transform="translate(273.204 200.632)" fill="#fff"/>
    <path id="Path_526" data-name="Path 526" d="M23.115,199.528a7.664,7.664,0,0,0,9.57,11.973,7.667,7.667,0,0,0-9.57-11.973" transform="translate(18.603 181.814)" fill="#fff"/>
    <path id="Path_527" data-name="Path 527" d="M386.921,227.614l-5.779,3.1-6.705-12.49c-5.932-11.045-15.245-12.463-23.546-8a28.274,28.274,0,0,0-7.2,5.819l5.272,9.817A12.608,12.608,0,0,1,354,221.2c2.814-1.512,6.784-1.222,9.416,3.685l6.4,11.912-11.624,6.239,5,9.314,11.622-6.241L380,255.785l11.335-6.084-5.193-9.675,5.773-3.1Z" transform="translate(315.684 190.921)" fill="#fff"/>
    <path id="Path_528" data-name="Path 528" d="M106.557,235.722c4.006-11.879-1.333-19.647-10.266-22.658a28.272,28.272,0,0,0-9.17-1.276l-3.559,10.565a12.618,12.618,0,0,1,6.841.489c3.027,1.017,5.531,4.111,3.751,9.393l-4.317,12.812-12.5-4.213-3.377,10.02,12.5,4.213-3.507,10.408,12.194,4.108,3.507-10.406,6.212,2.091,3.377-10.017-6.212-2.093Z" transform="translate(67.931 194.524)" fill="#fff"/>
    <path id="Path_529" data-name="Path 529" d="M122.2,218.884a11.932,11.932,0,0,0-11.507,4.737l.65-5.12-12.762-1.619L95.4,242c-1.31,10.323,6.157,18.539,18.1,20.054a25.384,25.384,0,0,0,14.753-2.342l1.351-10.65a19.281,19.281,0,0,1-12.405,2.722c-6.1-.771-9.548-4.184-8.959-8.817l.247-1.949a18.786,18.786,0,0,0,9.637,4.111c8.376,1.061,15.039-3.3,16.029-11.1.98-7.722-4.071-14.145-11.956-15.145m-.117,13.946c-.309,2.438-2.824,4.021-6.074,3.609a15.149,15.149,0,0,1-6.6-2.655l.019-.163a6.941,6.941,0,0,1,7.674-5.8c3.254.412,5.291,2.571,4.982,5.009" transform="translate(87.49 199.208)" fill="#fff"/>
    <path id="Path_530" data-name="Path 530" d="M74.727,241.2c-5.318-3.085-7.173-7.569-4.829-11.609l.988-1.7a18.749,18.749,0,0,0,7.281,7.538c7.3,4.234,15.139,2.809,19.085-4,3.9-6.736,1.748-14.617-5.13-18.606a11.921,11.921,0,0,0-12.442-.107l2.588-4.466-11.131-6.454L58.437,223.7c-5.218,9-1.531,19.477,8.888,25.518A25.382,25.382,0,0,0,81.831,252.8l5.383-9.289A19.272,19.272,0,0,1,74.727,241.2m-.1-19.763a6.941,6.941,0,0,1,9.326-2.362c2.837,1.644,3.875,4.424,2.642,6.554s-4.163,2.605-7,.963a15.141,15.141,0,0,1-5.051-5.015Z" transform="translate(51.515 185.347)" fill="#fff"/>
    <rect id="Rectangle_112" data-name="Rectangle 112" width="41.963" height="12.868" transform="translate(51.962 374.731) rotate(-38.634)" fill="#fff"/>
    <path id="Path_531" data-name="Path 531" d="M236.328,212.6,229.61,224.48c-1.719,2.949-2.949,4.835-2.949,7.457,0,5.163,3.687,8.6,9.094,8.6,5.245,0,8.768-3.44,8.768-8.6a8.171,8.171,0,0,0-4.015-7.375l4.507-11.962Z" transform="translate(208.191 195.276)" fill="#fff"/>
    <path id="Path_532" data-name="Path 532" d="M71.882,195.406c-2.367-2.147-7.214-5.1-11.868-5.339L51.371,199.6a15.664,15.664,0,0,1,12.207,3.989c4.735,4.294,5.343,10.82,1.379,15.193s-10.523,4.4-15.258.106a15.189,15.189,0,0,1-5.14-11.411l-8.534,9.41c.693,4.723,3.973,8.919,6.341,11.066,10.078,9.142,23.208,9.428,32.183-.468,8.921-9.838,7.411-22.936-2.669-32.078" transform="translate(33.091 174.579)" fill="#fff"/>
    <path id="Path_533" data-name="Path 533" d="M381.684,170.23,400.522,181.2c-4.921-.021-9.128,2.649-11.977,7.536-5.733,9.844-2.143,22.082,8.833,28.475s23.391,3.476,29.127-6.368c2.843-4.886,3.089-9.863.643-14.134l4.815,2.8,6.475-11.118-50.276-29.286Zm32.15,18.727c5.1,2.97,6.778,8.881,3.971,13.7-2.843,4.886-8.812,6.339-13.913,3.371s-6.776-8.879-3.929-13.765c2.8-4.815,8.773-6.272,13.871-3.3" transform="translate(350.581 146.146)" fill="#fff"/>
    <path id="Path_534" data-name="Path 534" d="M133.886,237.066c-.081,7.866-4.67,12.781-10.489,12.781a15.145,15.145,0,0,1-7.127-1.719v12.127a15.155,15.155,0,0,0,6.391,1.473c5.245,0,9.669-3.6,11.225-8.848v7.866h12.866V218.794H133.886Z" transform="translate(106.795 200.965)" fill="#fff"/>
    <path id="Path_535" data-name="Path 535" d="M216.382,240.753c0,5.489-3.361,9.259-7.868,9.259s-7.7-3.359-7.7-8.6V218.794H188.032v24.334c0,11.555,6.636,18.6,16.386,18.6a13.643,13.643,0,0,0,11.964-6.473v21.221h12.864V218.794H216.382Z" transform="translate(172.71 200.965)" fill="#fff"/>
    <path id="Path_536" data-name="Path 536" d="M242.121,40.364l0,22.615H254.9l0-24.334c0-11.555-6.638-18.6-16.39-18.6a13.632,13.632,0,0,0-11.96,6.473V5.3H213.689l0,57.684h12.866l0-21.959c0-5.491,3.357-9.259,7.864-9.259s7.7,3.359,7.7,8.6" transform="translate(196.274 4.864)" fill="#fff"/>
    <path id="Path_537" data-name="Path 537" d="M195.681,54.931,202.4,43.052c1.721-2.949,2.951-4.835,2.951-7.457,0-5.163-3.687-8.6-9.094-8.6-5.247,0-8.769,3.44-8.769,8.6a8.17,8.17,0,0,0,4.014,7.375L187,54.931Z" transform="translate(171.758 24.792)" fill="#fff"/>
    <path id="Path_538" data-name="Path 538" d="M355.155,235.248l2.659,13.267,10.467-5.619-4.825-12.1Z" transform="translate(326.214 211.984)" fill="#fff"/>
    <path id="Path_539" data-name="Path 539" d="M199.968,208.971H188.417l-26.878,60.8h14.013l10-24.827,9.424,24.827h14.5l-17.781-40.149Z" transform="translate(148.375 191.942)" fill="#fff"/>
    <path id="Path_540" data-name="Path 540" d="M162.511,218.281c-5.654,0-10.08,2.295-12.537,6.556v-5.571H137.192v57.684h12.781V255.644c2.458,4.261,6.884,6.556,12.537,6.556,11.392,0,20.24-9.259,20.24-21.959s-8.848-21.959-20.24-21.959m-2.623,32.285c-5.652,0-9.915-4.426-9.915-10.325s4.263-10.325,9.915-10.325c5.573,0,9.834,4.426,9.834,10.325s-4.261,10.325-9.834,10.325" transform="translate(126.012 200.494)" fill="#fff"/>
  </g>
</svg>
