<svg xmlns="http://www.w3.org/2000/svg" width="484.888" height="500.884" viewBox="0 0 484.888 500.884">
  <g id="Group_141" data-name="Group 141" transform="translate(-27.199 -11.731)">
    <path id="Path_815" data-name="Path 815" d="M49.385-58.432H4.731v12.284H30.959L3.818-10.209V0h45.4V-12.284H22.327L49.385-48.223Z" transform="translate(241.832 69.982) rotate(2.12)" fill="#006450"/>
    <path id="Path_814" data-name="Path 814" transform="translate(293.724 73.2) rotate(12.842)" fill="#006450"/>
    <path id="Path_813" data-name="Path 813" d="M7.695-52.326v10.854H1.215v10.449h6.48V-17.01C7.695-4.617,15.147.972,24.462.972a27.95,27.95,0,0,0,8.991-1.7V-11.745a12.489,12.489,0,0,1-6.561,1.7c-3.159,0-6.48-2.106-6.48-7.614V-31.023H33.453V-41.472H20.412V-52.326Z" transform="translate(314.264 75.13) rotate(21.289)" fill="#006450"/>
    <path id="Path_812" data-name="Path 812" d="M24.624.972c7.209,0,12.717-1.863,16.038-4.617V-14.418a23.469,23.469,0,0,1-13.77,4.941c-7.29,0-11.826-3.4-13.122-8.505H42.2C44.388-31.509,37.26-42.444,23.49-42.444c-12.636,0-21.222,9.639-21.222,21.708C2.268-7.695,11.178.972,24.624.972ZM7.29-58.887l8.829,12.8H30.456l8.748-12.8H28.026l-4.779,6.642-4.86-6.642Zm6.8,32.481c1.3-4.374,4.536-6.48,8.343-6.48,4.131,0,7.128,2.754,7.371,6.48Z" transform="matrix(0.838, 0.546, -0.546, 0.838, 347.394, 87.276)" fill="#006450"/>
    <path id="Path_811" data-name="Path 811" d="M25.83-42.968C12.218-42.968,2.3-34.358,2.3-20.992,2.3-7.708,12.218.984,25.83.984c3.2,0,8.774-1.066,12.382-4.018V-15.908A15.672,15.672,0,0,1,26.486-10.66c-6.4,0-11.234-4.428-11.234-10.332S20.09-31.324,26.486-31.324a15.208,15.208,0,0,1,11.48,5v-12.71C34.276-42.066,29.028-42.968,25.83-42.968Z" transform="translate(384.153 112.438) rotate(45.651)" fill="#006450"/>
    <path id="Path_810" data-name="Path 810" d="M17.513-58.432H4.482V0H17.513V-22.244c0-5.561,3.4-9.379,7.968-9.379s7.719,3.4,7.719,8.715V0H46.231V-24.651c0-11.7-6.723-18.841-16.683-18.841a13.773,13.773,0,0,0-12.035,6.557Z" transform="translate(411.767 140.945) rotate(58.728)" fill="#006450"/>
    <path id="Path_809" data-name="Path 809" transform="translate(436.218 183.368) rotate(69.063)" fill="#006450"/>
    <path id="Path_808" data-name="Path 808" d="M17.513-42.5H4.482V0H17.513V-22.244c0-5.561,3.4-9.379,7.968-9.379s7.719,3.4,7.719,8.715V0H46.231V-24.651c0-11.7-6.723-18.841-16.683-18.841a13.773,13.773,0,0,0-12.035,6.557Z" transform="translate(444.717 201.365) rotate(79.423)" fill="#006450"/>
    <path id="Path_807" data-name="Path 807" d="M24.624.972c7.209,0,12.717-1.863,16.038-4.617V-14.418a23.469,23.469,0,0,1-13.77,4.941c-7.29,0-11.826-3.4-13.122-8.505H42.2C44.388-31.509,37.26-42.444,23.49-42.444c-12.636,0-21.222,9.639-21.222,21.708C2.268-7.695,11.178.972,24.624.972ZM14.094-26.406c1.3-4.374,4.536-6.48,8.343-6.48,4.131,0,7.128,2.754,7.371,6.48Z" transform="translate(455.646 249.067) rotate(93.128)" fill="#006450"/>
    <path id="Path_806" data-name="Path 806" d="M15.708-39.424H3.619V1.309c0,2.541-1.232,4.466-4,4.466a6.809,6.809,0,0,1-2.079-.308l-.077,10.087A14.693,14.693,0,0,0,2,16.17c9.009,0,13.629-5.544,13.629-14.322V0h.077ZM2.233-50.82a7.066,7.066,0,0,0,7.161,7.007,7.134,7.134,0,0,0,7.238-7.007,7.164,7.164,0,0,0-7.238-7.161A7.1,7.1,0,0,0,2.233-50.82Z" transform="translate(455.012 295.694) rotate(102.954)" fill="#006450"/>
    <path id="Path_805" data-name="Path 805" d="M47.227-42.5H29.714l-12.2,12.367v-28.3H4.482V0H17.513V-12.616l5.229-5.229L34.362,0H49.883L31.955-27.141Z" transform="matrix(-0.395, 0.919, -0.919, -0.395, 447.317, 313.585)" fill="#006450"/>
    <path id="Path_804" data-name="Path 804" d="M19.256,0H29.714L48.555-42.5H34.445L24.568-16.683,14.774-42.5H.415Z" transform="matrix(-0.609, 0.793, -0.793, -0.609, 428.439, 358.148)" fill="#006450"/>
    <path id="Path_803" data-name="Path 803" d="M16.4.984A12.408,12.408,0,0,0,27.142-4.592V0H40.016V-25.338c0-10.414-8.446-17.63-20.5-17.63-5.084,0-10.414,1.312-14.35,4.182v10.824a19.39,19.39,0,0,1,11.972-4.346c6.15,0,10,2.952,10,7.626v1.722a18.887,18.887,0,0,0-10-2.706c-8.528,0-14.6,5.166-14.6,13.12C2.542-4.756,8.364.984,16.4.984ZM14.678-12.874c0-2.46,2.3-4.346,5.576-4.346a15.143,15.143,0,0,1,6.888,1.8v.164a6.839,6.839,0,0,1-6.888,6.724C16.974-8.528,14.678-10.414,14.678-12.874Z" transform="translate(401.07 395.654) rotate(140.553)" fill="#006450"/>
    <path id="Path_802" data-name="Path 802" d="M17.091-57.024H4.374V0H17.091Z" transform="translate(367.513 423.502) rotate(150.079)" fill="#006450"/>
    <path id="Path_801" data-name="Path 801" d="M17.091-41.472H4.374V0H17.091ZM3.159-53.46a7.433,7.433,0,0,0,7.533,7.371,7.5,7.5,0,0,0,7.614-7.371,7.536,7.536,0,0,0-7.614-7.533A7.467,7.467,0,0,0,3.159-53.46Z" transform="translate(348.144 434.651) rotate(156.733)" fill="#006450"/>
    <path id="Path_800" data-name="Path 800" d="M7.695-52.326v10.854H1.215v10.449h6.48V-17.01C7.695-4.617,15.147.972,24.462.972a27.95,27.95,0,0,0,8.991-1.7V-11.745a12.489,12.489,0,0,1-6.561,1.7c-3.159,0-6.48-2.106-6.48-7.614V-31.023H33.453V-41.472H20.412V-52.326Z" transform="matrix(-0.967, 0.254, -0.254, -0.967, 329, 443.602)" fill="#006450"/>
    <path id="Path_799" data-name="Path 799" d="M17.513-42.5H4.482V0H17.513V-22.244c0-5.561,3.4-9.379,7.968-9.379s7.719,3.4,7.719,8.715V0H46.231V-24.651c0-11.7-6.723-18.841-16.683-18.841a13.773,13.773,0,0,0-12.035,6.557Z" transform="translate(294.188 451.64) rotate(177.971)" fill="#006450"/>
    <path id="Path_798" data-name="Path 798" d="M24.624.972c7.209,0,12.717-1.863,16.038-4.617V-14.418a23.469,23.469,0,0,1-13.77,4.941c-7.29,0-11.826-3.4-13.122-8.505H42.2C44.388-31.509,37.26-42.444,23.49-42.444c-12.636,0-21.222,9.639-21.222,21.708C2.268-7.695,11.178.972,24.624.972ZM7.29-58.887l8.829,12.8H30.456l8.748-12.8H28.026l-4.779,6.642-4.86-6.642Zm6.8,32.481c1.3-4.374,4.536-6.48,8.343-6.48,4.131,0,7.128,2.754,7.371,6.48Z" transform="translate(245.41 455.408) rotate(-168.312)" fill="#006450"/>
    <path id="Path_797" data-name="Path 797" d="M15.708-39.424H3.619V1.309c0,2.541-1.232,4.466-4,4.466a6.809,6.809,0,0,1-2.079-.308l-.077,10.087A14.693,14.693,0,0,0,2,16.17c9.009,0,13.629-5.544,13.629-14.322V0h.077ZM2.233-50.82a7.066,7.066,0,0,0,7.161,7.007,7.134,7.134,0,0,0,7.238-7.007,7.164,7.164,0,0,0-7.238-7.161A7.1,7.1,0,0,0,2.233-50.82Z" transform="translate(199.361 447.814) rotate(-158.403)" fill="#006450"/>
    <path id="Path_796" data-name="Path 796" d="M20.5-42.968c-8.364,0-17.138,3.28-17.138,14.022,0,5.494,2.952,10.414,12.054,12.218l4.674.9c2.788.656,3.69,1.722,3.69,3.2,0,1.8-1.886,3.28-5.084,3.28-4.346,0-10.578-1.968-15.744-5.74V-4.1A26.715,26.715,0,0,0,18.7.984c11.644,0,18.04-4.838,18.04-13.448,0-6.15-2.952-11.4-11.48-13.284L19.27-27.06c-2.3-.574-3.2-1.558-3.2-2.952,0-1.722,1.8-2.952,4.592-2.952a26.849,26.849,0,0,1,14.1,4.346V-39.032C31.406-41.41,26.076-42.968,20.5-42.968ZM3.854-59.614l8.938,12.956H27.306l8.856-12.956H24.846L20.008-52.89l-4.92-6.724Z" transform="translate(181.621 437.344) rotate(-149.44)" fill="#006450"/>
    <path id="Path_795" data-name="Path 795" d="M17.513-42.5H4.482V0H17.513ZM3.652-47.227H15.106l8.715-13.114H10.209Z" transform="matrix(-0.771, -0.637, 0.637, -0.771, 148.869, 416.135)" fill="#006450"/>
    <path id="Path_794" data-name="Path 794" d="M25.83-42.968C12.218-42.968,2.3-34.358,2.3-20.992,2.3-7.708,12.218.984,25.83.984c3.2,0,8.774-1.066,12.382-4.018V-15.908A15.672,15.672,0,0,1,26.486-10.66c-6.4,0-11.234-4.428-11.234-10.332S20.09-31.324,26.486-31.324a15.208,15.208,0,0,1,11.48,5v-12.71C34.276-42.066,29.028-42.968,25.83-42.968Z" transform="translate(131.637 404.4) rotate(-131.338)" fill="#006450"/>
    <path id="Path_793" data-name="Path 793" d="M17.513-58.432H4.482V0H17.513V-22.244c0-5.561,3.4-9.379,7.968-9.379s7.719,3.4,7.719,8.715V0H46.231V-24.651c0-11.7-6.723-18.841-16.683-18.841a13.773,13.773,0,0,0-12.035,6.557Z" transform="translate(105.558 374.489) rotate(-118.241)" fill="#006450"/>
    <path id="Path_792" data-name="Path 792" transform="translate(83.388 330.834) rotate(-107.887)" fill="#006450"/>
    <path id="Path_791" data-name="Path 791" d="M20.5-42.968c-8.364,0-17.138,3.28-17.138,14.022,0,5.494,2.952,10.414,12.054,12.218l4.674.9c2.788.656,3.69,1.722,3.69,3.2,0,1.8-1.886,3.28-5.084,3.28-4.346,0-10.578-1.968-15.744-5.74V-4.1A26.715,26.715,0,0,0,18.7.984c11.644,0,18.04-4.838,18.04-13.448,0-6.15-2.952-11.4-11.48-13.284L19.27-27.06c-2.3-.574-3.2-1.558-3.2-2.952,0-1.722,1.8-2.952,4.592-2.952a26.849,26.849,0,0,1,14.1,4.346V-39.032C31.406-41.41,26.076-42.968,20.5-42.968Z" transform="translate(75.421 312.09) rotate(-99.07)" fill="#006450"/>
    <path id="Path_790" data-name="Path 790" d="M24.983,1C37.6,1,45.816-6.889,45.816-18.924V-42.5H32.868v23.074c0,5.229-3.071,8.632-7.885,8.632s-7.885-3.4-7.885-8.632V-42.5H4.067v23.572C4.067-6.889,12.284,1,24.983,1Z" transform="matrix(0.062, -0.998, 0.998, 0.062, 69.646, 275.074)" fill="#006450"/>
    <path id="Path_789" data-name="Path 789" d="M28.536-42.968c-5.248,0-9.676,3.608-11.234,8.856v-7.872H4.428V0H17.3V-18.286c.082-7.872,4.674-12.792,10.5-12.792a15.146,15.146,0,0,1,7.134,1.722V-41.492A15.15,15.15,0,0,0,28.536-42.968Z" transform="matrix(0.275, -0.961, 0.961, 0.275, 72.107, 226.734)" fill="#006450"/>
    <path id="Path_788" data-name="Path 788" d="M25.481,1C38.6,1,48.638-8.632,48.638-21.248c0-12.7-10.043-22.244-23.157-22.244S2.324-33.947,2.324-21.248C2.324-8.632,12.367,1,25.481,1Zm-9.96-22.244c0-5.976,4.316-10.458,9.96-10.458,5.727,0,10.043,4.482,10.043,10.458S31.208-10.79,25.481-10.79C19.837-10.79,15.521-15.272,15.521-21.248Z" transform="translate(81.432 193.763) rotate(-61.564)" fill="#006450"/>
    <path id="Path_787" data-name="Path 787" d="M19.256,0H29.714L48.555-42.5H34.445L24.568-16.683,14.774-42.5H.415Z" transform="translate(103.511 152.088) rotate(-47.829)" fill="#006450"/>
    <path id="Path_786" data-name="Path 786" d="M17.091-41.472H4.374V0H17.091ZM3.159-53.46a7.433,7.433,0,0,0,7.533,7.371,7.5,7.5,0,0,0,7.614-7.371,7.536,7.536,0,0,0-7.614-7.533A7.467,7.467,0,0,0,3.159-53.46Z" transform="matrix(0.791, -0.612, 0.612, 0.791, 135.05, 115.868)" fill="#006450"/>
    <path id="Path_785" data-name="Path 785" d="M17.513-42.5H4.482V0H17.513V-22.244c0-5.561,3.4-9.379,7.968-9.379s7.719,3.4,7.719,8.715V0H46.231V-24.651c0-11.7-6.723-18.841-16.683-18.841a13.773,13.773,0,0,0-12.035,6.557Z" transform="matrix(0.888, -0.459, 0.459, 0.888, 151.485, 103.812)" fill="#006450"/>
    <path id="Path_784" data-name="Path 784" d="M14.774-16.268c-5.312,0-8.964,3.486-8.964,8.715C5.81-2.49,9.462,1,14.774,1c5.4,0,9.13-3.486,9.13-8.549C23.9-12.782,20.169-16.268,14.774-16.268Z" transform="matrix(0.962, -0.273, 0.273, 0.962, 194.984, 82.215)" fill="#006450"/>
  </g>
</svg>
