<?xml version="1.0" standalone="no"?>
<!DOCTYPE svg PUBLIC "-//W3C//DTD SVG 20010904//EN"
 "http://www.w3.org/TR/2001/REC-SVG-20010904/DTD/svg10.dtd">
<svg version="1.0" xmlns="http://www.w3.org/2000/svg"
 width="12846.000000pt" height="3445.000000pt" viewBox="0 0 12846.000000 3445.000000"
 preserveAspectRatio="xMidYMid meet">

<g transform="translate(0.000000,3445.000000) scale(0.100000,-0.100000)"
fill="#000000" stroke="none">
<path d="M4676 34413 c-3 -21 -8 -60 -12 -88 -3 -27 -12 -72 -19 -100 -8 -27
-17 -81 -21 -120 -4 -38 -11 -81 -16 -95 -5 -13 -16 -72 -24 -130 -8 -58 -19
-118 -24 -135 -5 -16 -14 -69 -20 -118 -6 -48 -15 -99 -20 -112 -5 -14 -15
-67 -21 -117 -6 -51 -15 -102 -20 -115 -4 -12 -13 -62 -19 -110 -6 -49 -17
-110 -25 -138 -7 -27 -16 -79 -20 -115 -3 -36 -12 -87 -20 -115 -7 -27 -16
-77 -20 -110 -4 -33 -13 -85 -20 -115 -7 -30 -17 -82 -20 -115 -4 -33 -13 -85
-21 -115 -7 -30 -17 -86 -22 -125 -5 -38 -17 -110 -26 -160 -39 -204 -55 -293
-65 -355 -5 -36 -15 -90 -20 -120 -35 -184 -43 -235 -56 -321 -8 -53 -19 -108
-24 -121 -5 -13 -12 -55 -16 -93 -3 -39 -13 -92 -20 -120 -8 -27 -19 -89 -25
-138 -6 -48 -15 -98 -19 -110 -5 -13 -14 -64 -20 -115 -6 -50 -16 -103 -21
-117 -5 -13 -14 -64 -20 -112 -6 -49 -15 -101 -20 -118 -5 -16 -16 -77 -24
-135 -8 -58 -19 -117 -24 -130 -5 -14 -12 -56 -16 -95 -4 -38 -13 -92 -21
-120 -7 -27 -18 -89 -24 -137 -7 -48 -16 -99 -21 -115 -5 -15 -14 -64 -19
-108 -6 -44 -17 -107 -25 -140 -9 -32 -16 -75 -16 -95 0 -20 -7 -63 -16 -95
-8 -33 -20 -96 -25 -140 -6 -44 -16 -102 -24 -130 -7 -27 -17 -81 -20 -120 -4
-38 -11 -80 -16 -93 -5 -13 -16 -71 -24 -129 -8 -57 -17 -108 -20 -113 -3 -5
-12 -53 -20 -107 -7 -54 -21 -129 -29 -168 -9 -38 -16 -84 -16 -100 0 -17 -7
-58 -16 -90 -8 -33 -19 -94 -25 -135 -5 -41 -15 -104 -23 -140 -8 -36 -19 -96
-25 -135 -6 -38 -15 -92 -21 -120 -21 -111 -43 -235 -56 -315 -7 -47 -20 -116
-28 -155 -9 -38 -16 -82 -16 -97 0 -15 -9 -64 -20 -110 -26 -107 -26 -144 -1
-158 14 -7 2304 -10 7308 -10 4759 -1 7312 -4 7358 -11 39 -5 126 -16 195 -24
69 -7 152 -21 185 -29 32 -9 70 -16 84 -16 63 0 468 -135 541 -181 8 -5 26
-14 38 -19 33 -14 162 -90 192 -112 98 -74 153 -120 201 -168 61 -61 196 -228
223 -275 9 -16 25 -43 36 -60 30 -47 52 -86 93 -171 21 -44 42 -86 47 -95 9
-18 52 -125 75 -189 19 -53 50 -165 66 -235 6 -27 17 -77 25 -110 14 -56 32
-189 54 -415 11 -116 11 -366 0 -560 -20 -350 -40 -619 -50 -665 -5 -27 -14
-102 -20 -165 -5 -63 -17 -146 -25 -185 -8 -38 -15 -88 -15 -110 0 -22 -7 -69
-15 -105 -8 -36 -21 -108 -29 -160 -8 -53 -19 -107 -24 -120 -5 -14 -13 -54
-16 -90 -4 -36 -14 -87 -21 -115 -8 -27 -18 -86 -24 -130 -5 -45 -14 -93 -20
-107 -5 -14 -13 -55 -16 -90 -4 -34 -15 -97 -25 -138 -10 -41 -21 -102 -24
-135 -4 -32 -13 -82 -21 -110 -7 -27 -16 -77 -20 -110 -4 -33 -13 -82 -20
-110 -7 -27 -16 -77 -20 -110 -4 -33 -13 -82 -20 -110 -8 -27 -17 -77 -20
-110 -4 -33 -13 -82 -20 -110 -8 -27 -18 -84 -24 -126 -6 -41 -17 -102 -26
-134 -8 -33 -15 -72 -15 -88 0 -15 -9 -67 -19 -115 -11 -48 -24 -116 -30 -152
-15 -87 -30 -169 -47 -260 -9 -41 -21 -115 -29 -165 -8 -49 -18 -106 -24 -125
-5 -19 -12 -60 -16 -90 -3 -30 -15 -95 -26 -145 -11 -49 -28 -130 -39 -180
-11 -49 -25 -110 -31 -135 -6 -25 -17 -74 -25 -110 -8 -36 -21 -81 -28 -100
-7 -19 -17 -57 -21 -85 -4 -27 -13 -61 -20 -75 -7 -14 -16 -45 -20 -70 -4 -25
-12 -54 -18 -65 -6 -11 -16 -42 -23 -70 -18 -69 -42 -144 -93 -285 -7 -19 -19
-53 -27 -75 -8 -22 -21 -52 -29 -67 -8 -14 -15 -31 -15 -38 0 -12 -44 -114
-61 -140 -5 -8 -14 -26 -19 -40 -6 -14 -15 -32 -20 -40 -6 -8 -15 -26 -20 -40
-6 -14 -15 -32 -20 -40 -6 -8 -19 -33 -30 -55 -11 -22 -31 -58 -45 -80 -13
-22 -27 -47 -31 -55 -4 -8 -15 -26 -24 -40 -10 -14 -39 -59 -66 -100 -27 -41
-67 -98 -89 -126 -22 -28 -49 -64 -60 -80 -94 -133 -373 -413 -520 -524 -107
-80 -277 -196 -310 -212 -11 -5 -38 -20 -60 -33 -22 -13 -92 -49 -155 -80 -63
-31 -122 -60 -131 -65 -30 -16 -171 -70 -182 -70 -7 -1 -30 -9 -52 -20 -22
-11 -49 -19 -60 -20 -11 0 -47 -9 -80 -19 -90 -30 -213 -59 -275 -67 -30 -3
-66 -11 -80 -16 -13 -5 -85 -16 -160 -24 -74 -8 -162 -19 -195 -26 -43 -8
-768 -12 -2605 -15 -2117 -3 -2548 -2 -2563 10 -18 12 -18 20 -7 112 6 54 16
109 21 122 5 13 14 65 20 115 6 51 15 102 20 114 4 13 13 63 19 111 7 48 18
113 25 143 8 30 17 82 20 115 4 33 13 85 20 115 8 30 17 84 20 120 4 36 13 88
20 115 8 28 17 75 20 105 4 30 15 100 25 155 11 55 24 127 29 160 16 104 33
197 48 275 8 41 19 109 24 150 6 41 16 100 24 130 7 30 16 84 20 120 3 36 12
88 20 115 7 28 18 88 24 135 7 47 18 114 26 150 8 36 15 79 15 95 0 17 9 66
20 110 11 44 20 95 20 114 0 18 9 70 19 115 11 44 22 110 26 146 3 36 12 88
20 115 7 28 17 81 20 120 4 38 11 80 17 94 5 14 15 70 23 126 13 90 24 155 56
325 6 30 15 87 20 125 6 39 19 109 30 157 10 48 19 102 19 120 0 18 9 69 19
113 10 44 22 109 25 145 4 36 13 88 21 115 7 28 17 81 20 120 4 38 11 80 17
94 5 14 15 70 23 126 13 90 24 155 56 325 6 30 15 87 20 125 6 39 19 109 30
157 10 48 19 102 19 120 0 18 9 69 20 113 11 44 20 94 20 110 0 17 7 59 15 95
8 36 19 103 26 150 6 47 17 108 24 135 8 28 17 79 20 115 3 36 12 88 20 115 7
28 18 88 24 135 7 47 18 114 26 150 8 36 15 79 15 95 0 17 9 66 20 110 11 44
20 95 20 114 0 18 9 71 21 118 11 47 19 106 17 131 l-3 47 -4754 3 c-3506 1
-4757 -1 -4767 -9 -8 -6 -14 -26 -14 -43 0 -18 -7 -59 -16 -91 -8 -33 -20 -96
-25 -140 -6 -44 -16 -102 -24 -130 -7 -27 -17 -81 -20 -120 -4 -38 -11 -80
-16 -93 -5 -13 -16 -68 -24 -121 -13 -88 -30 -188 -55 -316 -6 -27 -15 -81
-21 -120 -6 -38 -17 -99 -25 -135 -8 -36 -19 -102 -24 -148 -6 -45 -15 -94
-20 -107 -5 -14 -14 -64 -20 -112 -6 -49 -17 -110 -25 -138 -7 -27 -17 -81
-20 -120 -4 -38 -11 -80 -16 -93 -5 -13 -16 -71 -24 -129 -8 -57 -17 -108 -20
-113 -3 -5 -12 -53 -20 -107 -13 -89 -20 -131 -55 -313 -5 -30 -15 -86 -21
-125 -6 -38 -19 -110 -29 -160 -11 -49 -22 -117 -25 -149 -4 -33 -11 -70 -16
-82 -4 -13 -13 -63 -19 -111 -7 -48 -18 -110 -25 -138 -7 -27 -16 -77 -20
-110 -3 -33 -11 -78 -17 -100 -6 -22 -16 -78 -23 -125 -12 -79 -32 -197 -55
-315 -6 -27 -15 -81 -21 -120 -6 -38 -19 -110 -29 -160 -11 -49 -22 -117 -25
-149 -4 -33 -11 -70 -16 -82 -4 -13 -13 -63 -19 -111 -7 -48 -18 -110 -25
-138 -8 -27 -17 -81 -21 -120 -4 -38 -11 -81 -16 -95 -5 -13 -15 -67 -23 -120
-8 -52 -21 -126 -29 -165 -9 -38 -16 -83 -16 -98 0 -16 -9 -67 -19 -115 -11
-48 -24 -116 -29 -152 -6 -36 -15 -90 -21 -120 -29 -154 -43 -234 -56 -320 -8
-53 -18 -107 -23 -120 -5 -14 -12 -56 -16 -95 -4 -38 -13 -92 -21 -120 -7 -27
-18 -90 -25 -138 -6 -48 -15 -98 -19 -111 -5 -12 -12 -49 -16 -82 -3 -32 -14
-99 -25 -149 -10 -49 -23 -119 -28 -155 -6 -36 -15 -90 -21 -120 -29 -152 -45
-243 -56 -320 -7 -47 -17 -103 -23 -125 -6 -22 -14 -67 -17 -100 -4 -33 -13
-82 -20 -110 -7 -27 -18 -90 -25 -138 -6 -48 -15 -98 -19 -111 -5 -12 -12 -49
-16 -82 -3 -32 -14 -99 -25 -149 -10 -49 -23 -121 -29 -160 -22 -139 -33 -202
-51 -290 -10 -49 -22 -115 -25 -145 -4 -30 -13 -80 -20 -110 -8 -30 -16 -82
-20 -115 -4 -33 -13 -82 -20 -110 -8 -27 -17 -79 -20 -115 -4 -36 -13 -87 -20
-115 -8 -27 -19 -89 -25 -138 -6 -48 -15 -98 -20 -112 -5 -13 -14 -62 -20
-107 -5 -46 -16 -112 -24 -148 -8 -36 -19 -96 -25 -135 -6 -38 -15 -92 -21
-120 -25 -128 -42 -228 -55 -316 -8 -53 -19 -108 -24 -121 -5 -13 -12 -55 -16
-93 -3 -39 -13 -92 -20 -120 -8 -27 -19 -89 -25 -138 -6 -48 -15 -98 -20 -112
-5 -13 -14 -62 -20 -107 -5 -46 -16 -112 -24 -148 -8 -36 -19 -96 -25 -135 -6
-38 -15 -92 -21 -120 -21 -112 -43 -234 -55 -310 -11 -74 -32 -190 -55 -310
-6 -27 -15 -81 -21 -120 -6 -38 -17 -99 -25 -135 -8 -36 -19 -102 -24 -148 -6
-45 -15 -94 -20 -107 -5 -14 -14 -64 -20 -112 -6 -49 -17 -110 -25 -138 -7
-27 -17 -81 -20 -120 -4 -38 -11 -80 -16 -93 -5 -13 -16 -68 -24 -121 -13 -88
-30 -188 -55 -316 -6 -27 -15 -81 -21 -120 -6 -38 -17 -99 -25 -135 -8 -36
-19 -102 -24 -148 -6 -45 -15 -94 -20 -107 -5 -14 -15 -67 -21 -117 -6 -51
-15 -102 -20 -114 -4 -13 -13 -63 -19 -111 -7 -48 -18 -110 -25 -138 -8 -27
-17 -79 -21 -114 -3 -35 -10 -78 -15 -95 -6 -17 -16 -74 -24 -126 -8 -52 -21
-126 -29 -165 -8 -38 -17 -96 -21 -128 -3 -31 -13 -63 -21 -71 -9 -9 -14 -35
-14 -70 l0 -56 9898 1 c5443 0 9926 4 9962 8 36 5 115 14 175 21 61 6 144 18
185 27 41 8 107 18 145 24 39 5 90 15 115 23 25 8 67 17 93 21 26 3 62 12 80
19 18 8 54 17 82 21 27 4 61 13 75 20 14 7 45 16 70 20 25 4 56 13 70 20 14 7
48 17 75 23 28 6 64 18 80 26 17 9 38 16 48 16 10 0 39 8 65 19 26 10 72 27
102 38 139 51 208 77 246 94 22 11 46 19 53 19 7 0 25 7 39 15 15 8 61 28 102
45 187 79 663 310 855 415 44 25 91 50 105 57 23 11 363 205 448 255 20 12 54
33 76 45 40 24 49 30 101 62 65 42 161 102 176 111 9 6 36 23 60 40 24 16 51
34 61 40 35 22 307 207 373 255 39 27 98 69 131 92 34 24 124 90 199 148 75
58 147 112 160 120 13 9 40 30 62 47 21 18 90 73 153 124 63 51 117 95 120 98
3 3 28 24 55 46 51 40 83 68 165 140 25 23 74 65 110 95 35 30 72 62 80 70 9
8 66 60 126 115 60 55 235 226 389 380 236 235 328 331 495 514 8 9 40 46 70
81 54 64 81 95 158 178 56 61 61 33 12 -65 -21 -43 -98 -199 -170 -348 -193
-394 -361 -738 -450 -920 -44 -88 -84 -171 -89 -185 -6 -14 -15 -32 -20 -40
-5 -8 -56 -112 -114 -230 -57 -118 -161 -330 -230 -470 -253 -517 -296 -606
-306 -630 -6 -14 -15 -32 -21 -40 -5 -8 -14 -26 -20 -40 -5 -14 -14 -32 -19
-40 -12 -19 -176 -356 -190 -390 -6 -14 -15 -32 -20 -40 -6 -8 -60 -118 -121
-245 -62 -126 -125 -257 -141 -289 -23 -46 -27 -61 -17 -68 7 -4 2234 -7 4948
-5 l4935 2 45 90 c43 87 107 222 129 275 6 14 15 32 20 40 6 8 26 51 47 95 66
144 154 333 234 500 26 55 64 136 85 180 20 44 40 87 46 95 5 8 12 22 15 30
16 37 59 132 94 205 36 75 68 143 170 360 51 110 110 234 161 340 21 44 59
125 84 180 48 102 97 206 166 350 21 44 59 125 84 180 48 102 97 206 166 350
21 44 59 125 84 180 52 110 94 199 165 350 26 55 67 141 90 190 82 175 113
241 160 340 26 55 66 141 90 190 23 50 59 127 81 173 82 174 119 250 164 347
96 205 114 242 158 335 42 89 89 189 174 370 20 41 55 116 78 165 85 180 137
291 250 530 25 55 64 136 85 180 36 76 54 115 165 350 25 55 58 125 72 155 13
30 29 62 34 70 5 8 12 22 15 30 6 14 19 42 129 275 25 55 58 125 72 155 13 30
29 62 34 70 5 8 12 22 15 30 13 31 57 126 65 140 5 8 12 22 15 30 10 23 71
155 124 265 56 118 106 225 156 333 19 42 39 84 45 92 5 8 12 22 15 30 8 21
44 99 92 200 22 47 61 130 87 185 26 55 51 107 56 115 5 8 12 22 15 30 11 29
56 125 65 140 5 8 12 22 15 30 15 35 59 132 101 220 51 106 100 211 163 345
23 50 63 133 87 185 57 119 109 229 163 345 23 50 63 133 87 185 57 119 109
229 163 345 23 50 63 133 87 185 25 52 60 127 78 165 72 152 129 274 172 365
44 93 62 130 158 335 45 97 82 173 164 348 22 45 58 123 81 172 24 50 64 135
90 190 71 151 113 240 165 350 25 55 63 136 84 180 75 156 120 251 165 350 26
55 55 117 66 137 11 20 20 48 20 62 0 16 6 26 15 26 8 0 15 5 15 12 0 7 20 53
44 103 24 49 63 131 86 180 23 50 61 131 85 180 85 181 124 262 165 350 23 50
62 133 87 185 25 52 56 120 70 150 13 30 29 62 34 70 5 8 14 26 20 40 22 53
51 116 60 130 5 8 12 22 15 30 4 8 21 47 39 85 18 39 49 106 69 150 21 44 41
87 47 95 5 8 14 26 20 40 22 53 51 116 60 130 5 8 12 22 15 30 38 93 148 310
159 313 6 1 13 -35 18 -83 4 -47 14 -134 22 -195 8 -60 17 -162 20 -225 4 -63
13 -160 21 -215 7 -55 18 -170 23 -255 6 -85 15 -180 20 -210 6 -30 15 -128
21 -217 6 -89 14 -184 20 -211 5 -27 14 -125 20 -217 6 -92 15 -190 20 -217 6
-27 14 -120 20 -206 6 -86 17 -204 24 -262 8 -58 18 -157 21 -220 4 -63 12
-158 20 -210 7 -52 16 -149 20 -215 4 -66 13 -163 20 -215 8 -52 17 -144 20
-205 4 -60 13 -159 21 -220 8 -60 19 -180 24 -265 6 -85 15 -179 20 -209 5
-30 15 -126 20 -215 6 -89 15 -185 20 -214 5 -29 14 -124 20 -210 6 -86 17
-202 25 -257 7 -55 17 -156 20 -225 4 -69 11 -147 16 -175 5 -27 16 -138 24
-247 8 -108 19 -218 24 -245 5 -26 12 -102 16 -168 3 -66 13 -167 20 -225 8
-58 19 -176 25 -262 6 -86 14 -179 20 -206 5 -27 14 -124 20 -215 6 -91 15
-191 20 -224 6 -32 15 -125 20 -208 6 -82 17 -199 25 -260 7 -60 17 -159 20
-220 4 -60 13 -153 20 -205 7 -52 16 -147 20 -210 3 -63 12 -162 20 -220 8
-58 19 -176 25 -262 6 -86 15 -181 20 -210 5 -29 14 -126 20 -215 6 -89 15
-185 20 -214 6 -29 15 -126 20 -216 6 -91 15 -187 20 -214 5 -27 14 -120 20
-206 6 -87 17 -203 25 -258 7 -55 16 -154 20 -220 4 -66 13 -163 20 -215 8
-52 16 -147 20 -210 3 -63 13 -162 21 -220 7 -58 18 -172 24 -255 5 -82 14
-177 20 -210 5 -33 14 -130 20 -215 5 -85 15 -182 20 -215 5 -33 15 -132 20
-220 6 -88 15 -185 21 -215 5 -30 14 -125 20 -210 5 -85 16 -200 23 -255 8
-55 17 -152 21 -215 3 -63 12 -158 20 -210 7 -52 16 -147 20 -210 3 -63 12
-162 20 -220 8 -58 19 -176 25 -262 6 -86 15 -181 20 -210 5 -29 14 -126 20
-215 6 -89 14 -184 20 -211 5 -27 14 -125 20 -217 6 -92 15 -190 20 -217 5
-27 14 -122 20 -211 6 -89 15 -187 21 -217 5 -30 14 -120 20 -200 5 -80 13
-148 18 -153 4 -4 2140 -6 4747 -5 l4739 3 -3 65 c-2 36 -9 99 -17 140 -8 41
-19 122 -25 179 -5 57 -14 120 -20 140 -5 20 -14 86 -20 146 -5 61 -17 142
-25 180 -8 39 -15 90 -15 115 0 25 -7 81 -16 125 -8 44 -19 125 -25 180 -5 55
-16 132 -23 170 -8 39 -17 108 -21 155 -4 47 -13 112 -20 145 -8 33 -16 96
-20 140 -3 44 -13 114 -20 155 -8 41 -19 122 -25 179 -5 57 -14 120 -20 140
-5 20 -14 86 -20 146 -5 61 -17 142 -25 180 -8 39 -15 90 -15 115 0 25 -7 81
-16 125 -8 44 -19 125 -24 180 -6 55 -17 134 -25 175 -8 41 -17 111 -20 155
-4 44 -13 107 -20 140 -7 33 -16 96 -19 140 -4 44 -13 114 -21 155 -8 41 -19
122 -25 179 -5 57 -14 120 -19 140 -6 20 -15 86 -20 146 -6 61 -18 142 -26
180 -8 39 -15 89 -15 111 0 23 -9 93 -19 155 -11 63 -22 148 -26 189 -4 41
-12 104 -20 140 -7 36 -16 103 -20 150 -4 47 -13 112 -20 145 -7 33 -16 96
-19 140 -4 44 -13 114 -21 155 -8 41 -19 121 -25 177 -5 56 -14 121 -19 145
-6 24 -15 93 -21 153 -6 61 -15 126 -20 145 -5 19 -14 87 -20 150 -6 63 -15
131 -21 151 -5 20 -14 83 -19 140 -6 57 -17 138 -25 179 -8 41 -17 111 -20
155 -4 44 -13 107 -20 140 -7 33 -16 98 -20 145 -4 47 -13 114 -20 150 -8 36
-16 99 -20 140 -4 41 -15 126 -26 189 -10 62 -19 132 -19 155 0 22 -7 73 -15
111 -8 39 -20 120 -25 180 -6 61 -15 126 -20 146 -6 20 -15 83 -20 140 -6 57
-17 138 -25 179 -7 41 -17 111 -20 155 -4 44 -13 109 -20 145 -7 36 -16 101
-20 145 -4 44 -13 112 -21 150 -7 39 -18 119 -24 178 -5 60 -14 125 -19 145
-6 20 -15 87 -21 147 -5 61 -14 125 -20 143 -5 19 -14 87 -20 152 -6 65 -15
133 -20 151 -6 19 -15 83 -20 144 -6 60 -17 142 -25 180 -8 39 -17 106 -20
150 -4 44 -13 109 -20 145 -7 36 -16 101 -20 145 -4 44 -13 112 -21 150 -7 39
-18 119 -24 178 -5 60 -14 125 -19 145 -6 20 -15 87 -21 147 -5 61 -14 125
-20 143 -5 19 -14 87 -20 152 -6 65 -15 133 -20 151 -6 19 -15 83 -20 144 -6
60 -17 142 -25 180 -8 39 -17 106 -20 150 -4 44 -13 109 -20 145 -7 36 -16
103 -20 150 -4 47 -13 112 -20 145 -7 33 -18 112 -24 175 -6 63 -15 130 -21
149 -5 19 -12 68 -16 110 -3 42 -14 126 -24 186 -10 61 -22 153 -25 205 -4 52
-11 103 -16 112 -5 10 -14 66 -20 125 -5 60 -16 140 -23 178 -8 39 -17 106
-21 150 -4 44 -13 109 -20 145 -7 36 -16 101 -20 145 -3 44 -13 114 -20 155
-8 41 -19 122 -25 179 -5 57 -14 120 -20 140 -5 20 -14 86 -20 146 -5 61 -17
142 -25 180 -8 39 -15 90 -15 115 0 25 -7 81 -16 125 -8 44 -19 125 -25 180
-5 55 -16 132 -23 170 -8 39 -17 106 -21 150 -4 44 -13 109 -20 145 -7 36 -16
101 -20 145 -3 44 -13 114 -20 155 -8 41 -19 122 -25 179 -5 57 -14 120 -19
140 -6 20 -15 86 -20 146 -6 61 -18 142 -26 180 -8 39 -15 90 -15 115 0 25 -7
81 -16 125 -8 44 -19 125 -24 180 -6 55 -17 134 -25 175 -8 41 -17 111 -21
155 -3 44 -12 107 -19 140 -7 33 -16 96 -20 140 -3 44 -12 114 -20 155 -8 41
-19 122 -25 179 -5 57 -14 120 -19 140 -6 20 -15 88 -21 151 -6 63 -15 131
-20 150 -5 19 -14 87 -20 150 -6 63 -15 131 -21 151 -5 20 -14 83 -19 140 -6
57 -17 138 -25 179 -8 41 -17 111 -20 155 -4 44 -13 107 -20 140 -7 33 -16 96
-19 140 -4 44 -13 114 -21 155 -8 41 -19 121 -25 177 -5 56 -14 121 -19 145
-6 24 -15 93 -21 153 -6 61 -15 126 -20 145 -5 19 -14 87 -20 150 -6 63 -15
131 -21 151 -5 20 -14 83 -19 140 -6 57 -17 138 -25 179 -7 41 -17 111 -20
155 -4 44 -12 107 -20 140 -7 33 -16 98 -20 145 -4 47 -13 117 -21 155 -7 39
-18 115 -23 170 -6 55 -17 136 -25 180 -9 44 -16 100 -16 125 0 25 -7 77 -15
115 -8 39 -20 120 -25 180 -6 61 -15 126 -20 146 -6 20 -15 83 -20 140 -6 57
-17 138 -25 179 -7 41 -17 111 -20 155 -4 44 -13 109 -20 145 -7 36 -16 101
-20 145 -4 44 -13 112 -21 150 -7 39 -18 115 -23 170 -6 55 -17 136 -25 180
-9 44 -16 100 -16 125 0 25 -7 77 -15 115 -8 39 -20 120 -25 180 -6 61 -15
126 -20 146 -6 20 -15 83 -20 140 -6 57 -17 138 -25 179 -7 41 -17 111 -20
155 -4 44 -13 109 -20 145 -7 36 -16 101 -20 145 -4 44 -13 112 -21 150 -7 39
-18 119 -24 178 -5 60 -14 125 -19 145 -9 31 -31 228 -31 270 0 9 -1206 12
-5998 12 l-5997 0 -17 -32 c-9 -18 -64 -132 -123 -253 -59 -121 -151 -310
-206 -420 -54 -110 -103 -211 -108 -225 -6 -14 -15 -32 -20 -40 -12 -19 -176
-356 -190 -390 -6 -14 -15 -32 -20 -40 -5 -8 -67 -132 -136 -275 -70 -143
-164 -336 -210 -430 -46 -93 -89 -181 -94 -195 -6 -14 -15 -32 -21 -40 -5 -8
-14 -26 -20 -40 -5 -14 -14 -32 -19 -40 -12 -19 -176 -356 -190 -390 -6 -14
-15 -32 -20 -40 -6 -8 -60 -118 -121 -245 -61 -126 -115 -237 -121 -245 -5 -8
-14 -26 -20 -40 -5 -14 -46 -97 -89 -185 -43 -88 -84 -171 -89 -185 -6 -14
-15 -32 -20 -40 -6 -8 -60 -118 -121 -245 -61 -126 -115 -237 -121 -245 -5 -8
-12 -22 -15 -30 -13 -29 -225 -465 -235 -480 -5 -8 -14 -26 -20 -40 -5 -14
-48 -101 -94 -195 -207 -422 -564 -1154 -583 -1195 -7 -14 -16 -32 -21 -40
-11 -19 -126 -256 -140 -290 -6 -14 -15 -32 -20 -40 -9 -14 -49 -96 -330 -675
-62 -126 -116 -237 -122 -245 -5 -8 -12 -22 -15 -30 -4 -8 -53 -109 -110 -225
-56 -115 -107 -221 -113 -235 -6 -14 -15 -32 -20 -40 -12 -19 -176 -356 -190
-390 -6 -14 -15 -32 -21 -40 -5 -8 -14 -26 -20 -40 -5 -14 -14 -32 -19 -40 -5
-8 -50 -98 -99 -200 -49 -102 -144 -295 -210 -430 -66 -135 -170 -348 -231
-475 -62 -126 -116 -237 -122 -245 -5 -8 -14 -26 -19 -40 -6 -14 -15 -32 -20
-40 -6 -8 -13 -22 -16 -30 -4 -8 -44 -91 -90 -185 -45 -93 -88 -181 -93 -195
-6 -14 -15 -32 -20 -40 -6 -8 -59 -116 -119 -240 -132 -270 -281 -576 -449
-920 -69 -140 -170 -347 -225 -460 -55 -113 -104 -213 -109 -222 -19 -37 -29
-57 -107 -218 -75 -155 -134 -276 -459 -940 -72 -146 -143 -292 -159 -325 -15
-33 -32 -61 -36 -63 -4 -2 -8 -9 -8 -15 0 -6 -20 -52 -44 -102 -25 -49 -50
-101 -55 -115 -6 -14 -15 -32 -20 -40 -6 -8 -60 -118 -121 -245 -61 -126 -115
-237 -121 -245 -5 -8 -12 -22 -15 -30 -4 -8 -55 -114 -114 -235 -59 -121 -156
-319 -214 -440 -59 -121 -111 -227 -117 -235 -5 -8 -12 -22 -15 -30 -13 -29
-225 -465 -235 -480 -5 -8 -14 -26 -20 -40 -5 -14 -49 -104 -96 -200 -276
-563 -553 -1129 -657 -1345 -48 -99 -92 -187 -97 -195 -5 -8 -14 -26 -20 -40
-7 -14 -56 -115 -110 -225 -54 -110 -103 -211 -108 -225 -6 -14 -15 -32 -20
-40 -6 -8 -26 -49 -45 -91 -20 -42 -42 -79 -51 -83 -8 -3 -15 -16 -15 -30 0
-27 -16 -44 -22 -24 -3 7 -1 31 4 53 5 22 15 83 23 135 7 52 20 124 29 160 9
36 16 80 16 98 0 18 9 72 19 120 11 48 24 119 30 157 18 115 32 196 47 275 8
41 21 118 29 170 8 52 19 109 24 127 5 18 12 63 16 100 4 37 13 91 20 118 8
28 17 79 20 115 4 36 13 88 20 115 8 28 17 78 20 110 4 33 15 101 25 150 10
50 23 122 29 160 18 116 32 196 47 275 8 41 21 119 29 173 8 54 17 102 20 107
3 5 12 57 20 117 9 59 19 122 25 138 5 17 14 70 20 118 6 48 15 99 20 112 5
13 12 52 15 87 4 34 15 101 25 148 10 47 21 114 25 148 3 35 10 75 15 88 5 13
14 63 20 111 6 49 15 102 20 118 5 17 16 79 25 138 8 60 17 112 20 117 3 5 12
53 20 107 8 54 21 132 29 173 15 78 31 173 47 275 5 33 18 105 29 160 10 55
22 127 25 159 4 33 11 71 17 85 5 14 14 64 19 111 5 46 16 107 24 135 7 27 16
81 20 118 4 37 11 82 16 100 5 18 16 75 24 127 8 52 21 129 29 170 15 80 29
162 47 275 6 39 17 99 25 135 8 36 18 100 24 143 5 42 16 103 24 135 8 31 17
86 21 122 3 36 12 88 20 115 7 28 16 81 20 118 4 37 11 82 17 100 5 18 15 73
22 122 12 81 26 160 57 325 6 30 15 87 20 125 6 39 19 109 30 157 10 48 19
102 19 120 0 18 9 69 19 113 10 44 22 109 25 145 4 36 13 88 21 115 7 28 16
79 20 115 3 36 12 88 20 115 7 28 16 79 20 115 3 36 13 88 20 115 8 28 17 79
21 115 3 36 15 101 25 145 10 44 19 95 19 113 0 18 9 72 19 120 11 48 24 119
30 157 18 116 32 196 48 275 8 41 20 119 28 172 7 53 16 101 19 107 4 5 13 59
21 118 8 60 18 120 23 134 6 14 13 56 17 94 4 39 16 106 26 150 10 44 19 95
19 113 0 18 9 72 19 120 11 48 24 119 30 157 18 116 32 196 48 275 8 41 20
120 28 175 8 55 20 125 27 155 21 88 17 876 -4 995 -10 50 -20 124 -23 165 -4
41 -13 102 -21 135 -8 33 -18 89 -23 125 -9 67 -22 125 -74 335 -13 52 -46
168 -64 225 -8 25 -20 68 -28 95 -18 67 -44 141 -66 191 -11 23 -19 47 -19 55
-1 8 -9 32 -20 54 -11 22 -19 46 -20 52 0 13 -31 86 -61 145 -10 20 -19 42
-19 49 0 21 -237 505 -315 644 -25 44 -52 94 -61 110 -17 34 -76 135 -166 285
-55 91 -257 395 -319 480 -22 30 -47 66 -57 80 -9 14 -19 27 -22 30 -3 3 -27
36 -55 73 -27 38 -59 79 -70 92 -11 13 -30 36 -42 52 -109 140 -320 388 -423
497 -110 118 -447 453 -535 532 -232 210 -625 525 -789 633 -13 9 -75 50 -138
92 -62 42 -135 89 -161 105 -27 16 -67 41 -90 56 -23 15 -51 32 -62 38 -11 6
-42 24 -70 40 -27 16 -63 36 -80 45 -16 8 -48 27 -70 40 -37 22 -393 201 -460
231 -16 7 -56 24 -87 38 -31 15 -63 26 -70 26 -8 0 -22 6 -33 14 -11 7 -36 19
-55 24 -61 19 -154 53 -187 68 -17 7 -38 14 -47 14 -9 0 -33 7 -54 16 -20 9
-62 22 -92 29 -75 19 -165 42 -225 60 -27 8 -82 19 -121 24 -40 6 -83 15 -97
20 -15 6 -75 15 -134 21 -124 13 -153 19 -153 31 0 5 -4130 9 -9949 9 l-9949
0 -6 -37z"/>
<path d="M56046 34383 c-4 -38 -16 -111 -26 -163 -10 -52 -28 -151 -40 -220
-12 -69 -30 -168 -41 -220 -10 -52 -19 -106 -19 -120 0 -14 -7 -56 -16 -95 -8
-38 -21 -113 -29 -165 -8 -53 -18 -107 -23 -120 -5 -14 -12 -56 -16 -95 -4
-38 -13 -92 -21 -120 -7 -27 -18 -90 -25 -138 -6 -48 -15 -98 -19 -111 -5 -12
-14 -63 -20 -114 -6 -50 -16 -103 -21 -117 -5 -14 -15 -67 -21 -117 -6 -51
-15 -102 -20 -115 -4 -12 -13 -62 -19 -110 -6 -49 -17 -110 -25 -138 -8 -27
-17 -81 -21 -120 -4 -38 -11 -81 -16 -95 -5 -13 -16 -72 -24 -130 -8 -58 -19
-118 -24 -135 -5 -16 -14 -66 -19 -110 -5 -44 -17 -107 -25 -140 -9 -32 -16
-75 -16 -95 0 -20 -7 -63 -16 -95 -8 -33 -20 -96 -25 -140 -6 -44 -16 -102
-24 -130 -7 -27 -17 -81 -20 -120 -4 -38 -11 -80 -16 -93 -5 -13 -16 -71 -24
-129 -8 -57 -17 -108 -20 -113 -3 -5 -12 -53 -20 -107 -7 -54 -21 -129 -29
-168 -9 -38 -16 -81 -16 -95 0 -14 -9 -68 -19 -120 -11 -52 -29 -151 -41 -220
-12 -69 -30 -168 -41 -220 -10 -52 -19 -106 -19 -120 0 -14 -7 -56 -16 -95 -8
-38 -22 -114 -29 -168 -8 -54 -17 -102 -20 -107 -3 -5 -12 -56 -20 -113 -8
-58 -19 -116 -24 -129 -5 -13 -12 -55 -16 -93 -3 -39 -13 -92 -20 -120 -8 -27
-19 -89 -25 -138 -6 -48 -15 -99 -20 -112 -5 -14 -15 -67 -21 -117 -6 -51 -15
-102 -20 -115 -4 -12 -13 -62 -19 -110 -6 -49 -15 -101 -20 -118 -5 -16 -16
-77 -24 -135 -8 -58 -19 -117 -24 -131 -6 -14 -13 -56 -17 -94 -3 -39 -13 -92
-20 -120 -8 -27 -19 -89 -25 -138 -6 -48 -15 -98 -19 -110 -5 -13 -14 -64 -20
-115 -6 -50 -16 -103 -21 -117 -5 -14 -15 -67 -21 -117 -6 -51 -15 -102 -20
-114 -4 -13 -13 -63 -19 -111 -7 -48 -18 -110 -25 -138 -8 -27 -17 -81 -21
-120 -4 -38 -11 -81 -16 -95 -5 -13 -15 -67 -23 -120 -8 -52 -21 -126 -29
-165 -9 -38 -16 -82 -16 -97 0 -15 -9 -64 -20 -110 -11 -46 -20 -98 -20 -116
0 -18 -9 -72 -19 -120 -11 -48 -24 -116 -29 -152 -6 -36 -15 -90 -21 -120 -29
-155 -43 -234 -56 -323 -8 -54 -17 -102 -20 -107 -3 -5 -12 -53 -20 -107 -7
-54 -21 -129 -29 -168 -9 -38 -16 -84 -16 -101 0 -17 -7 -53 -15 -80 -28 -94
-38 -232 -26 -367 7 -68 16 -140 21 -158 6 -18 15 -83 20 -144 6 -60 17 -141
25 -180 8 -38 17 -106 20 -150 4 -44 13 -109 20 -145 7 -36 16 -101 20 -145 4
-44 13 -111 21 -150 7 -38 18 -115 23 -170 6 -55 17 -136 25 -180 9 -44 16
-100 16 -125 0 -25 7 -76 15 -115 8 -38 20 -119 25 -180 6 -60 15 -127 21
-147 5 -20 14 -85 19 -145 6 -59 17 -139 25 -178 8 -38 17 -106 20 -150 4 -44
13 -109 20 -145 7 -36 16 -101 20 -145 4 -44 13 -111 20 -150 8 -38 19 -120
25 -180 5 -61 14 -125 20 -143 5 -19 14 -84 19 -145 6 -62 15 -127 21 -145 5
-19 14 -87 20 -152 6 -65 15 -133 20 -152 6 -18 15 -85 21 -148 6 -63 17 -142
24 -175 7 -33 16 -98 20 -145 4 -47 13 -114 20 -150 7 -36 16 -101 20 -145 3
-44 12 -111 20 -150 8 -38 19 -119 25 -178 5 -60 14 -125 19 -145 6 -20 15
-85 20 -143 6 -58 15 -127 21 -154 6 -27 15 -96 21 -154 5 -58 14 -123 20
-143 5 -20 14 -85 19 -145 6 -59 17 -139 25 -178 8 -38 17 -106 20 -150 4 -44
13 -109 20 -145 7 -36 16 -101 20 -145 3 -44 13 -114 20 -155 8 -41 19 -122
25 -179 5 -57 14 -120 20 -140 5 -20 14 -85 20 -146 5 -60 17 -141 25 -180 8
-38 15 -90 15 -115 0 -25 7 -81 16 -125 8 -44 19 -125 25 -180 5 -55 16 -131
23 -170 8 -38 17 -106 21 -150 4 -44 13 -109 20 -145 7 -36 16 -101 20 -145 3
-44 13 -114 20 -155 8 -41 19 -122 25 -179 5 -57 14 -120 20 -140 5 -20 14
-85 20 -146 5 -60 17 -141 25 -180 8 -38 15 -90 15 -115 0 -25 7 -81 16 -125
8 -44 19 -125 25 -180 5 -55 16 -131 23 -170 8 -38 17 -108 21 -155 4 -47 13
-112 20 -145 7 -33 16 -96 20 -140 3 -44 12 -114 20 -155 8 -41 19 -122 25
-179 5 -57 14 -120 19 -140 6 -20 15 -88 21 -151 6 -63 15 -131 20 -150 5 -19
14 -87 20 -150 6 -63 16 -131 21 -150 5 -19 14 -82 19 -140 6 -58 17 -139 25
-180 7 -41 17 -111 20 -155 4 -44 12 -107 20 -140 7 -33 16 -96 19 -140 4 -44
13 -114 21 -155 8 -41 19 -122 25 -179 5 -57 14 -120 19 -140 6 -20 15 -88 21
-151 6 -63 15 -131 20 -150 5 -19 14 -87 20 -150 6 -63 15 -131 21 -151 5 -20
14 -83 19 -140 6 -57 17 -138 25 -179 7 -41 17 -111 20 -155 4 -44 12 -107 20
-140 7 -33 16 -96 19 -140 4 -44 13 -114 21 -155 8 -41 19 -122 25 -179 5 -57
14 -120 20 -140 5 -20 14 -88 19 -151 6 -63 15 -130 20 -148 5 -18 15 -85 21
-150 6 -64 15 -133 21 -153 5 -20 14 -83 19 -140 6 -57 17 -138 25 -179 7 -41
17 -111 20 -155 4 -44 12 -107 20 -140 7 -33 16 -98 20 -145 4 -47 13 -114 20
-150 8 -36 17 -101 21 -145 4 -44 11 -86 17 -93 7 -9 477 -12 2289 -12 l2279
0 15 36 c8 19 19 72 25 117 5 45 16 107 24 137 7 30 16 82 20 115 3 33 11 78
17 100 6 22 16 78 23 125 12 79 32 197 55 315 6 28 15 82 21 120 6 39 19 111
29 160 10 50 23 122 29 160 18 116 32 196 47 275 8 41 21 118 29 170 8 53 18
107 23 121 6 14 13 56 17 94 3 39 13 93 20 120 8 28 19 89 25 138 6 48 15 98
19 110 5 13 14 64 20 115 6 50 16 103 21 117 5 14 15 67 21 117 6 51 15 102
20 114 4 13 13 63 19 111 7 48 18 111 25 138 8 28 17 82 21 120 4 39 11 81 16
95 5 13 15 67 23 120 8 52 21 127 29 165 9 39 16 81 16 95 0 14 9 68 19 120
11 52 29 151 41 220 12 69 30 168 41 220 10 52 19 106 19 120 0 14 7 57 16 95
8 39 22 114 29 168 8 54 17 102 20 107 3 5 12 56 20 113 8 58 19 116 24 129 5
13 12 55 16 93 3 39 13 93 20 120 8 28 19 89 25 138 6 48 15 99 20 112 5 14
15 67 21 117 6 51 15 102 20 115 4 12 13 62 19 110 6 49 17 111 25 138 7 28
16 80 20 117 3 36 12 86 20 110 7 25 16 76 20 114 3 38 13 92 20 119 8 28 19
89 25 138 6 48 15 98 19 110 5 13 14 64 20 115 6 50 16 103 21 117 5 13 14 64
20 112 6 49 17 111 25 138 7 28 17 81 20 120 4 38 11 80 16 93 5 14 14 59 20
101 5 42 16 105 24 141 8 36 18 90 22 120 l8 55 5612 5 c3086 3 5615 8 5619
13 12 12 43 142 53 226 6 42 17 103 25 136 9 32 16 75 16 95 0 19 9 71 20 115
11 44 20 94 20 110 0 17 9 66 19 110 10 44 22 107 25 140 4 33 13 80 20 105 7
25 17 79 21 120 4 41 12 86 17 100 5 13 15 67 23 120 13 88 32 194 55 315 6
28 15 82 21 120 6 39 19 111 29 160 10 50 23 122 29 160 6 39 15 93 21 120 23
121 42 227 55 315 8 53 18 107 23 121 6 14 13 56 17 94 3 39 13 93 20 120 8
28 18 86 24 130 5 44 17 107 25 140 9 32 16 73 16 90 0 16 9 67 20 113 11 46
20 97 20 114 0 17 9 67 19 112 11 44 23 110 26 146 4 36 11 76 16 89 5 13 16
70 24 128 8 57 17 108 20 113 3 5 12 53 20 107 8 54 21 132 29 173 21 112 35
187 47 265 6 39 19 111 29 160 10 50 23 122 29 160 6 39 15 93 21 120 23 121
43 236 55 316 7 47 17 101 23 120 6 19 16 74 22 122 6 48 15 99 20 112 5 13
12 52 16 87 3 34 15 99 25 143 10 44 19 94 19 110 0 17 7 58 16 90 8 33 19 96
25 140 5 44 14 93 19 108 5 16 14 67 21 115 6 48 17 110 24 137 7 28 16 77 20
110 4 33 13 85 20 115 7 30 16 82 20 115 4 33 13 83 20 110 8 28 19 89 25 136
5 48 15 100 20 115 5 16 14 65 19 109 6 44 17 107 25 140 21 77 21 121 0 129
-9 3 -2530 6 -5602 6 -3073 0 -5592 4 -5598 8 -12 8 -6 64 23 222 8 47 21 129
29 183 7 53 15 101 18 106 3 5 10 44 16 87 6 44 19 129 29 189 25 140 38 221
52 315 6 41 17 104 25 140 8 36 19 103 24 150 6 47 17 112 24 145 8 33 17 91
21 130 4 38 11 79 16 92 4 12 13 62 19 110 6 48 17 117 25 153 8 36 19 104 25
151 6 48 15 100 20 115 5 16 14 71 20 121 6 51 15 104 20 117 5 13 12 53 15
88 3 34 15 106 25 158 11 52 21 111 22 130 l3 35 6155 5 c3385 3 6161 9 6168
13 20 13 32 52 47 157 13 88 32 194 55 315 6 28 15 82 21 120 6 39 19 111 29
160 10 50 23 122 29 160 6 39 15 93 21 120 25 129 42 228 56 319 8 54 17 103
20 108 4 6 12 49 19 96 12 81 32 196 55 317 6 28 15 82 21 120 6 39 19 111 29
160 10 50 23 122 29 160 6 39 15 93 21 120 24 127 42 227 55 312 7 51 16 97
19 102 4 5 13 54 21 108 13 91 32 196 55 318 6 28 15 82 21 120 6 39 19 111
29 160 10 50 23 122 29 160 6 39 15 93 21 120 24 127 42 227 55 312 7 51 16
97 19 102 4 5 13 54 21 108 13 91 32 196 55 318 6 28 15 82 21 120 6 39 19
111 29 160 10 50 23 122 29 160 6 39 15 93 21 120 24 127 42 227 55 312 7 51
16 97 19 102 4 5 13 54 21 108 13 91 32 196 55 318 6 28 15 82 21 120 6 39 19
111 29 160 10 50 23 122 29 160 6 39 15 93 21 120 24 127 42 227 55 312 7 51
16 97 19 102 4 5 13 54 21 108 13 91 32 196 55 318 6 28 15 82 21 120 6 39 19
111 29 160 11 50 22 114 25 143 l6 52 -10979 0 -10980 0 -6 -67z"/>
<path d="M80926 34423 c-2 -16 -8 -55 -11 -87 -4 -33 -11 -70 -16 -82 -4 -13
-13 -63 -19 -111 -7 -48 -18 -110 -25 -138 -8 -27 -17 -79 -20 -115 -3 -36
-12 -87 -20 -115 -7 -27 -18 -90 -25 -138 -6 -48 -15 -98 -19 -111 -5 -12 -14
-63 -20 -114 -6 -50 -16 -103 -21 -117 -5 -14 -15 -67 -21 -117 -6 -51 -15
-102 -20 -115 -4 -12 -13 -62 -19 -110 -6 -49 -17 -110 -25 -138 -7 -27 -17
-81 -20 -120 -4 -38 -11 -80 -17 -94 -5 -14 -15 -68 -23 -121 -13 -86 -24
-152 -56 -320 -5 -30 -15 -84 -20 -120 -10 -62 -26 -151 -65 -355 -9 -49 -21
-121 -26 -160 -5 -38 -15 -95 -22 -125 -8 -30 -17 -82 -21 -115 -3 -33 -11
-78 -17 -100 -6 -22 -16 -78 -23 -125 -12 -79 -32 -197 -55 -315 -6 -27 -15
-81 -21 -120 -6 -38 -17 -99 -25 -135 -8 -36 -19 -102 -24 -148 -6 -45 -15
-94 -20 -107 -5 -14 -14 -64 -20 -112 -6 -49 -15 -101 -20 -118 -5 -16 -16
-77 -24 -135 -8 -58 -19 -117 -24 -130 -5 -14 -12 -56 -16 -95 -4 -38 -13 -92
-21 -120 -7 -27 -18 -90 -25 -138 -6 -48 -15 -98 -19 -111 -5 -12 -14 -63 -20
-114 -6 -50 -16 -103 -21 -117 -5 -14 -15 -67 -21 -117 -6 -51 -15 -102 -20
-115 -4 -12 -13 -62 -19 -110 -6 -49 -17 -110 -25 -138 -7 -27 -17 -81 -20
-120 -4 -38 -11 -80 -17 -94 -5 -14 -15 -68 -23 -121 -8 -52 -21 -129 -29
-170 -15 -79 -29 -159 -47 -275 -6 -38 -19 -110 -29 -160 -10 -49 -23 -121
-29 -160 -6 -38 -15 -92 -21 -120 -23 -122 -42 -227 -55 -318 -8 -54 -17 -102
-20 -107 -3 -5 -12 -53 -20 -107 -7 -54 -21 -129 -29 -168 -9 -38 -16 -81 -16
-95 0 -14 -9 -68 -19 -120 -11 -52 -29 -151 -41 -220 -12 -69 -30 -168 -41
-220 -10 -52 -19 -106 -19 -120 0 -14 -7 -56 -16 -95 -8 -38 -22 -114 -29
-168 -8 -54 -17 -102 -20 -107 -3 -5 -12 -56 -20 -113 -8 -58 -19 -115 -24
-128 -5 -13 -12 -53 -15 -89 -4 -36 -14 -91 -21 -122 -8 -31 -19 -92 -24 -135
-5 -43 -17 -105 -25 -138 -9 -32 -16 -75 -16 -95 0 -20 -7 -63 -16 -95 -8 -33
-20 -96 -25 -140 -6 -44 -16 -102 -24 -130 -7 -27 -16 -79 -20 -115 -3 -36
-12 -87 -20 -115 -7 -27 -17 -79 -20 -115 -3 -36 -12 -87 -20 -115 -7 -27 -18
-90 -25 -138 -6 -48 -15 -98 -19 -111 -5 -12 -14 -63 -20 -114 -6 -50 -16
-103 -21 -117 -5 -14 -15 -67 -21 -117 -6 -51 -15 -102 -20 -114 -4 -13 -13
-63 -19 -111 -7 -48 -18 -110 -25 -138 -7 -27 -17 -81 -20 -120 -4 -38 -11
-80 -17 -94 -5 -14 -15 -68 -23 -121 -8 -52 -21 -126 -29 -165 -9 -38 -16 -81
-16 -95 0 -14 -9 -68 -19 -120 -11 -52 -29 -151 -41 -220 -12 -69 -30 -168
-41 -220 -10 -52 -19 -106 -19 -120 0 -14 -7 -56 -16 -95 -8 -38 -22 -114 -29
-168 -8 -54 -17 -102 -20 -107 -3 -5 -12 -56 -20 -113 -8 -58 -19 -116 -24
-129 -5 -13 -12 -55 -16 -93 -3 -39 -13 -92 -20 -120 -8 -27 -18 -86 -24 -130
-5 -44 -17 -107 -25 -140 -9 -32 -16 -75 -16 -95 0 -20 -7 -63 -16 -95 -8 -33
-20 -96 -25 -140 -5 -44 -14 -93 -19 -110 -5 -16 -16 -77 -24 -135 -8 -58 -19
-117 -24 -130 -5 -14 -12 -56 -16 -95 -4 -38 -13 -92 -21 -120 -7 -27 -18 -90
-25 -138 -6 -48 -15 -98 -19 -111 -5 -12 -14 -63 -20 -114 -6 -50 -16 -103
-21 -117 -5 -14 -15 -67 -21 -117 -6 -51 -15 -102 -20 -115 -4 -12 -13 -62
-19 -110 -6 -49 -17 -110 -25 -138 -7 -27 -17 -81 -20 -120 -4 -38 -11 -80
-17 -94 -5 -14 -15 -68 -23 -121 -13 -86 -24 -152 -56 -320 -5 -30 -15 -84
-20 -120 -10 -62 -26 -151 -65 -355 -9 -49 -21 -121 -26 -160 -5 -38 -15 -95
-22 -125 -8 -30 -17 -82 -21 -115 -3 -33 -11 -78 -17 -100 -6 -22 -16 -78 -23
-125 -12 -79 -32 -197 -55 -315 -6 -27 -15 -81 -21 -120 -6 -38 -17 -99 -25
-135 -8 -36 -18 -99 -23 -140 -6 -41 -17 -102 -25 -135 -9 -32 -16 -73 -16
-90 0 -16 -7 -61 -16 -100 -8 -38 -21 -113 -29 -165 -8 -53 -18 -107 -23 -120
-5 -14 -12 -56 -16 -95 -4 -38 -13 -92 -21 -120 -7 -27 -18 -90 -25 -138 -6
-48 -15 -98 -19 -111 -5 -12 -14 -63 -20 -114 -6 -50 -16 -103 -21 -117 -5
-14 -15 -67 -21 -117 -6 -51 -15 -102 -20 -115 -4 -12 -13 -62 -19 -110 -6
-49 -17 -110 -25 -138 -7 -27 -16 -80 -20 -117 -3 -36 -12 -86 -20 -110 -7
-25 -16 -76 -20 -114 -3 -38 -13 -91 -20 -119 -7 -27 -18 -90 -25 -138 -6 -48
-15 -98 -19 -111 -5 -12 -14 -63 -20 -114 -6 -50 -16 -103 -21 -117 -5 -13
-14 -64 -20 -112 -6 -49 -17 -110 -25 -138 -7 -27 -17 -81 -20 -120 -4 -38
-11 -80 -16 -93 -5 -13 -16 -71 -24 -129 -8 -57 -17 -108 -20 -113 -3 -5 -12
-53 -20 -107 -7 -54 -21 -129 -29 -168 -9 -38 -16 -81 -16 -95 0 -14 -9 -68
-19 -120 -11 -52 -29 -151 -41 -220 -12 -69 -30 -168 -41 -220 -10 -52 -19
-106 -19 -120 0 -14 -7 -56 -16 -95 -8 -38 -22 -114 -29 -168 -8 -54 -17 -102
-20 -107 -3 -5 -12 -56 -20 -113 -8 -58 -19 -115 -24 -128 -5 -13 -12 -53 -15
-89 -4 -36 -14 -91 -21 -122 -8 -31 -19 -92 -24 -135 -5 -43 -17 -105 -25
-138 -9 -32 -16 -75 -16 -95 0 -20 -7 -63 -16 -95 -8 -33 -19 -96 -25 -140 -5
-44 -14 -93 -19 -108 -5 -16 -14 -67 -21 -115 -6 -48 -17 -109 -24 -137 -8
-27 -17 -79 -20 -115 -3 -36 -12 -87 -20 -115 -7 -27 -18 -90 -25 -138 -6 -48
-15 -98 -19 -111 -5 -12 -14 -63 -20 -114 -6 -50 -16 -103 -21 -117 -5 -14
-15 -67 -21 -117 -6 -51 -15 -102 -20 -114 -4 -13 -13 -63 -19 -111 -7 -48
-18 -110 -25 -138 -8 -27 -17 -81 -21 -120 -4 -38 -11 -81 -16 -95 -5 -13 -15
-67 -23 -120 -8 -52 -21 -133 -30 -180 -35 -191 -35 -194 -22 -202 6 -4 2167
-7 4802 -5 l4790 2 13 29 c8 16 19 61 24 100 5 39 16 100 24 136 8 36 19 102
24 148 6 45 15 94 20 107 5 14 15 67 21 117 6 51 15 102 20 114 4 13 13 63 19
111 7 48 18 111 25 138 8 28 17 82 21 120 4 39 11 81 16 95 5 13 16 72 24 130
8 58 19 119 24 135 5 17 14 69 20 118 6 48 15 98 20 112 5 13 14 62 20 107 5
46 16 112 24 148 8 36 19 97 25 135 6 39 15 93 21 120 23 118 43 236 55 315 7
47 17 103 23 125 6 22 14 67 17 100 4 33 13 85 21 115 7 30 17 87 22 125 5 39
17 111 26 160 39 204 55 293 65 355 5 36 15 90 20 120 31 165 45 243 56 315
11 74 32 190 55 310 6 28 15 82 21 120 6 39 17 99 25 135 8 36 19 102 24 148
6 45 15 94 20 107 5 14 15 67 21 117 6 51 15 102 20 114 4 13 13 63 19 111 7
48 18 111 25 138 8 28 17 79 20 115 3 36 13 88 20 115 8 28 17 79 20 115 4 36
13 88 20 115 8 28 18 86 24 130 5 44 17 107 25 140 9 32 16 75 16 95 0 20 7
63 16 95 8 33 20 96 25 140 6 44 16 103 24 130 7 28 17 81 20 120 4 38 11 80
16 93 5 13 16 71 24 129 8 57 17 108 20 113 3 5 12 53 20 107 7 54 21 130 29
168 9 39 16 83 16 98 0 16 9 67 19 115 11 48 24 119 30 157 22 142 33 202 52
290 10 50 19 101 19 115 0 14 7 57 16 95 8 39 21 111 29 160 13 82 26 156 56
315 6 30 15 87 20 125 6 39 17 95 24 125 8 31 19 95 25 143 6 48 15 98 20 112
5 14 14 64 20 112 6 49 15 102 20 118 5 17 16 77 24 135 8 58 19 117 24 130 5
14 12 57 16 95 4 39 13 93 21 120 8 28 17 79 20 115 4 36 13 88 20 115 8 28
19 89 25 138 6 48 15 98 19 110 5 13 14 64 20 115 6 50 16 103 21 117 5 14 15
67 21 117 6 51 15 102 20 114 4 13 13 63 19 111 7 48 18 111 25 138 8 28 17
82 21 120 4 39 11 81 16 95 5 13 15 67 23 120 8 52 21 127 29 165 9 39 16 84
16 100 0 17 9 66 20 110 11 44 20 96 20 115 0 20 7 63 16 95 8 33 20 96 25
140 6 44 16 103 24 130 7 28 16 79 20 115 3 36 12 88 20 115 7 28 16 77 20
110 4 33 13 85 20 115 7 30 17 82 20 115 4 33 13 85 21 115 7 30 17 87 22 125
5 39 17 111 26 160 32 166 54 290 65 355 5 36 14 90 20 120 29 154 43 234 56
320 8 53 18 107 23 121 6 14 13 56 17 94 3 39 13 93 20 120 8 28 19 89 25 138
6 48 15 98 19 110 5 13 14 64 20 115 6 50 16 103 21 117 5 14 15 67 21 117 6
51 15 102 20 114 4 13 13 63 19 111 7 48 18 111 25 138 8 28 17 82 21 120 4
39 11 81 16 95 5 13 16 72 24 130 8 58 19 119 24 135 5 17 14 66 19 110 5 44
17 107 25 140 9 32 16 75 16 95 0 20 7 63 16 95 8 33 20 96 25 140 6 44 16
103 24 130 7 28 17 81 20 120 4 38 11 80 16 93 5 13 16 71 24 129 8 57 17 108
20 113 3 5 12 53 20 107 7 54 21 130 29 168 9 39 16 81 16 95 0 14 9 68 19
120 11 52 29 151 41 220 12 69 30 168 41 220 10 52 19 106 19 120 0 14 7 57
16 95 8 39 21 111 29 160 13 84 32 191 55 310 6 28 17 95 25 150 9 55 20 114
25 130 5 17 14 69 20 118 6 48 15 98 20 112 5 14 14 64 20 112 6 49 15 102 20
118 5 17 16 79 25 138 8 60 17 112 20 117 3 5 12 56 20 113 8 58 19 116 24
129 5 13 12 55 16 93 3 39 13 93 20 120 8 28 19 89 25 138 6 48 15 98 19 110
5 13 14 64 20 115 6 50 16 103 21 117 5 14 15 67 21 117 6 51 15 102 20 114 4
13 13 63 19 111 7 48 18 111 25 138 8 28 17 82 21 120 4 39 11 81 16 95 5 13
15 67 23 120 8 52 21 127 29 165 9 39 16 84 16 100 0 17 7 58 16 90 8 33 19
94 25 135 5 41 15 104 23 140 8 36 19 97 25 135 6 39 15 93 21 120 23 118 43
236 55 315 7 47 17 103 23 125 6 22 14 67 17 100 4 33 13 85 21 115 7 30 17
87 22 125 5 39 17 111 26 160 39 204 55 293 65 355 5 36 15 90 20 120 35 184
43 235 56 321 8 53 19 108 24 121 5 13 12 55 16 93 3 39 13 93 20 120 8 28 19
89 25 138 6 48 15 98 19 110 5 13 14 64 20 115 6 50 16 103 21 117 5 14 15 67
21 117 6 51 15 102 20 114 4 13 13 63 19 111 7 48 18 111 25 138 8 28 17 79
20 115 3 36 12 88 20 115 7 28 18 89 24 137 7 48 16 99 21 115 5 15 14 64 19
108 6 44 17 107 25 140 9 32 16 75 16 95 0 20 7 63 16 95 8 33 20 96 25 140 6
44 16 103 24 130 7 28 16 76 19 108 l6 57 -4809 0 -4809 0 -6 -27z"/>
<path d="M93466 34428 c-2 -13 -9 -54 -15 -93 -6 -38 -15 -92 -21 -120 -23
-121 -43 -236 -55 -317 -7 -47 -15 -91 -19 -96 -3 -6 -13 -55 -21 -109 -13
-91 -32 -196 -55 -318 -6 -27 -15 -81 -21 -120 -6 -38 -19 -110 -29 -160 -10
-49 -23 -119 -28 -155 -6 -36 -15 -90 -21 -120 -29 -154 -45 -243 -56 -322 -7
-47 -15 -91 -19 -96 -3 -6 -13 -55 -21 -109 -13 -91 -32 -196 -55 -318 -6 -27
-15 -81 -21 -120 -6 -38 -19 -110 -29 -160 -10 -49 -23 -119 -28 -155 -6 -36
-15 -90 -21 -120 -29 -154 -45 -243 -56 -322 -7 -47 -15 -91 -19 -96 -3 -6
-13 -55 -21 -109 -13 -91 -32 -196 -55 -318 -6 -27 -15 -81 -21 -120 -6 -38
-19 -109 -30 -157 -10 -48 -19 -99 -19 -115 0 -15 -9 -64 -19 -108 -10 -44
-22 -109 -25 -143 -4 -35 -11 -74 -16 -87 -5 -13 -14 -64 -20 -112 -6 -48 -16
-103 -22 -122 -6 -19 -16 -73 -23 -120 -12 -80 -32 -195 -55 -316 -6 -27 -15
-81 -21 -120 -6 -38 -19 -109 -30 -157 -10 -48 -19 -99 -19 -115 0 -15 -9 -64
-19 -108 -10 -44 -22 -107 -25 -140 -4 -32 -13 -82 -21 -110 -7 -27 -17 -81
-20 -120 -4 -38 -11 -80 -17 -94 -5 -14 -15 -71 -23 -127 -8 -56 -19 -112 -24
-125 -5 -13 -12 -53 -15 -89 -4 -36 -14 -91 -21 -122 -8 -31 -19 -92 -24 -135
-5 -43 -17 -105 -25 -138 -9 -32 -16 -73 -16 -90 0 -16 -9 -66 -19 -110 -11
-44 -22 -116 -26 -160 -4 -44 -11 -85 -16 -91 -5 -6 -13 -46 -19 -90 -6 -43
-17 -104 -24 -134 -8 -30 -18 -83 -21 -118 -4 -35 -13 -86 -21 -115 -9 -35
-10 -55 -3 -62 7 -7 1415 -12 4337 -15 4319 -5 4327 -5 4326 -25 -4 -55 -27
-212 -35 -232 -4 -12 -13 -62 -19 -110 -6 -49 -17 -110 -25 -138 -7 -27 -17
-81 -20 -120 -4 -38 -11 -80 -17 -94 -5 -14 -15 -73 -23 -131 -8 -58 -18 -117
-23 -131 -5 -13 -13 -53 -16 -89 -4 -36 -14 -91 -21 -122 -8 -31 -19 -92 -24
-135 -5 -43 -17 -105 -25 -138 -9 -32 -16 -75 -16 -95 0 -19 -9 -71 -20 -115
-11 -44 -20 -93 -20 -110 0 -16 -7 -61 -16 -100 -8 -38 -22 -114 -29 -168 -8
-54 -17 -102 -20 -107 -2 -4 -11 -52 -19 -106 -14 -89 -22 -139 -57 -324 -5
-30 -15 -84 -20 -120 -5 -36 -18 -108 -29 -160 -10 -52 -22 -122 -25 -154 -4
-33 -11 -70 -16 -83 -4 -12 -13 -62 -19 -110 -6 -49 -17 -110 -25 -138 -7 -27
-17 -81 -20 -120 -4 -38 -11 -80 -17 -94 -5 -14 -15 -73 -23 -131 -8 -58 -18
-117 -23 -131 -5 -13 -13 -53 -16 -89 -4 -36 -14 -91 -21 -122 -8 -31 -19 -92
-24 -135 -5 -43 -17 -105 -25 -138 -9 -32 -16 -75 -16 -95 0 -20 -7 -63 -16
-95 -8 -33 -20 -96 -25 -140 -5 -44 -14 -93 -19 -110 -5 -16 -16 -79 -25 -138
-8 -60 -17 -112 -20 -117 -3 -5 -12 -53 -20 -107 -13 -88 -24 -154 -56 -323
-5 -30 -15 -84 -20 -120 -5 -36 -18 -108 -29 -160 -10 -52 -22 -122 -25 -154
-4 -33 -11 -70 -16 -83 -4 -12 -13 -62 -19 -110 -6 -49 -17 -110 -25 -138 -7
-27 -16 -79 -20 -115 -3 -36 -12 -87 -20 -115 -8 -27 -17 -81 -21 -120 -4 -38
-11 -81 -16 -95 -5 -13 -16 -72 -24 -130 -8 -58 -19 -118 -24 -135 -5 -16 -14
-66 -19 -110 -5 -44 -17 -107 -25 -140 -9 -32 -16 -75 -16 -95 0 -20 -7 -63
-16 -95 -8 -33 -20 -96 -25 -140 -5 -44 -14 -93 -19 -110 -5 -16 -16 -79 -25
-138 -8 -60 -17 -112 -20 -117 -3 -5 -12 -56 -20 -113 -8 -58 -19 -116 -24
-129 -5 -13 -12 -55 -16 -93 -4 -39 -16 -106 -26 -150 -10 -44 -19 -96 -19
-115 0 -19 -7 -60 -15 -90 -8 -30 -20 -93 -25 -140 -6 -47 -17 -107 -25 -135
-7 -27 -16 -79 -20 -115 -3 -36 -12 -87 -20 -115 -7 -27 -17 -81 -20 -120 -4
-38 -11 -80 -16 -93 -5 -13 -16 -71 -24 -129 -8 -57 -17 -108 -20 -113 -3 -5
-12 -57 -20 -117 -9 -59 -20 -121 -25 -138 -5 -16 -14 -66 -19 -110 -5 -44
-17 -107 -25 -140 -9 -32 -16 -75 -16 -95 0 -20 -7 -63 -16 -95 -8 -33 -20
-96 -25 -140 -5 -44 -14 -93 -19 -110 -5 -16 -16 -79 -25 -138 -8 -60 -17
-112 -20 -117 -3 -5 -12 -56 -20 -113 -8 -58 -19 -116 -24 -129 -5 -13 -12
-55 -16 -93 -3 -39 -13 -92 -20 -120 -8 -27 -19 -89 -25 -138 -6 -48 -15 -98
-19 -110 -5 -13 -12 -50 -16 -83 -3 -32 -15 -102 -25 -154 -11 -52 -24 -124
-29 -160 -5 -36 -15 -90 -20 -120 -32 -169 -43 -235 -56 -323 -8 -54 -17 -102
-20 -107 -3 -5 -12 -57 -20 -117 -9 -59 -20 -121 -25 -138 -5 -16 -14 -69 -20
-118 -6 -48 -15 -99 -20 -112 -5 -14 -15 -67 -21 -117 -6 -51 -15 -102 -20
-115 -4 -12 -13 -62 -19 -110 -6 -49 -15 -101 -20 -118 -5 -16 -16 -77 -24
-135 -8 -58 -19 -117 -24 -130 -5 -14 -12 -56 -16 -95 -4 -38 -13 -92 -21
-120 -8 -27 -17 -79 -20 -115 -4 -36 -13 -87 -20 -115 -8 -27 -19 -89 -25
-138 -6 -48 -15 -98 -19 -110 -5 -13 -14 -63 -20 -113 -6 -49 -18 -114 -26
-144 -8 -30 -15 -68 -15 -85 0 -16 -7 -61 -16 -100 -8 -38 -22 -114 -29 -168
-8 -54 -17 -102 -20 -107 -3 -5 -12 -53 -20 -107 -8 -54 -21 -132 -29 -173
-15 -79 -29 -159 -47 -275 -6 -38 -19 -110 -29 -160 -11 -49 -22 -117 -25
-149 -4 -33 -11 -70 -16 -83 -4 -12 -13 -62 -19 -110 -6 -49 -17 -110 -25
-138 -7 -27 -17 -81 -20 -120 -4 -38 -11 -80 -17 -94 -5 -14 -15 -73 -23 -131
-8 -58 -18 -117 -23 -131 -6 -14 -13 -56 -17 -94 -3 -39 -13 -92 -20 -120 -8
-27 -19 -89 -25 -138 -6 -48 -15 -98 -19 -110 -5 -13 -14 -63 -20 -113 -6 -49
-18 -114 -26 -144 -8 -30 -15 -68 -15 -85 0 -16 -7 -61 -16 -100 -8 -38 -22
-114 -29 -168 -8 -54 -17 -102 -20 -107 -3 -5 -12 -53 -20 -107 -13 -90 -29
-180 -56 -323 -22 -117 -32 -197 -26 -213 6 -16 326 -17 4800 -17 3824 0 4797
3 4805 13 5 6 15 51 21 99 6 48 16 99 21 115 5 15 14 64 19 108 6 44 17 107
25 140 9 32 16 75 16 95 0 20 7 63 16 95 8 33 20 96 25 140 5 44 14 94 19 110
5 17 16 79 25 138 8 60 17 112 20 117 3 5 12 53 20 107 13 89 27 168 56 323 6
30 15 84 20 120 6 36 19 108 29 160 11 52 22 122 25 154 4 33 11 71 17 85 5
14 14 64 19 111 5 46 16 107 24 135 7 27 16 79 20 115 3 36 12 88 20 115 8 28
17 82 21 120 4 39 11 81 16 95 5 13 16 72 24 130 8 58 19 119 24 135 5 17 14
69 20 118 6 48 15 98 19 110 5 13 14 64 20 115 6 50 16 103 21 117 5 13 14 64
20 112 6 49 15 102 20 118 5 17 16 79 25 138 8 60 17 112 20 117 3 5 12 53 20
107 14 95 34 211 57 323 6 30 16 93 23 140 6 47 19 121 28 165 25 128 56 306
62 360 4 28 13 73 20 100 7 28 17 81 20 120 4 38 11 80 16 93 5 13 16 71 24
129 8 57 17 108 20 113 3 5 12 57 20 117 9 59 20 122 25 138 5 17 14 66 19
110 5 44 17 107 25 140 9 32 16 75 16 95 0 20 7 63 16 95 8 33 20 96 25 140 5
44 14 94 19 110 5 17 16 79 25 138 8 60 17 112 20 117 3 5 12 56 20 113 8 58
19 116 24 129 5 13 12 55 16 93 3 39 13 93 20 120 8 28 19 89 24 135 5 47 14
97 20 112 5 14 13 55 16 90 4 34 15 101 25 148 10 47 22 112 25 145 4 33 13
83 20 110 7 28 17 81 20 120 4 38 11 80 16 93 5 13 16 71 24 129 8 57 17 108
20 113 3 5 12 57 20 117 9 59 20 122 25 138 5 17 14 66 19 110 5 44 17 107 25
140 9 32 16 75 16 95 0 20 7 63 16 95 8 33 20 96 25 140 5 44 14 94 19 110 5
17 16 77 24 135 8 58 19 117 24 130 5 14 12 57 16 95 4 39 13 93 21 120 8 28
17 79 20 115 4 36 13 88 20 115 8 28 19 89 25 138 6 48 15 98 19 110 5 13 14
63 20 113 6 49 18 114 26 144 8 30 15 71 15 90 0 19 9 71 19 115 10 44 22 111
26 150 4 38 11 80 16 93 5 13 16 71 24 129 8 57 17 108 20 113 3 5 12 57 20
117 9 59 20 122 25 138 5 17 14 66 19 110 5 44 17 107 25 140 9 32 16 75 16
95 0 20 7 63 16 95 8 33 20 95 25 138 5 43 16 104 24 135 7 31 17 86 21 122 3
36 11 76 16 89 5 14 15 73 23 131 8 58 18 117 23 131 6 14 13 56 17 94 3 39
13 93 20 120 8 28 19 89 25 138 6 48 15 98 19 110 5 13 12 50 16 83 3 32 15
102 25 154 11 52 24 124 29 160 5 36 15 90 20 120 32 169 43 235 56 323 8 54
17 102 20 107 3 5 12 53 20 107 7 54 21 130 29 168 9 39 16 84 16 100 0 17 7
58 16 90 8 33 19 96 25 140 5 44 14 93 19 109 6 16 15 70 21 119 6 50 15 101
20 113 4 13 13 63 19 111 7 48 18 111 25 138 8 28 17 79 20 115 3 36 13 88 20
115 8 28 17 79 20 115 4 36 13 88 20 115 8 28 19 89 25 138 6 48 15 98 19 110
5 13 12 50 16 83 3 32 15 102 25 154 11 52 24 124 29 160 5 36 15 90 20 120
32 169 43 235 56 323 8 54 17 102 20 107 3 5 12 53 20 107 7 54 21 130 29 168
9 39 16 84 16 100 0 17 7 58 16 90 8 33 19 96 25 140 5 44 14 93 19 109 5 15
15 67 20 115 6 47 17 109 25 136 7 28 16 79 20 115 3 36 12 88 20 115 8 28 17
82 21 120 3 39 11 78 16 88 8 16 225 17 4321 18 2372 1 4323 4 4337 8 16 5 27
17 31 36 31 134 40 177 45 225 3 30 12 78 19 105 7 28 18 90 25 138 6 48 15
99 20 112 5 13 12 52 16 87 3 34 15 99 25 143 10 44 19 93 19 108 0 16 9 67
19 115 11 48 24 119 30 157 6 39 15 93 21 120 24 127 42 227 55 313 7 51 18
107 24 125 5 17 15 72 21 120 6 48 15 99 20 112 5 13 12 52 16 87 3 34 15 99
25 143 10 44 19 93 19 108 0 16 9 67 19 115 11 48 24 119 30 157 6 39 15 93
21 120 24 127 42 227 55 313 7 51 18 107 24 125 5 17 15 72 21 120 6 48 15 99
20 112 5 13 12 52 16 87 3 34 15 99 25 143 10 44 19 93 19 108 0 16 9 67 19
115 11 48 24 119 30 157 6 39 15 93 21 120 24 127 42 227 55 313 7 51 18 107
24 125 5 17 15 72 21 120 6 48 15 99 20 112 5 13 12 52 16 87 3 34 15 99 25
143 10 44 19 93 19 108 0 16 9 67 19 115 11 48 24 119 30 157 6 39 15 93 21
120 24 127 42 227 55 313 7 51 18 107 24 125 5 17 15 72 21 120 6 48 15 99 20
112 5 13 12 52 16 87 3 34 15 99 25 143 10 44 19 93 19 108 0 16 9 67 19 115
11 48 24 119 30 157 6 39 15 93 21 120 24 127 42 227 55 313 7 51 18 107 24
125 5 17 15 72 21 120 6 48 15 99 20 112 5 13 12 52 15 87 9 81 23 138 35 138
6 0 10 25 10 55 l0 55 -13495 0 -13495 0 -4 -22z"/>
<path d="M125063 34436 c-6 -7 -56 -18 -118 -25 -58 -7 -118 -17 -133 -22 -15
-6 -56 -17 -92 -24 -120 -26 -195 -49 -355 -111 -185 -71 -355 -157 -547 -277
-83 -52 -178 -117 -198 -134 -8 -7 -53 -43 -99 -80 -104 -82 -326 -303 -412
-410 -71 -88 -78 -97 -148 -198 -27 -38 -56 -78 -65 -87 -9 -10 -16 -21 -16
-24 0 -4 -28 -57 -63 -118 -34 -61 -82 -151 -106 -201 -24 -49 -52 -107 -62
-127 -10 -20 -19 -43 -19 -49 0 -7 -8 -31 -19 -53 -30 -65 -78 -217 -102 -326
-6 -25 -17 -68 -24 -95 -8 -28 -22 -102 -30 -165 -9 -63 -20 -144 -25 -180
-13 -88 -12 -529 0 -610 6 -36 17 -111 25 -168 18 -134 54 -287 101 -432 8
-25 21 -65 28 -90 8 -25 21 -58 30 -75 9 -16 16 -36 16 -43 0 -8 6 -26 14 -40
8 -15 36 -72 62 -127 26 -55 76 -151 111 -212 34 -62 63 -117 63 -123 0 -5 4
-10 8 -10 5 0 27 -28 50 -62 64 -97 71 -106 156 -213 137 -171 409 -429 566
-538 192 -132 323 -209 485 -286 50 -24 107 -51 127 -62 20 -10 42 -19 49 -19
6 0 30 -8 53 -19 72 -32 216 -77 326 -102 25 -6 68 -17 97 -25 29 -8 91 -19
139 -25 48 -5 105 -14 128 -20 60 -16 554 -23 656 -10 208 26 309 41 360 55
30 8 75 19 100 25 127 29 298 87 445 151 91 40 249 120 315 160 36 21 81 49
100 60 67 40 198 128 221 150 9 8 29 24 44 35 135 94 416 375 510 510 11 15
27 35 35 44 22 24 111 155 150 221 11 19 35 58 52 85 132 214 273 560 323 795
7 36 18 77 24 92 5 15 15 74 22 133 7 61 18 112 25 120 11 11 14 84 14 375 0
291 -3 364 -14 375 -7 8 -18 59 -25 121 -7 59 -16 115 -21 124 -5 9 -14 48
-21 86 -6 38 -17 80 -24 94 -7 14 -16 45 -20 70 -4 25 -13 54 -20 65 -7 11
-16 36 -20 55 -4 19 -16 53 -26 75 -9 22 -38 87 -63 145 -25 58 -59 130 -75
160 -16 30 -39 74 -51 97 -12 23 -32 58 -46 78 -13 20 -31 48 -39 63 -15 26
-27 44 -69 108 -11 16 -43 58 -71 94 -28 36 -56 72 -61 81 -38 69 -393 424
-463 463 -9 5 -45 33 -81 61 -36 28 -78 60 -94 71 -63 42 -82 54 -116 74 -19
12 -53 32 -75 46 -22 13 -53 31 -70 39 -16 9 -55 29 -85 46 -30 16 -102 50
-160 75 -58 25 -123 54 -145 63 -22 10 -56 22 -75 26 -19 4 -44 13 -55 20 -11
7 -40 16 -65 20 -25 4 -56 13 -70 20 -14 7 -43 15 -65 19 -22 4 -78 15 -125
26 -47 11 -115 22 -153 26 -37 3 -74 12 -81 20 -21 20 -735 20 -753 0z m618
-586 c30 -5 101 -16 159 -25 145 -20 240 -46 450 -120 63 -23 315 -147 375
-186 99 -63 130 -84 135 -89 3 -3 29 -21 57 -41 105 -72 303 -257 398 -372 22
-27 47 -56 55 -64 8 -9 22 -26 30 -39 8 -12 37 -55 65 -95 56 -83 57 -84 106
-171 48 -84 159 -318 159 -335 0 -4 8 -30 19 -58 89 -238 142 -548 140 -835 0
-96 -4 -200 -9 -230 -5 -30 -14 -95 -20 -145 -15 -120 -65 -316 -111 -440 -11
-28 -19 -54 -19 -59 0 -5 -9 -27 -19 -50 -37 -77 -71 -155 -71 -159 0 -12
-145 -258 -181 -307 -22 -30 -48 -68 -59 -84 -30 -46 -118 -145 -220 -246
-168 -167 -215 -204 -450 -356 -90 -57 -343 -184 -369 -184 -6 0 -30 -8 -53
-19 -95 -41 -270 -88 -403 -107 -55 -8 -124 -19 -154 -24 -84 -15 -445 -13
-537 4 -44 8 -108 18 -144 21 -36 4 -81 13 -100 21 -19 7 -57 18 -85 23 -53
10 -111 28 -215 68 -63 24 -99 39 -197 85 -67 31 -241 130 -294 167 -24 18
-61 43 -81 56 -64 42 -240 199 -325 289 -129 136 -200 228 -309 401 -111 178
-257 529 -279 674 -4 24 -13 58 -20 75 -7 17 -16 65 -20 106 -4 41 -13 111
-21 155 -16 94 -19 443 -4 526 5 30 16 101 25 159 24 169 82 383 140 515 8 17
27 62 44 100 17 39 44 95 61 125 16 30 36 66 43 80 6 14 21 39 31 55 33 51 71
110 78 120 120 165 136 183 283 330 152 152 220 206 445 351 46 29 139 81 170
95 14 5 62 28 108 50 45 21 87 39 92 39 5 0 29 8 52 19 94 41 264 86 403 106
55 8 123 19 150 24 70 12 430 13 496 1z"/>
<path d="M124395 32983 c-47 -10 -94 -37 -116 -67 l-24 -31 -3 -1436 -2 -1436
22 -33 c13 -18 36 -43 51 -54 27 -20 41 -21 276 -21 279 0 278 0 329 78 l27
42 5 455 5 455 260 3 c143 1 270 0 282 -3 16 -4 50 -55 125 -186 57 -99 113
-197 125 -217 12 -21 25 -44 29 -52 8 -17 58 -104 91 -158 12 -21 31 -55 43
-77 11 -22 31 -58 45 -80 13 -22 28 -49 34 -61 10 -23 46 -77 76 -115 11 -14
40 -39 64 -55 l45 -29 251 0 c247 0 251 0 280 23 16 13 41 39 54 59 22 30 25
45 25 109 -1 53 -5 79 -17 91 -8 10 -20 29 -26 43 -6 14 -21 41 -33 62 -13 20
-61 102 -108 182 -47 81 -95 163 -107 184 -12 20 -30 51 -40 69 -10 18 -56 98
-102 178 -46 80 -81 152 -78 159 3 8 19 23 34 32 161 100 234 169 306 291 26
44 47 87 47 94 1 8 9 32 20 54 11 22 20 49 20 60 0 11 9 53 20 94 30 111 29
435 -1 565 -39 167 -80 260 -160 361 -74 94 -180 184 -252 215 -12 6 -29 14
-37 19 -20 13 -122 54 -189 75 -62 21 -208 43 -366 56 -108 9 -1290 12 -1330
3z m1357 -688 c97 -16 181 -51 216 -88 12 -12 33 -45 48 -72 25 -46 27 -59 27
-170 1 -111 -1 -124 -26 -171 -25 -49 -109 -134 -133 -134 -6 0 -39 -9 -73
-20 -57 -18 -96 -20 -454 -22 l-392 -3 -3 325 c-1 179 0 335 3 348 l5 22 345
0 c263 0 367 -4 437 -15z"/>
<path d="M48905 4628 c-82 -4 -172 -15 -200 -22 -27 -8 -70 -17 -95 -21 -51
-7 -155 -39 -218 -66 -23 -11 -47 -19 -53 -19 -11 0 -180 -83 -244 -119 -150
-84 -332 -251 -420 -385 -27 -39 -55 -82 -64 -96 -25 -36 -111 -217 -111 -232
-1 -7 -9 -31 -20 -53 -11 -22 -19 -47 -20 -56 0 -9 -10 -45 -22 -80 -19 -58
-21 -85 -22 -284 0 -212 1 -223 26 -295 44 -125 73 -182 140 -275 90 -126 244
-246 433 -334 50 -24 106 -51 125 -61 19 -9 51 -21 70 -25 19 -4 40 -11 45
-15 6 -5 35 -15 65 -24 74 -20 149 -45 185 -60 17 -8 46 -17 65 -20 19 -4 58
-16 85 -26 28 -10 84 -28 125 -40 41 -13 95 -30 120 -39 25 -8 63 -21 85 -27
76 -23 159 -54 169 -64 6 -6 16 -10 24 -10 22 0 199 -89 257 -129 115 -79 169
-141 206 -234 16 -41 20 -66 16 -117 -28 -342 -301 -619 -732 -741 -38 -11
-95 -24 -125 -30 -30 -5 -95 -17 -145 -27 -68 -12 -144 -17 -310 -16 -197 0
-229 2 -305 23 -150 40 -264 92 -370 168 -44 32 -152 147 -171 183 -11 19 -23
42 -28 50 -24 39 -50 103 -75 181 -19 60 -37 96 -57 115 l-30 29 -203 0 -203
0 -40 -28 c-65 -45 -77 -78 -70 -190 3 -52 13 -121 22 -153 24 -84 67 -196 81
-214 6 -8 15 -26 19 -38 4 -13 21 -44 38 -69 18 -25 39 -56 48 -69 47 -72 219
-232 299 -279 10 -6 26 -17 35 -25 34 -28 240 -132 297 -150 21 -6 40 -15 43
-20 3 -4 24 -11 48 -15 23 -4 54 -13 68 -21 14 -7 65 -18 113 -25 48 -7 94
-18 101 -26 21 -20 700 -19 721 1 7 8 44 17 81 21 117 10 347 66 483 118 52
19 232 105 275 131 18 10 48 30 125 83 276 189 502 542 567 888 8 44 19 100
23 125 11 59 11 213 0 270 -31 158 -62 238 -134 349 -68 101 -198 219 -331
298 -79 47 -330 163 -352 163 -8 0 -28 7 -45 16 -17 9 -51 22 -77 29 -25 7
-77 23 -116 35 -71 22 -150 45 -272 80 -72 20 -149 44 -198 61 -16 6 -57 19
-90 29 -240 72 -440 175 -545 280 -51 51 -93 129 -109 203 -11 48 -2 160 18
210 6 16 11 38 11 49 0 22 21 75 68 166 38 75 139 182 228 242 42 27 79 50 82
50 4 0 24 9 44 20 55 29 266 94 343 105 184 27 512 20 600 -12 22 -8 55 -19
72 -24 51 -15 172 -87 239 -141 102 -82 202 -222 250 -350 9 -23 23 -61 31
-83 8 -22 29 -51 46 -65 30 -24 37 -25 207 -28 204 -4 235 2 291 60 38 40 39
42 39 114 0 73 -27 194 -69 314 -57 161 -203 364 -344 479 -101 83 -136 106
-266 173 -196 101 -357 144 -591 158 -174 11 -195 11 -405 -2z"/>
<path d="M53895 4628 c-82 -4 -172 -15 -200 -22 -27 -8 -70 -17 -95 -21 -65
-9 -238 -66 -335 -110 -27 -13 -57 -26 -65 -29 -47 -19 -177 -99 -235 -144
-156 -120 -245 -216 -336 -357 -64 -100 -68 -107 -79 -135 -6 -14 -19 -43 -29
-65 -44 -94 -61 -137 -61 -153 -1 -9 -8 -35 -16 -57 -20 -55 -54 -274 -54
-351 0 -80 33 -278 55 -329 66 -153 120 -239 205 -324 53 -53 147 -128 195
-155 17 -10 48 -28 70 -41 22 -14 47 -27 55 -31 39 -17 148 -67 170 -78 14 -7
39 -16 55 -20 17 -4 44 -13 60 -20 17 -8 71 -26 120 -41 50 -15 104 -33 120
-40 17 -7 46 -16 65 -19 19 -4 58 -16 85 -26 28 -10 84 -28 125 -40 41 -12 98
-31 125 -41 28 -11 56 -19 62 -19 12 0 120 -40 178 -65 17 -8 62 -27 100 -44
147 -63 210 -104 301 -195 58 -58 75 -82 88 -126 25 -85 17 -239 -18 -315 -67
-148 -84 -173 -171 -261 -49 -50 -115 -106 -145 -125 -30 -19 -64 -40 -75 -47
-99 -62 -298 -131 -451 -156 -44 -8 -107 -20 -140 -27 -38 -8 -139 -13 -279
-13 -200 -1 -229 1 -315 23 -226 56 -394 160 -521 321 -52 65 -105 184 -138
305 -6 23 -24 54 -41 70 l-31 30 -204 0 -203 0 -44 -30 c-63 -45 -73 -82 -60
-220 6 -67 20 -141 36 -189 27 -82 97 -229 122 -257 8 -8 14 -19 14 -24 0 -29
257 -287 318 -319 10 -5 40 -23 67 -41 28 -18 66 -40 85 -49 19 -8 42 -20 50
-25 24 -15 128 -61 139 -61 5 0 22 -6 38 -14 48 -25 163 -56 246 -68 48 -7 81
-17 84 -25 8 -20 708 -19 729 1 7 8 44 17 81 21 38 3 97 13 133 21 36 9 89 20
119 25 29 5 65 16 80 23 14 8 45 17 68 21 22 3 49 13 60 20 10 8 24 15 32 15
14 0 35 9 171 73 114 54 244 147 374 267 51 48 206 230 206 243 0 3 17 34 39
68 21 35 42 75 46 88 4 14 16 38 26 55 11 17 19 38 19 46 1 8 9 33 20 55 11
22 19 48 20 57 0 10 8 44 19 75 10 32 27 122 36 199 17 134 17 147 1 255 -39
263 -148 435 -375 597 -72 51 -83 58 -227 131 -55 28 -107 51 -115 51 -8 0
-19 4 -25 10 -10 10 -58 27 -214 78 -169 55 -194 63 -245 77 -182 51 -251 72
-320 96 -16 6 -52 17 -80 24 -27 8 -81 26 -120 40 -38 15 -86 33 -105 40 -69
26 -213 106 -270 150 -71 54 -112 105 -146 180 -24 52 -26 64 -22 168 5 128
23 193 91 326 66 131 179 234 347 317 134 67 322 110 525 122 88 5 183 7 210
5 124 -9 213 -23 240 -37 17 -9 36 -16 43 -16 7 0 54 -21 105 -47 76 -40 109
-66 197 -153 91 -91 111 -118 153 -201 26 -52 47 -102 47 -110 1 -28 48 -109
76 -131 27 -22 39 -23 212 -26 170 -3 186 -2 227 18 24 11 55 37 70 56 25 33
27 40 22 112 -6 93 -21 167 -48 247 -21 59 -62 155 -80 185 -5 8 -18 31 -28
51 -11 20 -58 83 -105 141 -99 122 -193 203 -331 285 -45 27 -219 113 -229
113 -6 0 -33 9 -61 19 -95 37 -229 61 -385 71 -174 11 -195 11 -405 -2z"/>
<path d="M60455 4629 c-114 -9 -255 -38 -337 -70 -26 -11 -51 -19 -57 -19 -22
0 -205 -94 -279 -143 -131 -86 -307 -280 -369 -407 -7 -14 -17 -32 -22 -40
-15 -24 -48 -101 -61 -145 -7 -22 -16 -44 -20 -50 -5 -5 -13 -35 -18 -65 -6
-30 -16 -68 -22 -85 -16 -42 -24 -220 -12 -285 15 -85 42 -179 64 -224 11 -23
30 -61 42 -86 22 -47 109 -203 138 -248 10 -15 24 -39 33 -54 8 -16 40 -65 71
-109 39 -58 54 -88 50 -103 -3 -14 -30 -35 -78 -60 -40 -21 -93 -51 -118 -67
-25 -16 -54 -33 -65 -39 -11 -6 -39 -23 -62 -38 -23 -15 -62 -40 -88 -57 -82
-53 -258 -196 -338 -274 -204 -197 -348 -428 -399 -636 -5 -22 -17 -67 -25
-100 -25 -95 -29 -316 -8 -395 9 -36 21 -83 26 -104 12 -50 66 -159 115 -234
56 -85 169 -194 264 -256 25 -16 57 -37 71 -47 15 -10 39 -21 53 -25 14 -3 30
-12 37 -20 6 -8 18 -14 25 -14 7 0 42 -11 76 -24 96 -37 197 -64 261 -71 36
-4 60 -12 64 -21 8 -21 627 -21 648 0 8 8 43 17 77 21 70 8 98 13 208 43 103
29 168 50 216 73 23 10 47 19 54 19 6 0 24 6 38 14 15 8 79 40 142 71 133 64
121 58 267 153 106 69 114 72 138 60 14 -8 40 -34 58 -59 99 -139 252 -319
281 -330 44 -17 445 -25 512 -10 83 19 131 88 111 161 -5 19 -35 66 -66 105
-31 38 -70 88 -85 110 -16 22 -37 48 -47 57 -10 10 -30 34 -46 55 -15 21 -81
104 -145 185 -65 81 -118 156 -118 166 0 11 10 30 23 44 64 70 133 151 141
166 5 9 28 40 50 68 23 28 47 60 53 70 7 11 32 48 56 84 58 88 124 206 179
320 41 85 58 123 103 225 7 17 25 64 40 105 15 41 33 89 40 106 8 18 17 49 20
70 4 22 14 62 22 90 19 62 13 91 -26 133 l-30 32 -218 -3 -218 -3 -47 -32
c-43 -30 -87 -92 -104 -146 -11 -36 -122 -271 -154 -327 -24 -41 -84 -147 -94
-165 -9 -16 -82 -125 -166 -249 -31 -45 -58 -76 -68 -76 -10 0 -81 76 -123
132 -13 17 -87 110 -165 207 -77 97 -171 217 -209 266 -37 50 -76 99 -86 110
-44 48 -140 177 -149 199 -8 22 -3 27 58 67 37 23 76 47 87 53 77 42 361 249
440 321 112 102 225 218 255 261 42 60 76 112 89 134 41 74 81 157 81 170 0 9
5 21 11 27 10 10 43 121 59 203 12 60 12 326 0 370 -43 167 -105 274 -225 396
-55 55 -120 112 -145 126 -183 105 -326 152 -505 167 -133 12 -171 12 -330 0z
m233 -584 c133 -13 265 -106 329 -233 25 -50 28 -66 28 -156 0 -87 -4 -110
-28 -168 -65 -160 -162 -277 -347 -424 -94 -75 -107 -83 -285 -189 -109 -65
-156 -85 -174 -76 -18 10 -54 54 -100 121 -132 194 -123 180 -164 265 -71 148
-72 151 -71 275 0 102 4 123 28 184 40 98 69 141 151 221 67 65 117 97 239
149 50 22 235 46 301 40 17 -2 58 -6 93 -9z m-521 -2173 c73 -92 180 -228 238
-302 58 -74 120 -152 138 -174 17 -21 36 -46 41 -55 5 -9 44 -59 86 -111 42
-52 102 -130 134 -173 58 -77 58 -78 40 -98 -16 -17 -109 -82 -199 -136 -33
-21 -203 -102 -243 -117 -130 -48 -190 -66 -267 -81 -38 -7 -95 -19 -125 -26
-35 -9 -117 -13 -230 -13 -156 0 -186 3 -273 27 -54 14 -104 30 -110 35 -7 5
-23 13 -35 17 -55 16 -170 111 -207 170 -61 96 -69 124 -70 250 0 129 15 191
73 295 54 96 212 268 292 318 14 9 46 33 71 54 26 21 49 38 53 38 3 0 34 19
68 42 78 52 126 81 238 144 36 20 72 42 80 49 17 14 49 23 65 18 6 -2 69 -79
142 -171z"/>
<path d="M98845 4629 c-125 -9 -268 -35 -370 -69 -33 -11 -67 -20 -75 -20 -8
-1 -33 -9 -55 -20 -22 -11 -44 -19 -48 -20 -14 0 -171 -75 -252 -119 -41 -22
-155 -94 -180 -114 -5 -4 -28 -21 -50 -37 -103 -77 -246 -214 -336 -320 -92
-109 -226 -323 -293 -465 -15 -33 -31 -67 -36 -76 -21 -40 -70 -172 -70 -188
0 -9 -5 -22 -11 -28 -10 -10 -34 -91 -64 -213 -7 -30 -20 -82 -28 -115 -17
-67 -33 -135 -49 -210 -6 -27 -18 -79 -28 -115 -10 -36 -21 -90 -25 -120 -4
-30 -13 -71 -20 -90 -7 -19 -16 -60 -19 -90 -4 -30 -13 -77 -21 -105 -8 -27
-18 -84 -24 -126 -6 -42 -14 -87 -19 -100 -5 -13 -13 -49 -16 -79 -4 -30 -14
-99 -22 -152 -26 -161 -1 -524 41 -608 7 -14 16 -43 19 -64 4 -22 14 -49 22
-60 8 -11 14 -26 14 -34 0 -19 57 -136 104 -212 41 -68 118 -166 183 -236 42
-46 196 -174 209 -174 4 0 15 -6 23 -14 9 -8 48 -31 86 -51 39 -20 75 -40 80
-45 6 -5 22 -11 38 -15 15 -4 44 -16 64 -26 21 -10 44 -19 53 -19 9 0 40 -8
70 -19 30 -10 81 -22 113 -26 36 -4 60 -12 64 -21 8 -21 640 -21 657 0 7 9 47
19 105 26 51 6 102 15 111 20 10 5 46 16 81 24 90 20 160 46 309 115 254 117
485 309 669 555 37 50 71 98 74 106 4 8 20 35 36 60 46 71 171 327 171 350 0
7 7 24 15 38 17 31 41 96 61 167 8 28 21 64 29 82 8 17 15 39 15 50 0 10 9 45
19 78 20 61 46 165 62 245 4 25 15 70 23 100 18 63 42 178 58 265 5 33 16 81
24 107 8 25 18 79 24 119 6 41 17 96 25 123 8 27 15 63 15 79 0 16 9 66 19
111 11 44 27 158 36 251 14 155 14 183 0 315 -15 144 -41 264 -75 350 -45 112
-74 176 -86 191 -8 8 -14 19 -14 24 0 25 -110 166 -199 256 -121 120 -209 183
-366 259 -280 135 -555 178 -970 149z m354 -584 c84 -7 198 -38 281 -78 125
-60 262 -177 311 -266 11 -20 32 -60 48 -89 52 -96 88 -243 104 -427 5 -50
-28 -338 -48 -425 -16 -71 -39 -190 -60 -313 -8 -42 -17 -81 -20 -86 -3 -6
-10 -36 -15 -68 -6 -32 -19 -92 -29 -133 -11 -41 -29 -118 -40 -170 -63 -289
-137 -525 -203 -640 -4 -8 -13 -26 -20 -40 -6 -14 -41 -70 -77 -125 -88 -133
-258 -304 -356 -359 -16 -9 -43 -25 -60 -36 -105 -67 -293 -141 -422 -165 -40
-8 -89 -18 -110 -24 -59 -17 -309 -24 -393 -12 -83 12 -204 42 -235 58 -11 6
-49 25 -85 43 -205 101 -346 297 -410 566 -36 153 -22 426 35 674 8 36 19 98
25 138 6 41 14 81 19 91 5 9 14 50 20 91 5 41 16 93 24 115 8 22 17 64 21 94
4 30 12 63 17 73 6 11 15 47 20 81 5 34 16 85 24 112 8 28 21 79 30 115 56
229 68 262 163 457 72 147 134 235 247 348 95 96 205 178 320 238 72 38 160
77 174 77 7 0 25 7 40 15 16 8 57 21 92 29 35 8 84 19 109 25 50 12 298 30
345 25 17 -2 68 -6 114 -9z"/>
<path d="M25410 4552 c-88 -46 -112 -91 -151 -287 -13 -69 -45 -216 -65 -300
-9 -38 -20 -97 -25 -130 -5 -33 -16 -80 -23 -105 -8 -25 -18 -70 -22 -100 -3
-30 -11 -66 -16 -80 -6 -14 -16 -61 -24 -105 -8 -44 -21 -105 -29 -135 -8 -30
-15 -66 -15 -81 0 -15 -6 -45 -14 -67 -8 -22 -20 -75 -26 -118 -7 -44 -16 -87
-21 -96 -5 -9 -14 -52 -20 -95 -6 -42 -15 -85 -20 -94 -4 -9 -13 -50 -19 -90
-6 -41 -17 -94 -25 -119 -7 -25 -17 -70 -21 -100 -3 -30 -11 -66 -16 -80 -6
-14 -16 -59 -23 -100 -7 -41 -20 -106 -29 -145 -18 -77 -32 -143 -116 -540
-11 -49 -28 -130 -39 -180 -11 -49 -23 -106 -26 -125 -3 -19 -14 -73 -25 -120
-10 -47 -28 -130 -39 -185 -23 -105 -46 -217 -80 -375 -11 -52 -30 -135 -41
-185 -12 -49 -24 -129 -27 -176 -6 -85 -6 -85 26 -121 40 -46 91 -58 244 -58
219 0 286 37 332 184 14 43 25 91 25 105 0 15 7 51 15 81 8 30 21 92 29 137 8
45 17 87 21 93 4 6 13 46 20 88 7 42 20 106 28 142 9 36 25 110 36 165 12 55
30 142 41 193 11 50 29 134 40 185 10 50 28 133 39 182 11 50 23 108 27 130 8
52 35 147 47 162 7 10 232 13 1011 15 954 3 1003 4 1036 22 87 46 135 121 151
236 5 36 16 95 26 131 19 77 11 109 -39 160 l-30 29 -1009 0 -1009 0 -10 25
c-6 16 -5 41 6 77 8 29 19 82 24 118 6 36 17 85 24 110 8 25 17 68 21 95 3 28
13 73 20 100 14 49 33 140 59 280 7 39 20 102 29 140 9 39 25 114 36 168 12
53 30 139 41 190 11 50 23 110 28 132 5 28 15 44 32 52 20 10 259 13 1087 13
l1062 0 43 27 c59 37 97 92 109 161 6 31 15 64 19 72 5 9 14 53 20 98 14 106
3 149 -48 188 l-37 29 -1310 3 -1310 2 -55 -28z"/>
<path d="M30175 4559 c-51 -25 -124 -103 -130 -138 -3 -14 -10 -44 -15 -66 -6
-22 -17 -78 -26 -125 -8 -47 -19 -96 -25 -108 -5 -13 -14 -58 -20 -100 -6 -42
-15 -84 -20 -93 -4 -9 -13 -50 -19 -90 -6 -41 -17 -94 -25 -119 -8 -25 -17
-67 -20 -95 -4 -27 -13 -70 -20 -95 -7 -25 -16 -63 -19 -85 -4 -22 -16 -80
-27 -130 -21 -98 -39 -182 -119 -560 -11 -49 -28 -130 -39 -180 -11 -49 -23
-108 -27 -130 -3 -22 -12 -60 -19 -85 -8 -25 -19 -78 -25 -119 -6 -40 -14 -81
-19 -90 -5 -9 -11 -38 -15 -66 -4 -27 -15 -88 -26 -135 -10 -47 -28 -128 -39
-180 -11 -52 -28 -126 -37 -165 -9 -38 -20 -97 -25 -130 -5 -33 -16 -80 -23
-105 -8 -25 -18 -70 -22 -100 -3 -30 -11 -66 -16 -80 -6 -14 -16 -59 -23 -100
-7 -41 -20 -104 -28 -140 -18 -77 -32 -143 -55 -265 -10 -49 -21 -95 -25 -101
-4 -7 -11 -45 -17 -85 -6 -40 -18 -93 -26 -118 -10 -28 -17 -84 -18 -143 -1
-94 0 -97 28 -127 37 -39 95 -51 244 -51 214 0 282 38 327 183 14 43 25 88 25
100 0 13 7 47 15 77 8 30 21 91 29 135 8 44 18 91 24 105 5 14 13 50 16 80 4
30 14 75 21 100 8 25 19 78 25 119 6 40 15 81 19 90 5 9 14 52 20 95 6 43 14
83 18 90 4 6 15 52 25 101 23 122 37 188 55 265 8 36 21 99 28 140 7 41 17 86
23 100 5 14 13 50 16 80 4 30 14 75 22 100 7 25 18 72 23 105 5 33 16 92 25
130 9 39 26 113 37 165 11 52 29 133 39 180 11 47 22 108 26 135 4 28 10 57
15 66 5 9 13 50 19 90 6 41 17 94 25 119 7 25 16 63 19 85 4 22 16 81 27 130
11 50 28 131 39 180 80 378 98 462 119 560 11 50 23 108 27 130 3 22 12 60 19
85 8 25 18 77 24 115 6 39 15 85 20 102 18 62 -19 136 -83 167 -27 13 -67 16
-193 16 -140 0 -163 -2 -198 -21z"/>
<path d="M32500 4553 c-66 -34 -115 -95 -125 -155 -3 -24 -14 -65 -23 -93 -10
-32 -16 -85 -17 -147 l0 -97 33 -31 33 -30 599 0 c381 0 608 -4 625 -10 23 -9
26 -14 20 -38 -4 -15 -13 -64 -20 -109 -7 -45 -16 -87 -20 -93 -4 -6 -13 -46
-20 -88 -7 -42 -20 -106 -28 -142 -8 -36 -20 -90 -27 -120 -6 -30 -20 -95 -30
-145 -10 -49 -24 -115 -30 -145 -7 -30 -19 -84 -27 -120 -8 -36 -19 -92 -24
-125 -5 -33 -16 -80 -23 -105 -8 -25 -18 -70 -22 -100 -3 -30 -12 -71 -19 -90
-7 -19 -16 -60 -19 -90 -4 -30 -14 -75 -21 -100 -8 -25 -19 -78 -25 -119 -6
-40 -14 -81 -19 -90 -5 -9 -12 -38 -16 -66 -3 -27 -15 -88 -25 -135 -11 -47
-29 -130 -41 -185 -11 -55 -27 -129 -36 -165 -8 -36 -21 -99 -28 -140 -7 -41
-17 -86 -23 -100 -5 -14 -12 -47 -16 -75 -4 -27 -16 -90 -27 -140 -11 -49 -29
-132 -39 -182 -43 -201 -60 -281 -76 -353 -9 -41 -23 -106 -30 -145 -8 -38
-21 -99 -29 -135 -8 -36 -15 -95 -16 -132 -1 -57 3 -72 22 -97 35 -45 100 -61
239 -61 171 0 222 13 279 70 39 39 50 59 69 126 12 44 22 91 22 105 0 13 8 53
19 89 10 36 21 92 26 125 4 33 11 67 16 76 5 9 13 50 19 90 6 41 17 94 25 119
8 25 17 68 20 95 4 28 13 70 21 95 7 25 18 72 23 105 5 33 16 92 25 130 20 83
52 230 65 300 21 103 33 162 48 225 8 36 21 99 28 140 7 41 17 86 23 100 5 14
13 50 16 80 4 30 14 75 22 100 7 25 18 72 23 105 5 33 16 89 24 125 17 73 30
133 57 270 10 52 23 108 29 123 6 16 11 41 11 55 0 15 7 52 15 82 8 30 21 91
29 135 8 44 18 91 24 105 5 14 13 50 16 80 4 30 14 75 21 100 8 25 19 78 25
119 6 40 14 81 19 90 5 9 12 39 15 66 4 28 15 86 26 130 10 44 22 100 27 125
6 35 13 46 33 51 14 4 297 7 631 8 l605 1 45 29 c87 56 100 86 150 338 16 85
1 142 -50 180 l-36 28 -1541 3 -1540 2 -54 -27z"/>
<path d="M37595 4559 c-47 -24 -123 -102 -129 -133 -8 -41 -48 -222 -63 -286
-8 -36 -21 -99 -28 -140 -7 -41 -18 -87 -23 -101 -6 -14 -13 -52 -17 -85 -4
-32 -13 -77 -20 -99 -8 -22 -18 -73 -24 -114 -7 -40 -16 -81 -20 -90 -5 -9
-14 -52 -20 -94 -6 -43 -15 -86 -20 -95 -5 -9 -14 -52 -21 -96 -6 -43 -18 -96
-26 -118 -8 -22 -14 -52 -14 -67 0 -15 -7 -51 -15 -81 -8 -30 -21 -92 -29
-137 -8 -45 -17 -87 -21 -93 -4 -6 -13 -48 -21 -93 -8 -45 -21 -107 -29 -137
-8 -30 -15 -66 -15 -81 0 -15 -6 -45 -14 -67 -8 -22 -20 -75 -26 -118 -7 -44
-16 -87 -21 -96 -5 -9 -14 -52 -20 -95 -6 -42 -15 -85 -20 -94 -4 -9 -13 -50
-19 -90 -6 -41 -17 -94 -25 -119 -7 -25 -17 -70 -21 -100 -3 -30 -11 -66 -16
-80 -6 -14 -16 -59 -23 -100 -7 -41 -20 -104 -28 -140 -9 -36 -25 -110 -36
-165 -12 -55 -31 -143 -42 -195 -11 -52 -29 -135 -39 -185 -11 -49 -28 -130
-39 -180 -11 -49 -27 -126 -36 -170 -9 -44 -21 -98 -25 -120 -5 -22 -9 -66
-10 -97 0 -50 4 -62 30 -92 23 -25 44 -37 81 -45 72 -16 274 -14 338 4 100 26
157 110 181 267 6 37 15 80 20 94 6 15 15 61 21 103 6 41 15 83 20 92 4 9 13
50 19 90 6 41 17 94 25 119 7 25 17 70 21 100 3 30 11 66 16 80 6 14 16 61 24
105 8 44 21 105 29 135 8 30 15 67 15 82 0 14 5 39 11 55 6 15 20 73 30 128
11 55 28 143 38 195 11 52 24 108 30 123 6 16 11 41 11 55 0 15 7 52 15 82 8
30 21 91 29 135 8 44 18 91 24 105 5 14 13 50 16 80 4 30 14 75 21 100 8 25
19 78 25 119 6 40 14 81 19 90 5 9 12 39 16 66 3 28 15 88 25 135 11 47 29
130 41 185 11 55 29 138 39 185 11 47 24 111 29 143 12 67 15 73 42 87 15 9
20 7 25 -7 4 -10 14 -36 24 -58 10 -22 33 -74 50 -115 17 -41 40 -94 51 -117
31 -69 58 -130 80 -180 29 -68 43 -100 74 -168 15 -33 35 -78 45 -100 71 -162
94 -215 123 -276 15 -31 27 -60 27 -65 0 -5 9 -27 19 -49 11 -22 28 -60 39
-85 11 -25 31 -70 45 -100 34 -74 63 -141 88 -198 11 -26 26 -60 34 -77 7 -16
23 -51 34 -78 12 -26 30 -66 40 -90 11 -23 42 -96 71 -162 29 -66 60 -139 71
-162 10 -24 28 -64 40 -90 29 -68 43 -100 74 -168 15 -33 36 -80 47 -105 12
-25 28 -63 38 -85 34 -79 57 -131 83 -186 15 -31 27 -60 27 -65 0 -5 9 -28 20
-51 12 -24 29 -62 40 -85 91 -210 146 -317 184 -361 26 -31 44 -42 92 -53 69
-16 220 -18 284 -3 86 19 153 84 169 162 5 23 16 74 25 112 9 39 25 111 36
160 35 165 59 279 79 370 22 102 48 226 62 300 5 28 19 91 30 140 20 93 46
212 80 375 47 220 59 279 75 345 9 39 22 104 29 145 7 41 17 86 23 100 5 14
13 50 16 80 4 30 14 75 21 100 8 25 19 78 25 119 6 40 15 81 19 90 5 9 14 52
20 94 6 43 15 86 20 95 5 9 14 52 21 96 6 43 18 96 26 118 8 22 14 52 14 67 0
15 7 51 15 81 8 30 21 91 29 135 8 44 18 91 24 105 5 14 13 50 16 80 4 30 14
75 22 100 7 25 18 72 23 105 5 33 16 92 25 130 41 175 55 244 61 290 4 28 11
58 16 67 18 33 35 201 26 246 -7 37 -16 48 -55 73 l-46 29 -163 0 c-153 0
-167 -2 -211 -24 -72 -37 -99 -71 -127 -166 -14 -46 -25 -93 -25 -105 0 -11
-7 -45 -15 -75 -8 -30 -21 -91 -29 -135 -8 -44 -19 -92 -24 -106 -6 -14 -13
-52 -17 -85 -4 -32 -13 -77 -20 -99 -8 -22 -18 -73 -24 -114 -7 -40 -15 -81
-20 -90 -5 -9 -12 -38 -16 -66 -6 -46 -20 -115 -61 -290 -9 -38 -20 -97 -25
-130 -5 -33 -16 -80 -23 -105 -8 -25 -18 -70 -22 -100 -3 -30 -11 -66 -16 -80
-6 -14 -16 -59 -23 -100 -7 -41 -20 -104 -28 -140 -8 -36 -20 -90 -27 -120
-29 -140 -49 -239 -59 -280 -6 -25 -15 -67 -20 -95 -24 -117 -34 -164 -48
-225 -8 -36 -21 -100 -28 -142 -7 -42 -16 -82 -20 -88 -4 -6 -13 -48 -21 -93
-8 -45 -21 -107 -29 -137 -8 -30 -15 -67 -15 -82 0 -14 -4 -38 -10 -52 -8 -23
-12 -25 -35 -14 -14 6 -25 16 -25 21 0 9 -96 231 -162 374 -10 24 -27 62 -38
85 -10 24 -29 68 -43 98 -14 30 -34 76 -46 102 -12 27 -30 68 -41 93 -11 25
-29 66 -41 93 -29 67 -43 99 -74 167 -36 80 -61 136 -84 188 -10 23 -27 62
-39 87 -11 25 -29 66 -41 93 -12 26 -30 66 -40 90 -11 23 -42 96 -71 162 -29
66 -60 139 -71 163 -20 45 -47 104 -80 180 -12 26 -30 67 -41 92 -12 25 -29
63 -38 85 -10 22 -27 63 -40 90 -13 28 -30 68 -40 90 -9 22 -26 60 -38 85 -11
25 -29 66 -41 93 -35 79 -60 135 -80 180 -11 23 -36 80 -56 127 -20 47 -41 89
-46 95 -5 5 -9 15 -9 23 0 7 -12 39 -26 70 -96 210 -126 253 -199 291 -35 18
-57 21 -175 21 -117 0 -141 -3 -175 -21z"/>
<path d="M43076 4552 c-90 -50 -118 -107 -160 -327 -17 -86 -41 -203 -66 -315
-10 -47 -28 -130 -39 -185 -12 -55 -31 -143 -42 -195 -24 -111 -50 -236 -80
-375 -11 -55 -27 -129 -36 -165 -8 -36 -21 -99 -28 -140 -7 -41 -18 -88 -24
-105 -5 -16 -15 -63 -21 -104 -6 -40 -15 -81 -19 -90 -5 -9 -14 -52 -20 -94
-6 -43 -15 -86 -20 -95 -5 -9 -12 -39 -16 -67 -6 -46 -20 -115 -61 -290 -9
-38 -20 -97 -25 -130 -5 -33 -16 -80 -23 -105 -8 -25 -18 -70 -22 -100 -3 -30
-11 -66 -16 -80 -6 -14 -16 -61 -24 -105 -8 -44 -21 -105 -29 -135 -8 -30 -15
-66 -15 -81 0 -15 -6 -45 -14 -67 -8 -22 -20 -75 -26 -118 -7 -44 -16 -87 -21
-96 -5 -9 -14 -52 -20 -95 -6 -42 -15 -85 -20 -94 -4 -9 -13 -50 -19 -90 -6
-41 -17 -94 -25 -119 -8 -25 -17 -67 -20 -95 -4 -27 -13 -70 -20 -95 -41 -134
-39 -255 4 -294 51 -47 34 -46 1400 -46 1460 0 1364 -5 1442 79 37 39 48 59
54 98 4 26 11 55 15 63 5 9 16 59 25 112 23 137 8 186 -70 220 -24 10 -245 14
-1105 18 l-1075 5 -3 48 c-2 26 4 75 14 110 9 34 22 94 29 132 7 39 17 90 24
115 12 51 38 178 53 260 5 30 15 78 23 105 8 28 17 70 20 95 6 42 18 102 66
310 10 47 22 109 25 138 5 37 13 57 28 67 18 13 156 15 993 15 960 0 973 0
1025 21 91 35 140 101 158 212 5 30 16 79 24 108 24 81 21 136 -11 182 -15 21
-38 43 -51 48 -13 5 -449 9 -1000 9 -599 0 -983 4 -992 10 -20 13 -17 90 9
200 11 47 29 128 40 180 11 52 29 136 40 185 11 50 23 108 27 130 3 22 12 63
19 90 14 49 33 143 59 280 7 39 21 104 30 145 10 41 21 88 25 105 4 20 15 31
31 36 14 4 501 7 1083 8 l1058 1 44 30 c59 41 100 103 108 164 4 26 13 67 21
90 22 65 30 158 17 199 -7 20 -28 48 -49 64 l-37 28 -1310 2 -1310 3 -49 -28z"/>
<path d="M66525 4556 c-27 -13 -60 -35 -73 -48 -29 -32 -67 -137 -76 -212 -4
-32 -14 -75 -21 -96 -7 -21 -17 -64 -20 -96 -4 -33 -12 -70 -17 -84 -6 -14
-16 -59 -23 -100 -7 -41 -20 -104 -28 -140 -8 -36 -20 -90 -27 -120 -6 -30
-20 -95 -30 -145 -10 -49 -24 -115 -30 -145 -7 -30 -19 -84 -27 -120 -8 -36
-21 -99 -28 -140 -7 -41 -17 -86 -23 -100 -5 -14 -13 -50 -16 -80 -4 -30 -14
-75 -22 -100 -7 -25 -18 -72 -23 -105 -5 -33 -16 -91 -25 -130 -16 -68 -36
-161 -76 -350 -11 -49 -28 -130 -39 -180 -11 -49 -25 -112 -30 -140 -14 -74
-40 -198 -62 -300 -25 -114 -67 -311 -120 -560 -11 -55 -27 -129 -36 -165 -8
-36 -21 -99 -28 -140 -7 -41 -17 -86 -23 -100 -5 -14 -13 -50 -16 -80 -4 -30
-14 -75 -21 -100 -8 -25 -19 -77 -24 -117 -6 -39 -15 -83 -21 -98 -16 -43 -12
-86 15 -131 21 -37 34 -46 77 -59 66 -19 271 -20 351 -1 88 21 150 89 166 183
5 26 16 77 24 113 15 63 27 122 48 225 13 70 45 217 65 300 9 39 20 97 25 130
5 33 16 80 23 105 8 25 17 68 21 95 3 28 12 70 20 95 8 25 19 78 25 119 6 40
14 81 19 90 5 9 11 39 15 66 4 28 15 88 26 135 19 87 43 197 81 375 11 55 29
138 39 185 22 98 48 223 61 295 5 28 19 91 30 140 19 85 31 142 78 365 27 131
63 290 70 318 15 55 31 27 161 -273 29 -66 60 -139 71 -162 10 -24 28 -64 40
-90 11 -27 27 -61 34 -78 8 -16 23 -51 34 -77 25 -57 54 -124 88 -198 14 -30
34 -75 45 -100 11 -25 28 -63 39 -85 10 -22 19 -44 19 -49 0 -5 12 -34 27 -65
14 -31 35 -76 46 -101 24 -54 53 -119 80 -180 11 -25 27 -63 37 -85 9 -22 26
-60 38 -85 11 -25 29 -66 41 -93 12 -26 30 -66 40 -90 11 -23 42 -96 71 -162
29 -66 60 -139 71 -162 33 -74 58 -132 80 -180 11 -27 26 -61 34 -78 7 -16 23
-52 35 -80 12 -27 33 -75 47 -105 14 -30 33 -74 43 -98 11 -23 28 -61 40 -85
11 -23 20 -46 20 -51 0 -5 12 -34 27 -65 14 -31 35 -76 46 -101 11 -25 28 -62
38 -82 11 -20 19 -42 19 -48 0 -22 92 -170 120 -194 38 -31 109 -46 223 -46
209 0 291 63 323 245 6 39 19 99 27 135 8 36 20 90 27 120 6 30 20 96 30 145
10 50 24 115 30 145 7 30 19 84 27 120 8 36 21 99 28 140 7 41 17 86 23 100 5
14 13 52 17 84 4 33 11 71 17 85 5 14 16 60 23 101 7 41 20 104 28 140 9 36
25 110 36 165 38 176 62 288 81 375 11 47 22 105 26 130 3 25 12 65 19 90 12
40 26 107 56 265 5 28 19 91 30 140 11 50 29 132 39 183 11 50 29 134 40 185
11 50 29 137 41 192 11 55 27 129 36 165 8 36 21 99 28 140 7 41 18 89 24 105
5 17 15 63 21 104 6 40 15 81 19 90 5 9 14 52 20 94 6 43 15 86 20 95 5 10 14
51 20 92 6 41 18 97 26 124 8 27 15 63 15 80 0 40 -39 98 -84 126 -33 20 -46
21 -208 18 l-173 -3 -45 -30 c-62 -42 -106 -112 -115 -182 -4 -30 -13 -72 -20
-93 -7 -21 -17 -64 -21 -96 -4 -33 -13 -75 -20 -95 -7 -20 -16 -63 -19 -95 -4
-33 -12 -70 -17 -84 -6 -14 -19 -70 -29 -125 -11 -55 -28 -140 -39 -190 -10
-49 -24 -115 -30 -145 -7 -30 -19 -84 -27 -120 -8 -36 -21 -100 -28 -142 -7
-42 -16 -82 -20 -88 -4 -6 -13 -46 -20 -88 -7 -42 -20 -106 -28 -142 -9 -36
-25 -110 -36 -165 -12 -55 -30 -142 -41 -192 -11 -51 -29 -135 -40 -185 -11
-51 -29 -138 -41 -193 -11 -55 -29 -138 -39 -185 -11 -47 -22 -101 -25 -120
-3 -19 -15 -75 -26 -125 -11 -49 -29 -133 -40 -185 -38 -181 -62 -275 -72
-288 -11 -14 -21 5 -132 258 -37 85 -78 178 -90 205 -13 28 -32 71 -44 97 -12
27 -30 68 -41 93 -11 25 -29 66 -41 93 -29 67 -43 99 -74 167 -36 80 -61 136
-84 188 -35 82 -60 138 -80 180 -30 67 -54 121 -131 297 -40 91 -80 184 -91
208 -34 76 -59 131 -80 180 -11 26 -28 65 -38 87 -47 104 -62 138 -81 180 -11
25 -29 64 -39 88 -11 23 -29 63 -40 90 -12 26 -30 67 -41 92 -11 25 -29 65
-40 90 -11 25 -29 64 -39 88 -11 23 -34 76 -51 117 -17 41 -40 94 -51 118 -10
23 -29 63 -40 90 -51 113 -111 230 -136 266 -16 21 -48 49 -73 62 -41 22 -57
24 -180 24 -121 0 -140 -3 -185 -24z"/>
<path d="M71975 4556 c-27 -14 -60 -35 -72 -48 -30 -32 -60 -103 -68 -163 -4
-27 -13 -70 -20 -95 -8 -25 -19 -78 -25 -119 -6 -40 -14 -81 -19 -90 -5 -9
-12 -38 -15 -66 -4 -27 -15 -86 -26 -130 -19 -85 -30 -133 -60 -285 -10 -52
-23 -111 -29 -130 -5 -19 -13 -60 -16 -90 -4 -30 -12 -66 -17 -80 -6 -14 -16
-59 -23 -100 -7 -41 -20 -104 -28 -140 -9 -36 -25 -110 -36 -165 -12 -55 -30
-140 -41 -190 -11 -49 -24 -112 -29 -140 -21 -103 -33 -162 -48 -225 -8 -36
-21 -99 -28 -140 -7 -41 -17 -86 -23 -100 -5 -14 -13 -50 -16 -80 -4 -30 -14
-75 -21 -100 -8 -25 -19 -81 -24 -125 -6 -44 -15 -96 -22 -115 -16 -50 -24
-528 -10 -610 30 -174 61 -273 122 -394 96 -187 226 -325 408 -432 62 -37 159
-84 173 -84 8 0 22 -6 33 -14 11 -7 36 -17 55 -21 19 -4 60 -15 90 -25 30 -10
86 -21 123 -25 45 -4 70 -12 74 -21 8 -21 718 -21 739 0 7 8 44 17 81 21 70 7
87 11 213 44 90 24 164 47 205 66 17 7 57 25 90 40 33 14 67 30 75 36 8 5 26
15 40 22 14 7 39 21 55 31 17 11 53 35 82 53 138 88 333 294 446 468 72 111
72 111 113 195 71 148 116 260 149 370 8 25 21 65 29 90 23 71 54 180 65 233
19 83 32 140 48 207 8 36 21 99 28 140 7 41 17 86 23 100 5 14 13 51 17 84 3
32 13 75 20 95 7 20 16 61 19 91 4 30 13 75 21 100 7 25 16 65 20 90 3 25 14
83 25 130 20 88 45 205 81 375 11 55 29 138 39 185 11 47 22 101 25 120 3 19
14 73 25 120 10 47 28 130 39 185 34 160 61 284 81 375 10 47 22 105 25 130 3
25 13 65 21 89 8 24 15 77 16 118 0 69 -2 77 -28 105 -52 54 -69 58 -241 58
-151 0 -160 -1 -207 -26 -27 -14 -61 -40 -75 -57 -27 -31 -69 -144 -70 -187
-1 -14 -8 -50 -16 -80 -8 -30 -21 -91 -29 -135 -8 -44 -18 -91 -24 -105 -5
-14 -13 -50 -16 -80 -4 -30 -14 -75 -22 -100 -7 -25 -18 -72 -23 -105 -5 -33
-16 -91 -25 -130 -16 -65 -24 -106 -76 -347 -10 -51 -28 -133 -39 -183 -11
-49 -25 -115 -30 -145 -5 -30 -14 -67 -19 -81 -6 -14 -13 -52 -17 -85 -4 -32
-12 -70 -17 -84 -6 -14 -16 -59 -23 -100 -7 -41 -20 -106 -29 -145 -43 -183
-55 -244 -61 -290 -4 -27 -11 -57 -15 -65 -4 -8 -15 -53 -24 -100 -37 -196
-79 -360 -120 -470 -48 -131 -55 -146 -91 -215 -119 -226 -283 -405 -480 -522
-39 -23 -140 -71 -165 -78 -14 -4 -34 -13 -45 -20 -11 -7 -40 -17 -65 -23 -25
-6 -70 -18 -100 -25 -259 -67 -625 -59 -815 18 -201 81 -308 191 -383 395 -24
63 -52 248 -52 335 1 86 37 390 55 455 8 30 15 66 15 81 0 15 6 45 14 67 8 22
20 75 26 118 7 44 16 87 21 96 5 9 13 49 19 90 6 40 15 84 20 98 6 14 16 59
24 100 24 131 46 233 61 285 7 28 17 73 20 100 4 28 13 70 20 95 8 25 19 78
25 119 6 40 14 81 19 90 5 9 14 52 21 96 7 44 16 88 21 97 5 9 13 49 19 90 6
40 15 84 20 98 6 14 16 59 24 100 24 130 46 233 61 285 7 28 18 83 25 124 6
40 15 81 19 90 5 9 14 52 20 94 6 43 16 87 22 98 5 11 13 51 16 89 5 58 3 73
-15 102 -12 19 -39 44 -60 56 -36 20 -53 22 -198 22 -147 0 -163 -2 -209 -24z"/>
<path d="M77114 4552 c-95 -50 -123 -106 -163 -328 -20 -110 -14 -142 37 -196
l26 -28 604 0 c407 0 610 -3 623 -11 28 -14 26 -28 -51 -366 -11 -49 -22 -110
-26 -138 -4 -27 -10 -57 -15 -66 -5 -9 -13 -50 -19 -90 -6 -41 -16 -87 -21
-104 -6 -16 -17 -64 -24 -105 -7 -41 -20 -104 -28 -140 -9 -36 -25 -110 -36
-165 -12 -55 -30 -140 -41 -190 -11 -49 -24 -112 -29 -140 -21 -103 -33 -162
-48 -225 -8 -36 -21 -99 -28 -140 -7 -41 -18 -87 -23 -101 -6 -14 -13 -52 -17
-85 -4 -32 -12 -70 -17 -84 -6 -14 -16 -59 -23 -100 -7 -41 -20 -104 -28 -140
-8 -36 -20 -90 -27 -120 -6 -30 -20 -95 -30 -145 -10 -49 -24 -115 -30 -145
-7 -30 -19 -84 -27 -120 -8 -36 -21 -99 -28 -140 -7 -41 -17 -86 -23 -100 -5
-14 -13 -50 -16 -80 -4 -30 -14 -75 -21 -100 -8 -25 -19 -78 -25 -119 -6 -40
-14 -81 -19 -90 -5 -9 -12 -38 -16 -66 -3 -27 -13 -80 -22 -118 l-17 -67 27
-55 c24 -50 30 -55 78 -70 68 -20 283 -20 356 -1 89 24 145 86 162 181 6 31
13 61 17 66 3 5 12 45 19 87 7 42 20 106 28 142 8 36 20 90 27 120 6 30 20 96
30 145 10 50 24 115 30 145 7 30 19 84 27 120 8 36 19 92 24 125 5 33 16 80
23 105 8 25 18 70 22 100 3 30 11 66 16 80 6 14 16 59 23 100 7 41 20 104 28
140 15 63 27 122 48 225 5 28 18 91 29 140 11 50 29 135 41 190 11 55 27 129
36 165 8 36 21 99 28 140 7 41 17 86 23 100 5 14 12 48 16 75 4 28 16 91 27
140 19 88 39 179 80 373 11 53 29 135 39 182 11 47 22 108 26 135 4 28 10 57
15 67 5 9 15 54 23 100 17 102 45 209 58 226 8 9 147 12 633 12 l622 0 46 35
c62 48 89 88 104 159 7 34 20 93 29 131 21 91 15 167 -16 200 -55 59 52 55
-1617 55 l-1528 0 -51 -28z"/>
<path d="M82199 4555 c-54 -28 -106 -84 -115 -123 -3 -15 -12 -47 -19 -72 -8
-25 -17 -67 -20 -95 -4 -27 -13 -70 -20 -95 -8 -25 -19 -76 -25 -115 -6 -38
-17 -90 -25 -115 -8 -25 -17 -71 -20 -103 -4 -36 -12 -60 -21 -64 -10 -4 -14
-22 -14 -62 0 -31 -7 -81 -15 -111 -8 -30 -21 -91 -29 -135 -8 -44 -18 -91
-24 -105 -5 -14 -13 -50 -16 -80 -4 -30 -14 -75 -22 -100 -7 -25 -18 -72 -23
-105 -5 -33 -16 -91 -25 -130 -41 -175 -55 -244 -61 -290 -4 -27 -11 -57 -16
-66 -5 -9 -13 -50 -19 -90 -6 -41 -15 -84 -20 -97 -6 -13 -15 -55 -21 -95 -5
-40 -16 -92 -24 -117 -7 -25 -16 -63 -19 -85 -4 -22 -16 -80 -27 -130 -20 -93
-46 -212 -80 -375 -47 -223 -59 -280 -78 -365 -11 -49 -23 -108 -27 -130 -3
-22 -12 -60 -19 -85 -7 -25 -16 -67 -20 -95 -3 -27 -12 -70 -20 -95 -8 -25
-19 -78 -25 -119 -6 -40 -15 -81 -19 -90 -5 -9 -14 -52 -20 -94 -6 -43 -15
-86 -20 -95 -15 -30 -43 -224 -37 -257 18 -92 90 -119 300 -113 162 5 194 15
252 77 41 43 60 97 88 256 8 44 18 91 24 105 5 14 13 50 17 80 4 30 15 88 26
129 10 41 19 97 19 124 0 29 6 54 14 63 8 8 18 36 21 62 3 26 14 83 25 127 11
44 22 103 26 130 3 28 10 57 15 66 5 9 13 50 19 90 6 41 17 94 25 119 7 25 17
70 21 100 3 30 12 71 20 92 7 21 16 65 20 98 12 104 -44 95 573 98 l541 3 20
-33 c11 -18 25 -51 30 -73 6 -22 16 -49 22 -60 6 -11 17 -40 24 -65 7 -25 25
-76 39 -115 15 -38 33 -91 40 -116 7 -26 20 -60 29 -77 9 -17 16 -38 16 -47 0
-9 9 -33 20 -55 11 -22 20 -47 20 -56 0 -9 7 -30 14 -47 19 -40 53 -139 68
-192 6 -22 15 -45 20 -52 5 -7 16 -34 23 -60 8 -26 26 -79 40 -118 15 -38 33
-90 41 -115 8 -25 18 -54 24 -65 12 -26 48 -129 62 -180 6 -22 17 -49 25 -60
7 -11 13 -26 13 -35 0 -24 50 -111 81 -143 38 -38 142 -57 308 -57 198 0 257
26 296 133 17 46 17 50 0 105 -9 31 -23 71 -31 87 -8 17 -20 50 -28 75 -8 25
-26 77 -41 115 -14 39 -32 88 -40 110 -7 22 -25 72 -40 110 -14 39 -33 90 -41
115 -8 25 -21 59 -29 77 -8 17 -15 36 -15 43 0 7 -7 26 -15 43 -8 18 -21 52
-29 77 -8 25 -26 77 -41 115 -14 39 -32 88 -40 110 -7 22 -26 72 -40 110 -41
108 -65 176 -81 225 -8 25 -21 59 -29 77 -8 17 -15 36 -15 43 0 6 -9 32 -21
57 -14 31 -17 49 -10 56 5 5 50 23 98 39 115 37 247 91 293 119 8 5 24 13 35
18 11 5 51 30 90 55 244 164 387 342 531 661 37 83 90 263 110 375 7 41 18 99
23 129 6 29 11 119 11 198 0 226 -45 391 -154 563 -40 62 -180 199 -246 241
-30 19 -64 40 -75 47 -11 6 -31 17 -45 22 -14 6 -41 19 -61 30 -20 11 -42 20
-49 20 -7 0 -26 7 -43 15 -51 23 -168 50 -352 82 -89 16 -197 18 -975 20
l-875 3 -46 -25z m1811 -579 c41 -9 93 -21 115 -26 117 -26 227 -89 295 -169
22 -25 40 -50 40 -54 0 -4 10 -29 22 -55 20 -42 22 -62 21 -207 -1 -133 -5
-171 -22 -225 -11 -36 -21 -74 -21 -85 0 -11 -9 -38 -20 -60 -11 -22 -19 -45
-20 -51 0 -17 -51 -113 -95 -179 -61 -93 -191 -212 -269 -246 -12 -5 -28 -13
-36 -18 -71 -44 -201 -85 -380 -118 -85 -16 -163 -18 -720 -18 l-625 0 2 67
c0 37 8 88 16 115 8 26 18 68 21 93 6 42 20 109 66 311 11 47 20 97 20 111 0
14 6 44 14 66 8 22 17 62 21 89 6 45 13 79 65 311 10 48 22 107 25 132 4 25
11 61 17 80 6 19 16 60 22 90 9 45 15 55 36 62 14 4 315 6 670 4 564 -2 654
-5 720 -20z"/>
<path d="M87435 4558 c-85 -44 -126 -108 -144 -227 -6 -40 -15 -81 -20 -90 -5
-9 -12 -38 -16 -66 -3 -27 -15 -88 -25 -135 -11 -47 -29 -130 -41 -185 -11
-55 -27 -129 -36 -165 -8 -36 -21 -99 -28 -140 -7 -41 -18 -87 -23 -101 -6
-14 -13 -52 -17 -85 -4 -32 -12 -70 -17 -84 -6 -14 -16 -59 -23 -100 -7 -41
-20 -104 -28 -140 -8 -36 -20 -90 -27 -120 -6 -30 -20 -95 -30 -145 -10 -49
-24 -115 -30 -145 -7 -30 -19 -84 -27 -120 -8 -36 -21 -100 -28 -142 -7 -42
-16 -82 -20 -88 -4 -6 -13 -46 -20 -88 -7 -42 -20 -106 -28 -142 -9 -36 -25
-110 -36 -165 -12 -55 -31 -143 -42 -195 -11 -52 -29 -135 -39 -185 -11 -49
-27 -124 -36 -165 -10 -41 -23 -106 -30 -145 -7 -38 -20 -101 -28 -140 -46
-214 -58 -268 -76 -352 -11 -51 -29 -137 -41 -190 -11 -54 -29 -136 -40 -183
-26 -115 -25 -155 7 -202 40 -57 98 -71 272 -65 75 2 154 9 174 16 82 26 139
107 153 215 4 32 13 75 20 95 7 20 16 61 19 91 4 30 13 75 21 100 7 25 16 63
19 85 4 22 16 81 27 130 11 50 28 131 39 180 80 378 98 462 119 560 11 50 23
108 27 130 3 22 12 60 19 85 8 25 16 65 20 90 3 25 15 86 26 135 11 50 28 131
39 180 40 189 60 282 76 350 9 39 20 97 25 130 5 33 16 80 23 105 8 25 18 70
22 100 3 30 11 66 16 80 6 14 16 59 23 100 7 41 20 104 28 140 8 36 20 90 27
120 6 30 20 96 30 145 10 50 24 115 30 145 7 30 19 84 27 120 8 36 21 99 28
140 7 41 17 86 23 100 5 14 13 52 17 84 4 33 11 71 17 85 5 14 16 60 23 101 7
41 20 104 30 139 23 86 16 143 -21 183 -52 54 -69 58 -246 58 -145 -1 -167 -3
-203 -22z"/>
<path d="M89765 4554 c-27 -15 -57 -36 -68 -48 -29 -34 -64 -117 -71 -173 -4
-29 -13 -71 -21 -94 -31 -87 -15 -174 41 -218 26 -21 33 -21 638 -21 409 0
615 -3 622 -10 13 -13 9 -38 -46 -290 -11 -47 -22 -101 -25 -120 -3 -19 -14
-73 -25 -120 -10 -47 -28 -130 -39 -185 -35 -165 -61 -285 -81 -375 -10 -47
-22 -107 -25 -135 -4 -27 -11 -57 -16 -66 -5 -9 -13 -50 -19 -90 -6 -41 -17
-94 -25 -119 -8 -25 -17 -67 -20 -95 -4 -27 -13 -70 -21 -95 -7 -25 -18 -72
-23 -105 -5 -33 -16 -89 -24 -125 -21 -88 -36 -158 -58 -265 -31 -155 -40
-198 -56 -265 -8 -36 -21 -99 -28 -140 -7 -41 -18 -87 -23 -101 -6 -14 -13
-52 -17 -85 -4 -32 -12 -70 -17 -84 -6 -14 -16 -59 -23 -100 -7 -41 -20 -104
-28 -140 -16 -67 -25 -110 -56 -265 -24 -117 -39 -185 -59 -265 -8 -36 -17
-97 -19 -135 -4 -67 -3 -72 27 -107 40 -46 89 -58 248 -58 135 0 205 16 256
56 37 30 86 124 86 166 0 13 7 48 15 78 8 30 21 91 29 135 8 44 18 91 24 105
5 14 13 52 17 84 4 33 11 71 17 85 5 14 16 60 23 101 7 41 20 104 28 140 15
63 27 122 48 225 5 28 18 91 29 140 11 50 29 135 41 190 11 55 27 129 36 165
8 36 21 99 28 140 7 41 17 86 23 100 5 14 12 48 16 75 4 28 16 91 27 140 24
108 66 303 120 560 11 55 29 138 39 185 11 47 22 101 25 120 3 19 14 73 25
120 10 47 28 130 39 185 35 165 61 285 81 375 10 47 22 107 25 134 7 54 21 92
43 119 14 16 57 17 631 17 l616 1 36 22 c69 42 112 115 129 219 5 35 17 85 25
112 8 27 15 63 15 79 0 39 -34 92 -78 122 l-37 25 -1535 0 -1535 0 -50 -26z"/>
<path d="M94850 4555 c-84 -44 -116 -97 -144 -245 -22 -109 -36 -177 -53 -250
-8 -36 -21 -100 -28 -142 -7 -42 -16 -82 -20 -88 -4 -6 -13 -46 -20 -88 -7
-42 -20 -106 -28 -142 -9 -36 -25 -110 -36 -165 -12 -55 -31 -143 -42 -195
-25 -117 -52 -244 -80 -375 -11 -55 -29 -138 -39 -185 -11 -47 -22 -101 -25
-120 -3 -19 -15 -75 -26 -125 -20 -90 -42 -194 -79 -370 -42 -197 -60 -282
-76 -350 -9 -38 -22 -104 -29 -145 -7 -41 -17 -86 -23 -100 -5 -14 -12 -50
-16 -80 -4 -30 -13 -75 -21 -100 -7 -25 -19 -78 -25 -119 -6 -40 -15 -81 -19
-90 -5 -9 -14 -52 -20 -94 -6 -43 -15 -86 -20 -95 -5 -9 -14 -52 -21 -96 -6
-43 -18 -96 -26 -118 -8 -22 -14 -52 -14 -67 0 -15 -7 -51 -15 -81 -8 -30 -21
-91 -29 -135 -8 -44 -19 -93 -25 -108 -20 -51 -14 -117 15 -159 37 -53 93 -68
249 -68 147 0 226 18 271 61 37 36 74 107 74 140 0 13 8 62 20 109 43 186 53
228 65 300 7 41 17 86 23 100 5 14 13 52 17 84 4 33 11 71 17 85 5 14 16 60
23 101 7 41 20 104 28 140 18 77 32 143 55 265 10 50 21 95 25 101 4 7 12 47
18 90 6 43 15 86 20 95 4 9 13 50 19 90 6 41 18 94 25 119 8 25 17 70 21 100
4 30 11 66 16 80 6 14 16 59 23 100 7 41 20 107 29 145 9 39 25 111 36 160 10
50 28 134 39 188 46 215 61 286 80 372 11 50 23 106 26 125 3 19 14 73 25 120
10 47 28 130 39 185 12 55 31 143 42 195 24 111 50 236 80 375 11 55 28 129
36 165 48 206 40 257 -47 309 -32 19 -50 21 -200 20 -154 0 -168 -2 -210 -24z"/>
<path d="M102965 4560 c-61 -32 -123 -105 -130 -154 -4 -23 -13 -61 -21 -86
-7 -25 -18 -72 -23 -105 -5 -33 -16 -91 -25 -130 -41 -175 -55 -244 -61 -290
-4 -27 -11 -58 -16 -67 -5 -9 -14 -52 -20 -95 -6 -42 -15 -85 -20 -94 -4 -9
-13 -50 -19 -90 -6 -41 -16 -87 -21 -104 -6 -16 -17 -64 -24 -105 -7 -41 -20
-104 -28 -140 -9 -36 -25 -110 -36 -165 -12 -55 -31 -143 -42 -195 -25 -117
-52 -244 -80 -375 -11 -55 -29 -138 -39 -185 -11 -47 -22 -101 -25 -120 -3
-19 -15 -75 -26 -125 -21 -95 -46 -215 -78 -367 -11 -51 -29 -136 -40 -188
-11 -52 -30 -140 -42 -195 -11 -55 -27 -129 -36 -165 -8 -36 -21 -99 -28 -140
-7 -41 -18 -88 -24 -105 -5 -16 -15 -63 -21 -104 -6 -40 -15 -81 -19 -90 -5
-9 -14 -52 -20 -94 -6 -43 -15 -86 -20 -96 -15 -27 -33 -180 -26 -221 8 -48
47 -84 107 -99 67 -16 272 -14 337 4 103 27 165 121 186 280 3 28 12 70 20 95
8 25 19 78 25 119 6 40 14 81 19 90 5 9 11 39 15 66 4 28 15 88 26 135 19 87
43 197 81 375 11 55 29 138 39 185 11 47 22 101 25 120 3 19 14 73 25 120 10
47 28 130 39 185 35 165 61 285 81 375 10 47 22 108 25 135 4 28 11 57 16 66
5 9 13 50 19 90 6 41 18 94 25 119 8 25 17 70 21 100 4 30 11 66 16 80 6 14
16 59 23 100 7 41 20 104 28 140 26 111 56 253 64 305 7 44 11 50 35 53 22 3
28 -2 38 -35 7 -21 18 -49 26 -63 7 -14 22 -46 33 -72 12 -27 30 -67 40 -90
11 -24 42 -97 71 -163 29 -66 60 -139 71 -162 33 -74 58 -132 80 -180 29 -68
43 -100 74 -168 27 -59 43 -95 82 -185 10 -25 29 -65 41 -90 12 -25 22 -49 22
-54 0 -5 12 -34 27 -65 24 -52 36 -78 83 -186 10 -22 29 -65 43 -95 31 -69 61
-137 88 -197 11 -27 26 -61 34 -78 7 -16 23 -51 34 -78 12 -26 30 -66 40 -90
11 -23 34 -76 51 -117 17 -41 40 -94 51 -118 31 -68 58 -129 80 -179 29 -68
43 -100 74 -168 15 -33 35 -78 45 -100 30 -69 58 -134 78 -178 10 -23 32 -71
47 -107 69 -159 95 -206 152 -277 39 -49 253 -70 378 -37 119 30 156 97 200
356 7 42 16 82 20 88 4 6 13 46 20 88 7 42 20 106 28 142 8 36 20 90 27 120 6
30 20 96 30 145 10 50 24 115 30 145 7 30 19 84 27 120 8 36 21 99 28 140 7
41 18 87 23 101 6 14 13 52 17 85 4 32 12 70 17 84 6 14 16 59 23 100 7 41 20
104 28 140 9 36 25 110 36 165 12 55 30 138 41 185 10 47 22 108 25 135 4 28
11 57 16 66 5 9 13 50 19 90 6 41 16 88 21 104 6 17 17 64 24 105 7 41 20 104
28 140 9 36 25 110 36 165 12 55 31 143 42 195 25 117 52 244 80 375 11 55 29
138 40 185 10 47 23 108 28 135 24 128 45 224 57 265 15 55 35 194 30 212 -3
7 -7 26 -10 41 -5 19 -22 37 -53 57 l-47 30 -163 0 c-153 0 -167 -2 -211 -24
-26 -13 -59 -37 -73 -53 -29 -31 -63 -127 -77 -218 -5 -33 -17 -91 -26 -130
-41 -175 -55 -244 -61 -290 -4 -27 -11 -58 -16 -67 -5 -9 -14 -52 -20 -95 -6
-42 -15 -85 -20 -94 -4 -9 -13 -50 -19 -90 -6 -41 -16 -87 -21 -104 -6 -16
-17 -64 -24 -105 -7 -41 -20 -104 -28 -140 -9 -36 -25 -110 -36 -165 -30 -139
-56 -264 -80 -375 -11 -52 -30 -140 -42 -195 -11 -55 -29 -138 -39 -185 -11
-47 -22 -101 -25 -120 -3 -19 -15 -75 -26 -125 -20 -90 -41 -188 -80 -372 -11
-54 -29 -136 -39 -183 -11 -47 -22 -105 -26 -130 -3 -25 -10 -53 -16 -62 -13
-25 -45 -22 -53 5 -4 12 -19 47 -33 77 -14 30 -33 73 -43 95 -9 22 -28 65 -42
95 -14 30 -34 76 -46 103 -12 26 -30 67 -41 92 -11 25 -29 66 -41 92 -11 27
-26 62 -34 78 -7 17 -23 51 -34 77 -35 80 -62 140 -88 198 -14 30 -33 73 -42
95 -10 22 -30 65 -44 96 -15 31 -27 60 -27 65 0 5 -9 27 -20 49 -33 67 -100
215 -100 221 0 3 -12 31 -26 62 -30 65 -55 120 -85 190 -29 67 -43 99 -74 167
-36 80 -61 136 -84 188 -10 23 -27 62 -39 87 -11 25 -29 66 -41 93 -12 26 -30
66 -40 90 -11 23 -51 116 -91 207 -40 91 -80 184 -91 208 -10 23 -28 63 -40
90 -12 26 -30 67 -41 92 -12 25 -29 63 -38 85 -63 145 -120 242 -165 280 l-47
40 -151 3 c-138 3 -156 1 -192 -18z"/>
</g>
</svg>
