<svg xmlns="http://www.w3.org/2000/svg" width="40" height="40" viewBox="0 0 40 40">
  <g id="Group_113" data-name="Group 113" transform="translate(-1218 -5293)">
    <g id="Group_98" data-name="Group 98" transform="translate(0 11.5)">
      <g id="Group_17" data-name="Group 17" transform="translate(28 1010.484)">
        <g id="Ellipse_323" data-name="Ellipse 323" transform="translate(1190 4271.016)" fill="none" stroke="#fff" stroke-width="1">
          <circle cx="20" cy="20" r="20" stroke="none"/>
          <circle cx="20" cy="20" r="19.5" fill="none"/>
        </g>
        <g id="fb" transform="translate(1303 4550.039)">
          <path id="Path_364" data-name="Path 364" d="M148.719,40.311v8.814c-.1.006-.184.016-.269.017l-3.45,0c-.253,0-.282-.028-.282-.28q0-4.159,0-8.318v-.225H142.8v-2.98h1.672c.242,0,.249-.007.249-.243,0-.782-.008-1.565,0-2.346a2.981,2.981,0,0,1,1.11-2.428,3.631,3.631,0,0,1,1.7-.724,7.565,7.565,0,0,1,1.1-.1c.975-.015,1.95-.007,2.924-.012.126,0,.213.011.212.173-.006.934,0,1.868-.006,2.8a1.085,1.085,0,0,1-.013.11h-2.078a.942.942,0,0,0-.674.243.78.78,0,0,0-.269.586q0,.858-.011,1.716c0,.17.075.22.235.219.875-.005,1.751,0,2.627,0h.2c-.074.61-.145,1.2-.217,1.788-.042.342-.09.682-.123,1.025-.012.127-.056.165-.183.164-.776-.006-1.553,0-2.329,0Z" transform="translate(-240.8 -299.489)" fill="#fff"/>
        </g>
      </g>
    </g>
  </g>
</svg>
