<svg xmlns="http://www.w3.org/2000/svg" width="40" height="40" viewBox="0 0 40 40">
  <g id="Group_77" data-name="Group 77" transform="translate(-1213 -45)">
    <g id="Group_18" data-name="Group 18" transform="translate(-30 -4226.016)">
      <circle id="Ellipse_322" data-name="Ellipse 322" cx="20" cy="20" r="20" transform="translate(1243 4271.016)" fill="#006450" opacity="0.1"/>
      <g id="instagram" transform="translate(1253 4281.039)">
        <path id="Path_365" data-name="Path 365" d="M55.3,45.492c0,1.356-.039,2.714.008,4.069a5.638,5.638,0,0,1-3.793,5.514,6.394,6.394,0,0,1-2.245.4l-7.775-.006a6.338,6.338,0,0,1-2.747-.521,5.641,5.641,0,0,1-3.328-4.009,4.906,4.906,0,0,1-.1-1.039q-.011-4.311,0-8.622a5.663,5.663,0,0,1,4.754-5.662,7.134,7.134,0,0,1,1.22-.12q3.968-.014,7.937,0a6.1,6.1,0,0,1,3.251.845,5.354,5.354,0,0,1,2.817,4.736c.011,1.47,0,2.941,0,4.412Zm-18.508,0h.01c0,1.47,0,2.941,0,4.412a3.249,3.249,0,0,0,.061.7,4.192,4.192,0,0,0,2.568,3.018,4.733,4.733,0,0,0,1.927.355c2.625,0,5.251,0,7.876.01a4.825,4.825,0,0,0,2.832-.889A3.8,3.8,0,0,0,53.8,49.845c.016-2.954.008-5.909,0-8.863a3.486,3.486,0,0,0-.718-2.118,4.466,4.466,0,0,0-3.741-1.872c-2.672-.013-5.345,0-8.017-.009a4.86,4.86,0,0,0-1.523.243A4.146,4.146,0,0,0,36.79,41.2C36.8,42.635,36.792,44.065,36.792,45.5Z" transform="translate(-35.312 -35.494)" fill="#006450"/>
        <path id="Path_367" data-name="Path 367" d="M391.311,125.533a.987.987,0,1,1-.99-1.033A1.014,1.014,0,0,1,391.311,125.533Z" transform="translate(-375.074 -120.913)" fill="#006450"/>
        <path id="Path_366" data-name="Path 366" d="M171.981,168.768a4.634,4.634,0,1,1,4.688-4.643A4.669,4.669,0,0,1,171.981,168.768Zm0-7.779a3.144,3.144,0,1,0,3.192,3.141A3.173,3.173,0,0,0,171.986,160.989Z" transform="translate(-161.962 -154.503)" fill="#006450"/>
      </g>
    </g>
  </g>
</svg>
