<svg id="Artwork" xmlns="http://www.w3.org/2000/svg" viewBox="0 0 1276.72 340.72"><defs><style>.cls-1{fill:#323232;}</style></defs><path class="cls-1" d="M201.49,89v50.57c-19.29-20.17-43-31-64-31-16.08,0-26,5.26-26,15.49,0,8.48,5.84,14,19.29,18.71l27.47,9.35c36.54,12.57,52,30.69,52,61.68,0,38.29-32.74,64.59-79.21,64.59-29.81,0-53.49-13.15-66.35-27.77V199.44c21,24,45.3,36,67.52,36,18.12,0,28.94-6.73,28.94-18.71,0-10.52-6.73-15.2-21.34-20.46l-25.14-8.77c-36.83-12.86-52.32-31.27-52.32-61.38,0-35.95,31.57-60.5,76-60.5C161.74,65.58,187.17,74.93,201.49,89Z"/><path class="cls-1" d="M281,274.85H235.12V69.08H281Z"/><path class="cls-1" d="M305.36,200c0-44.72,35.37-78.33,81.55-78.33s81.55,33.61,81.55,78.33c0,44.43-35.37,78.33-81.55,78.33S305.36,244.46,305.36,200Zm81.55,36.83c20.17,0,35.37-15.79,35.37-36.83s-15.2-36.83-35.37-36.83C367,163.2,351.84,179,351.84,200S367,236.86,386.91,236.86Z"/><path class="cls-1" d="M612.55,152.39l-65.47,84.47h65.47v38H483.36V247.67l65.47-84.76H486V125.2H612.55Zm-82.13-90,17.54,24,17.24-24h40.34L574,108.54H522.24L490.38,62.36Z"/><path class="cls-1" d="M629.17,200c0-43.55,31-78.33,76.58-78.33,49.69,0,75.41,38.87,67.81,87.68H670.38c4.38,19,21,31.28,47.64,31.28,17.25,0,34.78-6.73,49.69-17.54v38.29c-12,10.23-31.86,16.95-57.87,16.95C661.32,278.36,629.17,247.09,629.17,200Zm99.37-20.17c-.87-14.32-12-24-26.59-24-14,0-25.72,7.9-30.69,24Z"/><path class="cls-1" d="M844.94,144.79c9.64-14.91,24.26-23.09,42.67-23.09,34.78,0,58.46,25.13,58.46,66.35v86.8h-45.6V194.18c0-18.7-11.4-30.69-27.48-30.69s-28,13.45-28,33v78.33H799.05V125.2h45.89Z"/><path class="cls-1" d="M967.57,200c0-44.72,35.36-78.33,81.55-78.33s81.54,33.61,81.54,78.33c0,44.43-35.36,78.33-81.54,78.33S967.57,244.46,967.57,200Zm81.55,36.83c20.16,0,35.36-15.79,35.36-36.83s-15.2-36.83-35.36-36.83C1029.24,163.2,1014,179,1014,200S1029.24,236.86,1049.12,236.86Z"/><path class="cls-1" d="M1214.36,150.34c0,17.83-13.15,30.11-32.15,30.11-18.71,0-31.57-12.28-31.57-30.11,0-18.41,12.86-30.69,31.57-30.69C1201.21,119.65,1214.36,131.93,1214.36,150.34Zm-32.15,67.23c19,0,32.15,12.27,32.15,30.69,0,17.83-13.15,30.1-32.15,30.1-18.71,0-31.57-12.27-31.57-30.1C1150.64,229.84,1163.5,217.57,1182.21,217.57Z"/></svg>