<svg id="Artwork" xmlns="http://www.w3.org/2000/svg" viewBox="0 0 1281.72 338.72"><defs><style>.cls-1{fill:#fff;}</style></defs><path class="cls-1" d="M156.91,152l-27.48-9.35c-14-4.87-20-10.75-20-19.65,0-10.49,9.84-16.5,27-16.5,21.45,0,44.3,10.74,63,29.53V88.38c-14.16-13.65-39.06-22.8-62.13-22.8-44.16,0-75,24.47-75,59.5,0,29.72,15.45,47.79,51.65,60.44l25.14,8.77c18.5,6.66,22,12.66,22,21.4,0,12.52-10.92,19.71-29.94,19.71-22.81,0-46.35-12.17-66.52-34.34v48.16c15.13,17,39.53,27.14,65.35,27.14,46,0,78.21-26.15,78.21-63.59C208.26,182.18,193.38,164.59,156.91,152Z"/><rect class="cls-1" x="236.12" y="69.08" width="43.89" height="203.77"/><path class="cls-1" d="M387.91,121.7c-45.92,0-80.55,33.24-80.55,77.33a75.56,75.56,0,0,0,23.15,55.1c14.93,14.34,35.32,22.23,57.4,22.23s42.47-7.89,57.4-22.23A75.56,75.56,0,0,0,468.46,199C468.46,154.94,433.83,121.7,387.91,121.7Zm0,115.16c-20.57,0-36.07-16.27-36.07-37.83s15.5-37.83,36.07-37.83c20.73,0,36.37,16.26,36.37,37.83S408.64,236.86,387.91,236.86Z"/><polygon class="cls-1" points="575.44 106.54 605.64 62.36 567.72 62.36 549.96 87.03 531.91 62.36 494.28 62.36 524.76 106.54 575.44 106.54"/><polygon class="cls-1" points="486.36 247.01 486.36 272.85 613.55 272.85 613.55 236.86 547.04 236.86 613.55 151.04 613.55 125.2 488.99 125.2 488.99 160.91 552.87 160.91 486.36 247.01"/><path class="cls-1" d="M654.08,144.22c-13.49,14.18-20.91,33.65-20.91,54.81,0,22.82,7.55,42.22,21.83,56.1s34.3,21.23,57.84,21.23c24,0,44.22-5.82,56.87-16.41V224.06c-15.36,10.71-32.58,16.6-48.69,16.6-26.19,0-43.91-11.68-48.62-32l-.28-1.23H775.7c3.77-25.49-1.56-48.17-15.06-63.93-12.19-14.23-30.13-21.75-51.89-21.75C687.31,121.7,667.89,129.7,654.08,144.22Zm78.46,34.58.07,1.06H672.9l.4-1.29c4.85-15.68,16.38-24.68,31.65-24.68S731.64,164.14,732.54,178.8Z"/><path class="cls-1" d="M891.61,121.7c-17.79,0-32.25,7.82-41.84,22.63l-1.84,2.84v-22H804.05V272.85h43.88V195.52c0-19.72,12.23-34,29.06-34,17,0,28.48,12.74,28.48,31.69v79.67h43.6v-85.8C949.07,147.35,926.51,121.7,891.61,121.7Z"/><path class="cls-1" d="M1054.11,121.7c-45.92,0-80.54,33.24-80.54,77.33a75.56,75.56,0,0,0,23.15,55.1c14.93,14.34,35.31,22.23,57.39,22.23s42.47-7.89,57.4-22.23a75.56,75.56,0,0,0,23.15-55.1C1134.66,154.94,1100,121.7,1054.11,121.7Zm0,115.16c-20.56,0-36.07-16.27-36.07-37.83s15.51-37.83,36.07-37.83c20.74,0,36.37,16.26,36.37,37.83S1074.85,236.86,1054.11,236.86Z"/><path class="cls-1" d="M1188.21,178.45c18.34,0,31.15-12,31.15-29.11,0-17.76-12.52-29.69-31.15-29.69-18.28,0-30.57,11.93-30.57,29.69C1157.64,166.75,1169.93,178.45,1188.21,178.45Z"/><path class="cls-1" d="M1188.21,217.57c-18.28,0-30.57,11.93-30.57,29.69,0,17.41,12.29,29.1,30.57,29.1s31.15-12,31.15-29.1C1219.36,229.5,1206.84,217.57,1188.21,217.57Z"/></svg>