<svg xmlns="http://www.w3.org/2000/svg" xmlns:xlink="http://www.w3.org/1999/xlink" width="40" height="40" viewBox="0 0 40 40">
  <defs>
    <clipPath id="clip-path">
      <rect id="Rectangle_135" data-name="Rectangle 135" width="27.514" height="15.719" fill="none" stroke="#ff7800" stroke-width="1.3"/>
    </clipPath>
  </defs>
  <g id="Group_126" data-name="Group 126" transform="translate(-123 -328)">
    <circle id="Ellipse_348" data-name="Ellipse 348" cx="20" cy="20" r="20" transform="translate(123 328)" fill="#ff7800" opacity="0.1"/>
    <g id="Group_81" data-name="Group 81" transform="translate(128 340)">
      <g id="Group_80" data-name="Group 80" transform="translate(0 0)" clip-path="url(#clip-path)">
        <path id="Path_542" data-name="Path 542" d="M20.154,2.831H9.828V11.5a1.959,1.959,0,0,0,1.959,1.959h7.3A1.96,1.96,0,0,0,21.041,11.5V3.448" transform="translate(5.913 1.704)" fill="none" stroke="#ff7800" stroke-linecap="square" stroke-width="1.3"/>
        <path id="Path_543" data-name="Path 543" d="M1.775,6.75H15.529V3.9H1.775a1.425,1.425,0,0,0,0,2.851Z" transform="translate(0.211 2.347)" fill="none" stroke="#ff7800" stroke-linecap="square" stroke-width="1.3"/>
        <path id="Path_544" data-name="Path 544" d="M9.805,4.244c-.006-.07-.011-.139-.011-.211a2.435,2.435,0,0,1,2.4-2.465,2.33,2.33,0,0,1,.562.07A2.506,2.506,0,0,1,14.862.35a2.654,2.654,0,0,1,2.377,1.84,2.441,2.441,0,0,1,1.344-.405A2.467,2.467,0,0,1,21.06,4.244" transform="translate(5.893 0.211)" fill="none" stroke="#ff7800" stroke-linecap="square" stroke-width="1.3"/>
        <line id="Line_14" data-name="Line 14" y2="5.702" transform="translate(18.781 6.815)" fill="none" stroke="#ff7800" stroke-linecap="square" stroke-width="1.3"/>
      </g>
    </g>
  </g>
</svg>
