<svg xmlns="http://www.w3.org/2000/svg" viewBox="0 0 40 40"><defs><style>.cls-1{fill:none;stroke:#fff;}.cls-2{fill:#fff;}</style></defs><title>tikto-white_1</title><g id="Vrstva_2" data-name="Vrstva 2"><g id="bila-tiktok"><circle class="cls-1" cx="20" cy="20" r="19.5"/><g id="tikto"><path class="cls-2" d="M25.67,14.43a4.46,4.46,0,0,1-2-2.9,5.54,5.54,0,0,1-.07-.81H20.46V23.49a2.68,2.68,0,1,1-2.68-2.78,2.9,2.9,0,0,1,.79.12V17.58a5.16,5.16,0,0,0-.79-.06,5.87,5.87,0,0,0-3.36,10.67,5.81,5.81,0,0,0,3.36,1.06,5.87,5.87,0,0,0,5.87-5.86V16.91a7.56,7.56,0,0,0,4.43,1.43V15.15A4.33,4.33,0,0,1,25.67,14.43Z"/></g></g></g></svg>