<svg xmlns="http://www.w3.org/2000/svg" viewBox="0 0 40 40"><defs><style>.cls-1,.cls-2{fill:#006450;}.cls-1{opacity:0.1;isolation:isolate;}</style></defs><title>tiktok-green</title><g id="Vrstva_2" data-name="Vrstva 2"><g id="zelena-titktok"><circle id="Ellipse_322" data-name="Ellipse 322" class="cls-1" cx="20" cy="20" r="20"/><g id="tikto"><path class="cls-2" d="M25.67,14.45a4.48,4.48,0,0,1-2-2.91,5.31,5.31,0,0,1-.07-.81H20.46V23.5a2.69,2.69,0,0,1-2.68,2.58,2.59,2.59,0,0,1-1.24-.31,2.68,2.68,0,0,1,1.24-5.05,2.56,2.56,0,0,1,.79.13V17.59a6.84,6.84,0,0,0-.79-.05,5.87,5.87,0,1,0,5.87,5.86V16.93a7.62,7.62,0,0,0,4.43,1.42V15.17A4.41,4.41,0,0,1,25.67,14.45Z"/></g></g></g></svg>